<svg width="80" height="40" viewBox="0 0 80 40" fill="none" xmlns="http://www.w3.org/2000/svg">
<path d="M17.9597 18.8694V26.3181C17.9597 26.4388 17.9117 26.5546 17.8264 26.64C17.741 26.7254 17.6252 26.7733 17.5045 26.7733H15.1539C15.0332 26.7733 14.9174 26.7253 14.8321 26.6399C14.7468 26.5546 14.6988 26.4388 14.6987 26.3181V14.2025C14.6987 14.0817 14.7467 13.9659 14.832 13.8806C14.9174 13.7952 15.0331 13.7472 15.1539 13.7472H17.3291C17.4498 13.7472 17.5656 13.7952 17.651 13.8806C17.7363 13.9659 17.7843 14.0817 17.7843 14.2025V15.9087C17.7843 15.9087 18.5619 13.4748 20.8696 13.4748C20.8696 13.4748 23.1522 13.1988 24.0804 15.733C24.0804 15.733 24.858 13.4748 27.2159 13.4748C27.2159 13.4748 30.7224 13.2663 30.7224 16.8957L30.7491 18.8945V26.3432C30.7491 26.4639 30.7011 26.5797 30.6158 26.6651C30.5304 26.7504 30.4147 26.7984 30.294 26.7984H27.9431C27.8224 26.7984 27.7067 26.7504 27.6213 26.665C27.536 26.5796 27.488 26.4639 27.488 26.3432L27.4665 18.2171C27.5333 16.377 26.0451 16.5109 26.0451 16.5109C24.1723 16.5444 24.3525 18.8945 24.3525 18.8945V26.3432C24.3525 26.4639 24.3045 26.5797 24.2192 26.6651C24.1338 26.7504 24.018 26.7984 23.8973 26.7984H21.5467C21.426 26.7984 21.3102 26.7504 21.2249 26.665C21.1396 26.5796 21.0916 26.4639 21.0915 26.3432V18.4009C21.0915 18.4009 21.229 16.494 19.5566 16.494C19.5568 16.494 17.9013 16.2766 17.9597 18.8694ZM78.5536 18.8471V26.2956C78.5535 26.4163 78.5056 26.5321 78.4202 26.6174C78.3349 26.7028 78.2192 26.7508 78.0985 26.7508L75.6537 26.7982C75.533 26.7982 75.4173 26.7502 75.3319 26.6648C75.2466 26.5794 75.1986 26.4637 75.1986 26.343V18.4009C75.1986 18.4009 75.336 16.494 73.6638 16.494C73.6638 16.494 72.0667 16.4153 72.0667 19.4052V26.3179C72.0666 26.4386 72.0186 26.5544 71.9333 26.6397C71.848 26.7251 71.7322 26.7731 71.6115 26.7731H69.2607C69.14 26.7731 69.0242 26.7251 68.9389 26.6397C68.8536 26.5544 68.8056 26.4386 68.8055 26.3179V14.2025C68.8056 14.0818 68.8536 13.966 68.9389 13.8806C69.0242 13.7953 69.14 13.7473 69.2607 13.7472H71.436C71.5567 13.7472 71.6724 13.7952 71.7578 13.8806C71.8431 13.9659 71.8911 14.0817 71.8911 14.2025V15.9087C71.8911 15.9087 72.6687 13.4748 74.9764 13.4748C74.9764 13.4748 77.4485 13.0997 78.2811 15.6859C78.2813 15.6857 78.5536 16.2192 78.5536 18.8471ZM61.5807 13.4247C58.5747 13.4247 56.1375 15.9589 56.1375 20.2243C56.1375 23.9798 58.0188 27.024 61.5807 27.024C64.942 27.024 67.024 23.9798 67.024 20.2243C67.024 16.0341 64.587 13.4247 61.5807 13.4247ZM63.4781 20.3749C63.4781 21.9807 63.2774 22.8338 63.2774 22.8338C62.9919 24.5314 61.7599 24.5338 61.5783 24.5248C61.3823 24.5326 60.1399 24.5149 59.8829 22.8338C59.8829 22.8338 59.6822 21.9807 59.6822 20.3749V20.1073C59.6822 18.5015 59.8829 17.6484 59.8829 17.6484C60.1399 15.9673 61.3825 15.9496 61.5783 15.9572C61.7599 15.9482 62.9919 15.9504 63.2774 17.6484C63.2774 17.6484 63.4781 18.5015 63.4781 20.1073V20.3749ZM54.7732 15.8918V14.1535C54.7731 14.0328 54.7251 13.917 54.6398 13.8316C54.5544 13.7463 54.4387 13.6983 54.318 13.6982H46.548C46.4273 13.6982 46.3115 13.7462 46.2262 13.8316C46.1408 13.917 46.0929 14.0328 46.0929 14.1535V15.8784C46.0929 15.9991 46.1409 16.1148 46.2262 16.2002C46.3116 16.2856 46.4273 16.3336 46.548 16.3336H50.601L45.8037 23.2949C45.8037 23.2949 45.6147 23.5771 45.6209 23.8888V26.0063C45.6209 26.0063 45.5896 26.7324 46.4127 26.311C46.4127 26.311 47.8748 25.4274 50.3265 25.4274C50.3265 25.4274 52.7476 25.3973 54.3618 26.3871C54.3618 26.3871 55.0318 26.6918 55.0318 26.0218V24.1787C55.0318 24.1787 55.0926 23.6909 54.4531 23.3864C54.4531 23.3864 52.5952 22.3659 50.1589 22.5333L54.7732 15.8918ZM12.8845 24.6067L12.1486 23.4862C11.9144 23.0679 11.9313 22.5994 11.9313 22.5994V17.4308C12.0316 12.9646 7.08162 13.3494 7.08162 13.3494C2.68128 13.3494 2.03131 16.7748 2.03131 16.7748C1.84789 17.4635 2.38128 17.4802 2.38128 17.4802L4.53148 17.6984C4.53148 17.6984 4.89811 17.7823 5.03156 17.3457C5.03156 17.3457 5.3147 15.8513 6.89821 15.8513C8.62118 15.8513 8.60332 17.3304 8.60332 17.3304V18.5687C5.1638 18.6837 3.56986 19.6388 3.56986 19.6388C1.44615 20.8432 1.5798 23.2353 1.5798 23.2353C1.5798 27.1326 5.29223 26.9652 5.29223 26.9652C7.66678 26.9652 9.07149 25.2257 9.07149 25.2257C9.48949 25.962 10.2589 26.6641 10.2589 26.6641C10.6438 27.0816 11.0449 26.7312 11.0449 26.7312L12.7841 25.2426C13.1686 24.9579 12.8845 24.6067 12.8845 24.6067ZM6.45111 24.5585C5.33417 24.5585 4.91898 23.4482 5.1044 22.3571C5.29002 21.2659 6.25405 20.4084 8.60352 20.4335V21.0969C8.6868 23.995 7.38082 24.5585 6.45111 24.5585ZM44.1223 24.6067L43.3866 23.4862C43.1524 23.0679 43.1691 22.5994 43.1691 22.5994V17.4308C43.2694 12.9646 38.3194 13.3494 38.3194 13.3494C33.9191 13.3494 33.2691 16.7748 33.2691 16.7748C33.0857 17.4635 33.6191 17.4802 33.6191 17.4802L35.7693 17.6984C35.7693 17.6984 36.1359 17.7823 36.2694 17.3457C36.2694 17.3457 36.5525 15.8513 38.136 15.8513C39.859 15.8513 39.8411 17.3304 39.8411 17.3304V18.5687C36.4018 18.6837 34.8077 19.6388 34.8077 19.6388C32.684 20.8432 32.8176 23.2353 32.8176 23.2353C32.8176 27.1326 36.53 26.9652 36.53 26.9652C38.9046 26.9652 40.3093 25.2257 40.3093 25.2257C40.7275 25.962 41.4965 26.6641 41.4965 26.6641C41.8814 27.0816 42.2827 26.7312 42.2827 26.7312L44.0217 25.2426C44.4064 24.9579 44.1223 24.6067 44.1223 24.6067ZM37.6889 24.5585C36.572 24.5585 36.1568 23.4482 36.3422 22.3571C36.5278 21.2659 37.4919 20.4084 39.8411 20.4335V21.0969C39.9246 23.995 38.6188 24.5585 37.6889 24.5585Z" fill="#7534FF"/>
<path d="M50.0406 34.3898C50.0406 34.3898 49.844 34.7321 50.0856 34.8086C50.0856 34.8086 50.3585 34.9152 50.6988 34.5992C50.6988 34.5992 53.1809 32.4303 53.2407 28.4816C53.2407 28.4816 53.259 27.9884 53.0611 27.8535C53.0611 27.8535 52.2835 27.1654 49.4874 27.3748C49.4874 27.3748 47.05 27.5394 45.7194 28.721C45.7194 28.721 45.5998 28.8256 45.5998 28.9601C45.5998 28.9601 45.5711 29.2506 46.3025 29.1247C46.3025 29.1247 48.7397 28.7805 50.1901 28.9601C50.1901 28.9601 50.938 29.0498 51.1473 29.3044C51.1473 29.3044 51.4913 29.5886 51.3117 30.5306C51.3117 30.531 50.818 32.9241 50.0406 34.3898Z" fill="#7534FF"/>
<path d="M49.5496 30.6025C49.5496 30.6025 49.9136 31.0743 49.3263 31.4811C49.3263 31.4811 43.0518 36.5014 32.5166 36.5014C32.5166 36.5014 21.6719 37.0365 12.6165 28.8066C12.6165 28.8066 12.2991 28.5278 12.4961 28.2687C12.4961 28.2687 12.6723 28.0302 13.1284 28.2895C13.1284 28.2895 21.6468 33.599 32.8342 33.599C32.8342 33.599 40.6103 33.9001 48.587 30.4877C48.587 30.4877 49.2225 30.1583 49.5496 30.6025Z" fill="#7534FF"/>
</svg>
