<svg width="1363" height="672" viewBox="0 0 1363 672" fill="none" xmlns="http://www.w3.org/2000/svg">
<path d="M63.8237 51.9472C36.8178 12.1064 65.3578 -41.7183 113.489 -41.7183H1386.33V663.282H658.496C545.743 663.282 440.324 607.384 377.06 514.052L63.8237 51.9472Z" fill="#F9F8FF"/>
<g filter="url(#filter0_d_2_3138)">
<path d="M63.8237 51.9472C36.8178 12.1064 65.3578 -41.7183 113.489 -41.7183H1386.33V663.282H658.496C545.743 663.282 440.324 607.384 377.06 514.052L63.8237 51.9472Z" fill="url(#paint0_linear_2_3138)"/>
</g>
<mask id="mask0_2_3138" style="mask-type:alpha" maskUnits="userSpaceOnUse" x="53" y="-42" width="1334" height="706">
<path d="M63.8237 51.9472C36.8178 12.1064 65.3578 -41.7183 113.489 -41.7183H1386.33V663.282H658.496C545.743 663.282 440.324 607.384 377.06 514.052L63.8237 51.9472Z" fill="#F9F8FF"/>
</mask>
<g mask="url(#mask0_2_3138)">
<ellipse cx="349.646" cy="361.677" rx="349.646" ry="361.677" transform="matrix(0.920144 -0.39158 0.361103 0.932526 379.012 -137.437)" fill="url(#paint1_linear_2_3138)" fill-opacity="0.44" style="mix-blend-mode:multiply"/>
<ellipse cx="326.181" cy="289.821" rx="326.181" ry="289.821" transform="matrix(0.244077 -0.969756 0.959148 0.282903 816.598 1012)" fill="url(#paint2_linear_2_3138)" fill-opacity="0.42" style="mix-blend-mode:multiply"/>
</g>
<defs>
<filter id="filter0_d_2_3138" x="49.3867" y="-41.7183" width="1340.95" height="713" filterUnits="userSpaceOnUse" color-interpolation-filters="sRGB">
<feFlood flood-opacity="0" result="BackgroundImageFix"/>
<feColorMatrix in="SourceAlpha" type="matrix" values="0 0 0 0 0 0 0 0 0 0 0 0 0 0 0 0 0 0 127 0" result="hardAlpha"/>
<feOffset dy="4"/>
<feGaussianBlur stdDeviation="2"/>
<feComposite in2="hardAlpha" operator="out"/>
<feColorMatrix type="matrix" values="0 0 0 0 0 0 0 0 0 0 0 0 0 0 0 0 0 0 0.25 0"/>
<feBlend mode="normal" in2="BackgroundImageFix" result="effect1_dropShadow_2_3138"/>
<feBlend mode="normal" in="SourceGraphic" in2="effect1_dropShadow_2_3138" result="shape"/>
</filter>
<linearGradient id="paint0_linear_2_3138" x1="693.333" y1="-41.7183" x2="693.333" y2="663.282" gradientUnits="userSpaceOnUse">
<stop stop-color="#00A3E3"/>
<stop offset="1" stop-color="#9FCD10"/>
</linearGradient>
<linearGradient id="paint1_linear_2_3138" x1="349.646" y1="0" x2="349.646" y2="723.354" gradientUnits="userSpaceOnUse">
<stop stop-color="#684FFF"/>
<stop offset="1" stop-color="#FFF8F0" stop-opacity="0"/>
</linearGradient>
<linearGradient id="paint2_linear_2_3138" x1="326.181" y1="0" x2="326.181" y2="579.642" gradientUnits="userSpaceOnUse">
<stop stop-color="#684FFF"/>
<stop offset="1" stop-color="#FFF8F0" stop-opacity="0"/>
</linearGradient>
</defs>
</svg>
