<svg width="1377" height="585" viewBox="0 0 1377 585" fill="none" xmlns="http://www.w3.org/2000/svg">
<rect x="0.34082" width="1376.38" height="585" rx="50" fill="url(#paint0_linear_2_2487)"/>
<mask id="mask0_2_2487" style="mask-type:alpha" maskUnits="userSpaceOnUse" x="0" y="0" width="1377" height="585">
<rect x="0.34082" width="1376.38" height="585" rx="50" fill="url(#paint1_linear_2_2487)"/>
</mask>
<g mask="url(#mask0_2_2487)">
<ellipse cx="288.803" cy="296.099" rx="288.803" ry="296.099" transform="matrix(0.863748 -0.503925 0.530756 0.847525 406.373 -159.93)" fill="url(#paint2_linear_2_2487)" fill-opacity="0.44" style="mix-blend-mode:multiply"/>
<ellipse cx="265.687" cy="256.519" rx="265.687" ry="256.519" transform="matrix(0.251279 -0.967915 0.970222 0.242218 1000.18 717.325)" fill="url(#paint3_linear_2_2487)" fill-opacity="0.42" style="mix-blend-mode:multiply"/>
<ellipse cx="265.553" cy="256.646" rx="265.553" ry="256.646" transform="matrix(0.304106 -0.952638 0.954962 0.296727 -178.589 927.951)" fill="url(#paint4_linear_2_2487)" fill-opacity="0.42" style="mix-blend-mode:multiply"/>
</g>
<defs>
<linearGradient id="paint0_linear_2_2487" x1="688.532" y1="0" x2="688.532" y2="585" gradientUnits="userSpaceOnUse">
<stop stop-color="#00A3E3"/>
<stop offset="1" stop-color="#9FCD10"/>
</linearGradient>
<linearGradient id="paint1_linear_2_2487" x1="290.2" y1="-2.90267e-05" x2="1264.17" y2="734.29" gradientUnits="userSpaceOnUse">
<stop stop-color="#684FFF"/>
<stop offset="1" stop-color="#B871FE"/>
</linearGradient>
<linearGradient id="paint2_linear_2_2487" x1="288.803" y1="0" x2="288.803" y2="592.198" gradientUnits="userSpaceOnUse">
<stop stop-color="#684FFF"/>
<stop offset="1" stop-color="#FFF8F0" stop-opacity="0"/>
</linearGradient>
<linearGradient id="paint3_linear_2_2487" x1="265.687" y1="0" x2="265.687" y2="513.039" gradientUnits="userSpaceOnUse">
<stop stop-color="#684FFF"/>
<stop offset="1" stop-color="#FFF8F0" stop-opacity="0"/>
</linearGradient>
<linearGradient id="paint4_linear_2_2487" x1="265.553" y1="0" x2="265.553" y2="513.292" gradientUnits="userSpaceOnUse">
<stop stop-color="#684FFF"/>
<stop offset="1" stop-color="#FFF8F0" stop-opacity="0"/>
</linearGradient>
</defs>
</svg>
