<svg width="690" height="519" viewBox="0 0 690 519" fill="none" xmlns="http://www.w3.org/2000/svg">
<rect x="92.334" y="270.001" width="594" height="243" rx="15" fill="#F4F4F4"/>
<circle cx="341.387" cy="336.054" r="7.05259" stroke="#FFC700" stroke-width="4"/>
<rect x="357.334" y="329.001" width="126" height="5" rx="2.5" fill="#CBCBCB"/>
<rect x="357.334" y="338.001" width="65" height="5" rx="2.5" fill="#E2E2E2"/>
<circle cx="341.387" cy="375.054" r="7.05259" stroke="#FF358A" stroke-width="4"/>
<rect x="357.334" y="368.001" width="126" height="5" rx="2.5" fill="#CBCBCB"/>
<rect x="357.334" y="377.001" width="65" height="5" rx="2.5" fill="#E2E2E2"/>
<circle cx="341.387" cy="414.054" r="7.05259" stroke="url(#paint0_linear_2_2775)" stroke-width="4"/>
<rect x="357.334" y="407.001" width="126" height="5" rx="2.5" fill="#CBCBCB"/>
<rect x="357.334" y="416.001" width="65" height="5" rx="2.5" fill="#E2E2E2"/>
<circle cx="341.387" cy="453.054" r="7.05259" stroke="#05A402" stroke-width="4"/>
<rect x="357.334" y="446.001" width="126" height="5" rx="2.5" fill="#CBCBCB"/>
<rect x="357.334" y="455.001" width="65" height="5" rx="2.5" fill="#E2E2E2"/>
<g clip-path="url(#clip0_2_2775)">
<path d="M208.842 324.199V355.264C231.697 355.264 250.242 373.768 250.242 396.608C250.242 419.432 231.712 437.952 208.842 437.952C185.971 437.952 167.442 419.447 167.442 396.608C167.442 387.831 170.203 379.712 174.866 373.018H174.85L146.765 359.17C140.138 370.092 136.334 382.898 136.334 396.593C136.334 436.573 168.791 469.001 208.842 469.001C248.877 469.001 281.349 436.588 281.349 396.593C281.334 356.612 248.877 324.199 208.842 324.199Z" fill="#FFB422"/>
<path d="M140.583 347.973L168.669 361.805H168.684C176.17 351.082 188.579 344.051 202.66 344.051V313.001C176.338 313.001 153.284 327.018 140.583 347.973Z" fill="white"/>
<path d="M281.334 396.593C281.334 383.404 277.791 371.042 271.609 360.396H228.813C241.575 367.442 250.242 380.999 250.242 396.593C250.242 419.417 231.712 437.936 208.842 437.936V469.001C248.877 469.001 281.334 436.588 281.334 396.593Z" fill="url(#paint1_linear_2_2775)"/>
<path d="M208.842 324.199V355.264C231.697 355.264 250.242 373.768 250.242 396.608H281.349C281.334 356.612 248.877 324.199 208.842 324.199Z" fill="#05A402"/>
</g>
<g clip-path="url(#clip1_2_2775)">
<path d="M662.334 301.001C664.259 301.001 665.834 299.426 665.834 297.501C665.834 295.576 664.259 294.001 662.334 294.001C660.409 294.001 658.834 295.576 658.834 297.501C658.834 299.426 660.409 301.001 662.334 301.001ZM662.334 304.501C660.409 304.501 658.834 306.076 658.834 308.001C658.834 309.926 660.409 311.501 662.334 311.501C664.259 311.501 665.834 309.926 665.834 308.001C665.834 306.076 664.259 304.501 662.334 304.501ZM662.334 315.001C660.409 315.001 658.834 316.576 658.834 318.501C658.834 320.426 660.409 322.001 662.334 322.001C664.259 322.001 665.834 320.426 665.834 318.501C665.834 316.576 664.259 315.001 662.334 315.001Z" fill="#A9B7CD"/>
</g>
<rect x="107.334" y="293.001" width="42" height="20" rx="10" fill="#E2E2E2"/>
<rect x="507.334" y="324.001" width="118" height="138" rx="14" fill="#E0DBFF"/>
<mask id="mask0_2_2775" style="mask-type:alpha" maskUnits="userSpaceOnUse" x="507" y="324" width="119" height="139">
<rect x="507.334" y="324.001" width="118" height="138" rx="14" fill="#E0DBFF"/>
</mask>
<g mask="url(#mask0_2_2775)">
<path d="M537.769 392.586L506.536 421.533C504.495 423.426 503.334 426.084 503.334 428.868V454.001C503.334 459.524 507.811 464.001 513.334 464.001H624.834C630.357 464.001 634.834 459.524 634.834 454.001V359.863C634.834 356.073 631.762 353.001 627.972 353.001C625.979 353.001 624.085 353.868 622.782 355.376L580.374 404.436C576.762 408.614 570.447 409.074 566.269 405.462L551.106 392.355C547.251 389.023 541.506 389.122 537.769 392.586Z" fill="#C2B9F5"/>
</g>
<circle cx="544.334" cy="355.001" r="12" fill="#C1B9F5"/>
<rect x="99.334" y="42.0015" width="286.534" height="210.37" rx="20" fill="#F4F4F4"/>
<rect x="343.623" y="158.377" width="17.4981" height="72.5104" rx="8.74906" fill="#FBE1FF"/>
<rect x="343.623" y="190.471" width="17.4981" height="40.4156" rx="8.74906" fill="#D94CE6"/>
<rect x="307.794" y="158.377" width="17.4981" height="72.5104" rx="8.74906" fill="#FBE1FF"/>
<rect x="307.794" y="207.112" width="17.4981" height="23.7739" rx="8.74906" fill="#D94CE6"/>
<rect x="271.965" y="158.377" width="17.4981" height="72.5104" rx="8.74906" fill="#FBE1FF"/>
<rect x="271.965" y="175.019" width="17.4981" height="55.8687" rx="8.74906" fill="#D94CE6"/>
<rect x="236.135" y="158.377" width="17.4981" height="72.5104" rx="8.74906" fill="#FBE1FF"/>
<rect x="236.135" y="182.151" width="17.4981" height="48.7365" rx="8.74906" fill="#D94CE6"/>
<rect x="200.306" y="158.377" width="17.4981" height="72.5104" rx="8.74906" fill="#FBE1FF"/>
<rect x="200.306" y="190.471" width="17.4981" height="40.4156" rx="8.74906" fill="#D94CE6"/>
<rect x="164.476" y="158.377" width="17.4981" height="72.5104" rx="8.74906" fill="#FBE1FF"/>
<rect x="164.476" y="171.452" width="17.4981" height="59.4348" rx="8.74906" fill="#D94CE6"/>
<rect x="128.646" y="158.377" width="17.4981" height="72.5104" rx="8.74906" fill="#FBE1FF"/>
<rect x="128.646" y="201.169" width="17.4981" height="29.7174" rx="8.74906" fill="#D94CE6"/>
<g clip-path="url(#clip2_2_2775)">
<path d="M355.642 91.8825L354.609 92.229L353.51 87.108L350.247 94.1842L349.318 93.5128L352.581 86.4366L348.491 87.8137L348.212 86.5114L354.072 84.5454L355.642 91.8825Z" fill="#05A402"/>
</g>
<rect x="402.8" y="43.6318" width="286.534" height="210.37" rx="20" fill="#F4F4F4"/>
<rect x="648.049" y="159.417" width="17.8419" height="72.5104" rx="8.92093" fill="#BCD2BC"/>
<rect x="648.049" y="191.511" width="17.8419" height="40.4156" rx="8.92093" fill="#44C642"/>
<rect x="611.516" y="159.417" width="17.8419" height="72.5104" rx="8.92093" fill="#BCD2BC"/>
<rect x="611.516" y="208.152" width="17.8419" height="23.7739" rx="8.92093" fill="#44C642"/>
<rect x="574.982" y="159.417" width="17.8419" height="72.5104" rx="8.92093" fill="#BCD2BC"/>
<rect x="574.982" y="176.059" width="17.8419" height="55.8687" rx="8.92093" fill="#44C642"/>
<rect x="538.448" y="159.417" width="17.8419" height="72.5104" rx="8.92093" fill="#BCD2BC"/>
<rect x="538.448" y="183.191" width="17.8419" height="48.7365" rx="8.92093" fill="#44C642"/>
<rect x="501.915" y="159.417" width="17.8419" height="72.5104" rx="8.92093" fill="#BCD2BC"/>
<rect x="501.915" y="191.511" width="17.8419" height="40.4156" rx="8.92093" fill="#44C642"/>
<rect x="465.382" y="159.417" width="17.8419" height="72.5104" rx="8.92093" fill="#BCD2BC"/>
<rect x="465.382" y="172.492" width="17.8419" height="59.4348" rx="8.92093" fill="#44C642"/>
<rect x="428.849" y="159.417" width="17.8419" height="72.5104" rx="8.92093" fill="#BCD2BC"/>
<rect x="428.849" y="202.209" width="17.8419" height="29.7174" rx="8.92093" fill="#44C642"/>
<g clip-path="url(#clip3_2_2775)">
<path d="M664.318 90.2513L663.285 90.5978L662.185 85.4768L658.923 92.5529L657.994 91.8816L661.257 84.8054L657.167 86.1825L656.888 84.8801L662.748 82.9142L664.318 90.2513Z" fill="#05A402"/>
</g>
<rect x="122.777" y="100.709" width="78.1457" height="19.5693" rx="9.78464" fill="#E2E2E2"/>
<rect x="428.849" y="103.97" width="78.1457" height="19.5693" rx="9.78464" fill="#E2E2E2"/>
<rect x="122.777" y="82.7709" width="54.702" height="13.0462" rx="6.52309" fill="#E2E2E2"/>
<rect x="428.849" y="86.0326" width="54.702" height="11.4154" rx="5.70771" fill="#E2E2E2"/>
<rect x="306.42" y="107.232" width="54.702" height="16.3077" rx="8" fill="#FFB422"/>
<rect x="612.49" y="108.863" width="54.702" height="16.3077" rx="8" fill="#FFB422"/>
<rect x="119.334" y="63.0015" width="250" height="79.6309" rx="15" fill="white"/>
<rect x="140.334" y="100.001" width="60" height="15" rx="7.5" fill="#E2E2E2"/>
<rect x="140.334" y="87.0015" width="42" height="8" rx="4" fill="#E2E2E2"/>
<g clip-path="url(#clip4_2_2775)">
<path d="M230.325 121.002C228.674 121.002 227.334 119.27 227.334 117.136V112.931C227.334 110.798 228.674 109.066 230.325 109.066C231.976 109.066 233.316 110.798 233.316 112.931V117.136C233.34 119.27 232 121.002 230.325 121.002Z" fill="url(#paint2_linear_2_2775)"/>
<path d="M239.323 121.001C237.672 121.001 236.332 119.27 236.332 117.136V108.85C236.332 106.716 237.672 104.985 239.323 104.985C240.974 104.985 242.338 106.685 242.338 108.85V117.136C242.338 119.27 240.998 121.001 239.323 121.001Z" fill="url(#paint3_linear_2_2775)"/>
<path d="M248.345 121.002C246.694 121.002 245.354 119.27 245.354 117.136V100.316C245.354 98.1821 246.694 96.4506 248.345 96.4506C249.996 96.4506 251.336 98.1821 251.336 100.316V117.136C251.336 119.27 249.996 121.002 248.345 121.002Z" fill="url(#paint4_linear_2_2775)"/>
<path d="M257.342 121.002C255.691 121.002 254.351 119.27 254.351 117.136V92.0908C254.351 89.9573 255.691 88.2257 257.342 88.2257C258.993 88.2257 260.333 89.9573 260.333 92.0908V117.136C260.333 119.27 258.993 121.002 257.342 121.002Z" fill="url(#paint5_linear_2_2775)"/>
<path d="M266.34 121.001C264.689 121.001 263.349 119.27 263.349 117.136V86.6178C263.349 84.4842 264.689 82.7527 266.34 82.7527C267.991 82.7527 269.331 84.4842 269.331 86.6178V117.136C269.331 119.27 267.991 121.001 266.34 121.001Z" fill="url(#paint6_linear_2_2775)"/>
<path d="M275.338 121.001C273.687 121.001 272.347 119.27 272.347 117.136V80.8665C272.347 78.733 273.687 77.0015 275.338 77.0015C276.989 77.0015 278.329 78.733 278.329 80.8665V117.105C278.329 119.27 276.989 121.001 275.338 121.001Z" fill="url(#paint7_linear_2_2775)"/>
<path d="M284.335 121.002C282.684 121.002 281.344 119.27 281.344 117.136V92.0908C281.344 89.9573 282.684 88.2257 284.335 88.2257C285.986 88.2257 287.326 89.9573 287.326 92.0908V117.136C287.326 119.27 285.986 121.002 284.335 121.002Z" fill="url(#paint8_linear_2_2775)"/>
<path d="M293.333 121.001C291.682 121.001 290.342 119.27 290.342 117.136V96.5742C290.342 94.4407 291.682 92.7091 293.333 92.7091C294.984 92.7091 296.324 94.4407 296.324 96.5742V117.136C296.348 119.27 294.984 121.001 293.333 121.001Z" fill="url(#paint9_linear_2_2775)"/>
<path d="M302.33 121.002C300.679 121.002 299.339 119.27 299.339 117.136V98.3676C299.339 96.2341 300.679 94.5026 302.33 94.5026C303.981 94.5026 305.321 96.2341 305.321 98.3676V117.136C305.345 119.27 304.005 121.002 302.33 121.002Z" fill="url(#paint10_linear_2_2775)"/>
<path d="M311.328 121.001C309.677 121.001 308.337 119.27 308.337 117.136V103.129C308.337 100.996 309.677 99.2643 311.328 99.2643C312.979 99.2643 314.319 100.996 314.319 103.129V117.136C314.343 119.27 313.003 121.001 311.328 121.001Z" fill="url(#paint11_linear_2_2775)"/>
<path d="M320.35 121.001C318.698 121.001 317.358 119.27 317.358 117.136V107.242C317.358 105.108 318.698 103.377 320.35 103.377C322.001 103.377 323.341 105.108 323.341 107.242V117.136C323.341 119.27 322.001 121.001 320.35 121.001Z" fill="url(#paint12_linear_2_2775)"/>
<path d="M329.348 121.001C327.697 121.001 326.356 119.27 326.356 117.136V110.488C326.356 108.355 327.697 106.623 329.348 106.623C330.999 106.623 332.339 108.355 332.339 110.488V117.136C332.339 119.27 330.999 121.001 329.348 121.001Z" fill="url(#paint13_linear_2_2775)"/>
<path d="M347.343 121.001C345.692 121.001 344.352 119.27 344.352 117.136V110.488C344.352 108.355 345.692 106.623 347.343 106.623C348.994 106.623 350.334 108.355 350.334 110.488V117.136C350.334 119.27 348.994 121.001 347.343 121.001Z" fill="url(#paint14_linear_2_2775)"/>
<path d="M338.345 121.001C336.694 121.001 335.354 119.27 335.354 117.136V107.242C335.354 105.108 336.694 103.377 338.345 103.377C339.996 103.377 341.336 105.108 341.336 107.242V117.136C341.336 119.27 339.996 121.001 338.345 121.001Z" fill="url(#paint15_linear_2_2775)"/>
</g>
<rect x="119.334" y="152.37" width="250" height="79.6309" rx="15" fill="white"/>
<rect x="140.334" y="191.001" width="60" height="15" rx="7.5" fill="#E2E2E2"/>
<rect x="140.334" y="178.001" width="42" height="8" rx="4" fill="#E2E2E2"/>
<g clip-path="url(#clip5_2_2775)">
<path d="M230.325 208.001C228.674 208.001 227.334 206.27 227.334 204.136V199.931C227.334 197.798 228.674 196.066 230.325 196.066C231.976 196.066 233.316 197.798 233.316 199.931V204.136C233.34 206.27 232 208.001 230.325 208.001Z" fill="url(#paint16_linear_2_2775)"/>
<path d="M239.323 208.001C237.672 208.001 236.332 206.27 236.332 204.136V195.85C236.332 193.716 237.672 191.984 239.323 191.984C240.974 191.984 242.338 193.685 242.338 195.85V204.136C242.338 206.27 240.998 208.001 239.323 208.001Z" fill="url(#paint17_linear_2_2775)"/>
<path d="M248.345 208.001C246.694 208.001 245.354 206.27 245.354 204.136V187.316C245.354 185.182 246.694 183.45 248.345 183.45C249.996 183.45 251.336 185.182 251.336 187.316V204.136C251.336 206.27 249.996 208.001 248.345 208.001Z" fill="url(#paint18_linear_2_2775)"/>
<path d="M257.342 208.001C255.691 208.001 254.351 206.27 254.351 204.136V179.091C254.351 176.957 255.691 175.226 257.342 175.226C258.993 175.226 260.333 176.957 260.333 179.091V204.136C260.333 206.27 258.993 208.001 257.342 208.001Z" fill="url(#paint19_linear_2_2775)"/>
<path d="M266.34 208.001C264.689 208.001 263.349 206.27 263.349 204.136V173.618C263.349 171.484 264.689 169.753 266.34 169.753C267.991 169.753 269.331 171.484 269.331 173.618V204.136C269.331 206.27 267.991 208.001 266.34 208.001Z" fill="url(#paint20_linear_2_2775)"/>
<path d="M275.338 208.001C273.687 208.001 272.347 206.27 272.347 204.136V167.866C272.347 165.733 273.687 164.001 275.338 164.001C276.989 164.001 278.329 165.733 278.329 167.866V204.105C278.329 206.27 276.989 208.001 275.338 208.001Z" fill="url(#paint21_linear_2_2775)"/>
<path d="M284.335 208.001C282.684 208.001 281.344 206.27 281.344 204.136V179.091C281.344 176.957 282.684 175.226 284.335 175.226C285.986 175.226 287.326 176.957 287.326 179.091V204.136C287.326 206.27 285.986 208.001 284.335 208.001Z" fill="url(#paint22_linear_2_2775)"/>
<path d="M293.333 208.001C291.682 208.001 290.342 206.27 290.342 204.136V183.574C290.342 181.441 291.682 179.709 293.333 179.709C294.984 179.709 296.324 181.441 296.324 183.574V204.136C296.348 206.27 294.984 208.001 293.333 208.001Z" fill="url(#paint23_linear_2_2775)"/>
<path d="M302.33 208.001C300.679 208.001 299.339 206.27 299.339 204.136V185.368C299.339 183.234 300.679 181.502 302.33 181.502C303.981 181.502 305.321 183.234 305.321 185.368V204.136C305.345 206.27 304.005 208.001 302.33 208.001Z" fill="url(#paint24_linear_2_2775)"/>
<path d="M311.328 208.001C309.677 208.001 308.337 206.27 308.337 204.136V190.129C308.337 187.996 309.677 186.264 311.328 186.264C312.979 186.264 314.319 187.996 314.319 190.129V204.136C314.343 206.27 313.003 208.001 311.328 208.001Z" fill="url(#paint25_linear_2_2775)"/>
<path d="M320.35 208.001C318.698 208.001 317.358 206.27 317.358 204.136V194.242C317.358 192.108 318.698 190.377 320.35 190.377C322.001 190.377 323.341 192.108 323.341 194.242V204.136C323.341 206.27 322.001 208.001 320.35 208.001Z" fill="url(#paint26_linear_2_2775)"/>
<path d="M329.348 208.001C327.697 208.001 326.356 206.27 326.356 204.136V197.488C326.356 195.355 327.697 193.623 329.348 193.623C330.999 193.623 332.339 195.355 332.339 197.488V204.136C332.339 206.27 330.999 208.001 329.348 208.001Z" fill="url(#paint27_linear_2_2775)"/>
<path d="M347.343 208.001C345.692 208.001 344.352 206.27 344.352 204.136V197.488C344.352 195.355 345.692 193.623 347.343 193.623C348.994 193.623 350.334 195.355 350.334 197.488V204.136C350.334 206.27 348.994 208.001 347.343 208.001Z" fill="url(#paint28_linear_2_2775)"/>
<path d="M338.345 208.001C336.694 208.001 335.354 206.27 335.354 204.136V194.242C335.354 192.108 336.694 190.377 338.345 190.377C339.996 190.377 341.336 192.108 341.336 194.242V204.136C341.336 206.27 339.996 208.001 338.345 208.001Z" fill="url(#paint29_linear_2_2775)"/>
</g>
<rect x="0.333984" y="42.0664" width="61.6957" height="476.739" rx="12" fill="#F4F4F4"/>
<rect x="-0.75" y="0.75" width="28.3526" height="27.8324" rx="13.9162" transform="matrix(-1 0 0 1 44.5781 468.772)" stroke="#E9E9E9" stroke-width="1.5"/>
<path opacity="0.4" d="M28.9528 480.228V479.619C28.9528 478.289 30.05 477.211 31.4033 477.211H34.645C35.9975 477.211 37.0947 478.289 37.0947 479.619V486.891C37.0947 488.22 35.9975 489.298 34.645 489.298H31.3966C30.0474 489.298 28.9528 488.224 28.9528 486.898V486.282" stroke="url(#paint30_linear_2_2775)" stroke-width="1.5" stroke-linecap="round" stroke-linejoin="round"/>
<path d="M24.4355 483.254H32.4424" stroke="url(#paint31_linear_2_2775)" stroke-width="1.5" stroke-linecap="round" stroke-linejoin="round"/>
<path d="M26.3828 481.35L24.4358 483.254L26.3828 485.16" stroke="url(#paint32_linear_2_2775)" stroke-width="1.5" stroke-linecap="round" stroke-linejoin="round"/>
<rect x="-0.75" y="0.75" width="28.3526" height="28.6481" rx="14.1763" transform="matrix(-1 0 0 1 45.0039 258.814)" stroke="#E9E9E9" stroke-width="1.5"/>
<path fill-rule="evenodd" clip-rule="evenodd" d="M29.7122 266.736H34.2098C35.6018 266.736 36.8018 267.875 36.8018 269.281V276.596C36.8018 278.081 35.6802 279.266 34.2098 279.266H28.809C27.4164 279.266 26.2881 278.003 26.2881 276.596V270.338L29.7122 266.736Z" stroke="url(#paint33_linear_2_2775)" stroke-width="1.5" stroke-linecap="round" stroke-linejoin="round"/>
<path d="M29.8896 266.727V268.713C29.8896 269.683 29.1129 270.469 28.1536 270.471C27.2633 270.474 26.3526 270.474 26.2911 270.47" stroke="url(#paint34_linear_2_2775)" stroke-width="1.5" stroke-linecap="round" stroke-linejoin="round"/>
<path opacity="0.4" d="M30.0184 275.472H33.667" stroke="url(#paint35_linear_2_2775)" stroke-width="1.5" stroke-linecap="round" stroke-linejoin="round"/>
<path opacity="0.4" d="M31.3982 272.091H33.667" stroke="url(#paint36_linear_2_2775)" stroke-width="1.5" stroke-linecap="round" stroke-linejoin="round"/>
<rect x="-0.75" y="0.75" width="28.3526" height="28.6481" rx="14.1763" transform="matrix(-1 0 0 1 45.0039 221.128)" stroke="#E9E9E9" stroke-width="1.5"/>
<path fill-rule="evenodd" clip-rule="evenodd" d="M27.3554 240.088C29.1801 241.931 31.882 242.329 34.0931 241.296C34.4195 241.164 34.6871 241.056 34.9415 241.056C35.6501 241.061 36.5322 241.755 36.9906 241.292C37.449 240.829 36.7614 239.938 36.7614 239.218C36.7614 238.961 36.8634 238.695 36.9948 238.365C38.0178 236.132 37.623 233.403 35.7983 231.561C33.469 229.207 29.6847 229.207 27.3554 231.56C25.0219 233.917 25.0261 237.735 27.3554 240.088Z" stroke="url(#paint37_linear_2_2775)" stroke-width="1.5" stroke-linecap="round" stroke-linejoin="round"/>
<path opacity="0.4" d="M29.2256 236.074H29.2189" stroke="url(#paint38_linear_2_2775)" stroke-width="1.5" stroke-linecap="round" stroke-linejoin="round"/>
<path opacity="0.4" d="M31.6191 236.074H31.6124" stroke="url(#paint39_linear_2_2775)" stroke-width="1.5" stroke-linecap="round" stroke-linejoin="round"/>
<path opacity="0.4" d="M34.0127 236.074H34.006" stroke="url(#paint40_linear_2_2775)" stroke-width="1.5" stroke-linecap="round" stroke-linejoin="round"/>
<rect x="-0.75" y="0.75" width="28.3526" height="28.6481" rx="14.1763" transform="matrix(-1 0 0 1 45.0039 183.444)" stroke="#E9E9E9" stroke-width="1.5"/>
<path opacity="0.4" d="M34.168 197.502V201.38" stroke="url(#paint41_linear_2_2775)" stroke-width="1.5" stroke-linecap="round" stroke-linejoin="round"/>
<path opacity="0.4" d="M31.5557 195.647V201.38" stroke="url(#paint42_linear_2_2775)" stroke-width="1.5" stroke-linecap="round" stroke-linejoin="round"/>
<path opacity="0.4" d="M28.9863 199.551V201.379" stroke="url(#paint43_linear_2_2775)" stroke-width="1.5" stroke-linecap="round" stroke-linejoin="round"/>
<path fill-rule="evenodd" clip-rule="evenodd" d="M28.9547 192.866H34.2002C36.0287 192.866 37.1748 194.173 37.1748 196.023V201.014C37.1748 202.864 36.034 204.171 34.2002 204.171H28.9547C27.1209 204.171 25.9801 202.864 25.9801 201.014V196.023C25.9801 194.173 27.1209 192.866 28.9547 192.866Z" stroke="url(#paint44_linear_2_2775)" stroke-width="1.5" stroke-linecap="round" stroke-linejoin="round"/>
<rect x="-0.75" y="0.75" width="28.3526" height="28.6481" rx="14.1763" transform="matrix(-1 0 0 1 45.0039 145.758)" stroke="#E9E9E9" stroke-width="1.5"/>
<path opacity="0.4" d="M28.7422 165.425V157.511" stroke="url(#paint45_linear_2_2775)" stroke-width="1.5" stroke-linecap="round" stroke-linejoin="round"/>
<path d="M26.3957 163.044L28.7423 165.425L31.0889 163.044" stroke="url(#paint46_linear_2_2775)" stroke-width="1.5" stroke-linecap="round" stroke-linejoin="round"/>
<path opacity="0.4" d="M34.4551 155.934V163.848" stroke="url(#paint47_linear_2_2775)" stroke-width="1.5" stroke-linecap="round" stroke-linejoin="round"/>
<path d="M36.8018 158.314L34.4552 155.934L32.1086 158.314" stroke="url(#paint48_linear_2_2775)" stroke-width="1.5" stroke-linecap="round" stroke-linejoin="round"/>
<rect x="-0.75" y="0.75" width="28.3526" height="28.6481" rx="14.1763" transform="matrix(-1 0 0 1 45.0039 108.073)" stroke="#E9E9E9" stroke-width="1.5"/>
<path d="M25.9806 124.145H28.3266C29.188 124.144 29.8862 123.44 29.8867 122.57C29.8867 121.7 29.188 120.995 28.3266 120.995H25.9806" stroke="url(#paint49_linear_2_2775)" stroke-width="1.5" stroke-linecap="round" stroke-linejoin="round"/>
<path d="M28.0604 122.534H28.2412" stroke="url(#paint50_linear_2_2775)" stroke-width="1.5" stroke-linecap="round" stroke-linejoin="round"/>
<path fill-rule="evenodd" clip-rule="evenodd" d="M34.0303 117.475H29.0214C27.3419 117.475 25.9804 118.85 25.9804 120.546V124.747C25.9804 126.443 27.3419 127.818 29.0214 127.818H34.0303C35.7097 127.818 37.0713 126.443 37.0713 124.747V120.546C37.0713 118.85 35.7097 117.475 34.0303 117.475Z" stroke="url(#paint51_linear_2_2775)" stroke-width="1.5" stroke-linecap="round" stroke-linejoin="round"/>
<path opacity="0.4" d="M34.4434 120.131H31.3147" stroke="url(#paint52_linear_2_2775)" stroke-width="1.5" stroke-linecap="round" stroke-linejoin="round"/>
<rect width="29.8526" height="30.1481" rx="14.9263" transform="matrix(-1 0 0 1 46.5039 70.387)" fill="#FFB422"/>
<path fill-rule="evenodd" clip-rule="evenodd" d="M36.8018 82.0481C36.8018 80.5092 36.7854 79.9963 34.7701 79.9963C32.7548 79.9963 32.7385 80.5092 32.7385 82.0481C32.7385 83.587 32.7321 84.0998 34.7701 84.0998C36.8082 84.0998 36.8018 83.587 36.8018 82.0481Z" stroke="#515151" stroke-width="1.5" stroke-linecap="round" stroke-linejoin="round"/>
<path opacity="0.4" fill-rule="evenodd" clip-rule="evenodd" d="M30.417 82.0481C30.417 80.5092 30.4007 79.9963 28.3854 79.9963C26.37 79.9963 26.3537 80.5092 26.3537 82.0481C26.3537 83.587 26.3473 84.0998 28.3854 84.0998C30.4234 84.0998 30.417 83.587 30.417 82.0481Z" stroke="#515151" stroke-width="1.5" stroke-linecap="round" stroke-linejoin="round"/>
<path fill-rule="evenodd" clip-rule="evenodd" d="M36.8018 88.4962C36.8018 86.9573 36.7854 86.4445 34.7701 86.4445C32.7548 86.4445 32.7385 86.9573 32.7385 88.4962C32.7385 90.0351 32.7321 90.548 34.7701 90.548C36.8082 90.548 36.8018 90.0351 36.8018 88.4962Z" stroke="#515151" stroke-width="1.5" stroke-linecap="round" stroke-linejoin="round"/>
<path fill-rule="evenodd" clip-rule="evenodd" d="M30.417 88.4962C30.417 86.9573 30.4007 86.4445 28.3854 86.4445C26.37 86.4445 26.3537 86.9573 26.3537 88.4962C26.3537 90.0351 26.3473 90.548 28.3854 90.548C30.4234 90.548 30.417 90.0351 30.417 88.4962Z" stroke="#515151" stroke-width="1.5" stroke-linecap="round" stroke-linejoin="round"/>
<circle cx="10.334" cy="10.0015" r="10" fill="#FF6868"/>
<circle cx="40.334" cy="10.0015" r="10" fill="#FFB422"/>
<circle cx="70.334" cy="10.0015" r="10" fill="#8ADB89"/>
<circle cx="677.334" cy="11.0015" r="11" fill="#DCDCDC"/>
<rect x="113.334" y="0.00146484" width="370" height="19" rx="9.5" fill="#F4F4F4"/>
<defs>
<linearGradient id="paint0_linear_2_2775" x1="341.387" y1="405.001" x2="341.387" y2="423.107" gradientUnits="userSpaceOnUse">
<stop stop-color="#00A3E3"/>
<stop offset="1" stop-color="#9FCD10"/>
</linearGradient>
<linearGradient id="paint1_linear_2_2775" x1="245.088" y1="360.396" x2="245.088" y2="469.001" gradientUnits="userSpaceOnUse">
<stop stop-color="#00A3E3"/>
<stop offset="1" stop-color="#9FCD10"/>
</linearGradient>
<linearGradient id="paint2_linear_2_2775" x1="230.325" y1="109.066" x2="230.325" y2="121.002" gradientUnits="userSpaceOnUse">
<stop stop-color="#00A3E3"/>
<stop offset="1" stop-color="#9FCD10"/>
</linearGradient>
<linearGradient id="paint3_linear_2_2775" x1="239.335" y1="104.985" x2="239.335" y2="121.001" gradientUnits="userSpaceOnUse">
<stop stop-color="#00A3E3"/>
<stop offset="1" stop-color="#9FCD10"/>
</linearGradient>
<linearGradient id="paint4_linear_2_2775" x1="248.345" y1="96.4506" x2="248.345" y2="121.002" gradientUnits="userSpaceOnUse">
<stop stop-color="#00A3E3"/>
<stop offset="1" stop-color="#9FCD10"/>
</linearGradient>
<linearGradient id="paint5_linear_2_2775" x1="257.342" y1="88.2257" x2="257.342" y2="121.002" gradientUnits="userSpaceOnUse">
<stop stop-color="#00A3E3"/>
<stop offset="1" stop-color="#9FCD10"/>
</linearGradient>
<linearGradient id="paint6_linear_2_2775" x1="266.34" y1="82.7527" x2="266.34" y2="121.001" gradientUnits="userSpaceOnUse">
<stop stop-color="#00A3E3"/>
<stop offset="1" stop-color="#9FCD10"/>
</linearGradient>
<linearGradient id="paint7_linear_2_2775" x1="275.338" y1="77.0015" x2="275.338" y2="121.001" gradientUnits="userSpaceOnUse">
<stop stop-color="#00A3E3"/>
<stop offset="1" stop-color="#9FCD10"/>
</linearGradient>
<linearGradient id="paint8_linear_2_2775" x1="284.335" y1="88.2257" x2="284.335" y2="121.002" gradientUnits="userSpaceOnUse">
<stop stop-color="#00A3E3"/>
<stop offset="1" stop-color="#9FCD10"/>
</linearGradient>
<linearGradient id="paint9_linear_2_2775" x1="293.333" y1="92.7091" x2="293.333" y2="121.001" gradientUnits="userSpaceOnUse">
<stop stop-color="#00A3E3"/>
<stop offset="1" stop-color="#9FCD10"/>
</linearGradient>
<linearGradient id="paint10_linear_2_2775" x1="302.33" y1="94.5026" x2="302.33" y2="121.002" gradientUnits="userSpaceOnUse">
<stop stop-color="#00A3E3"/>
<stop offset="1" stop-color="#9FCD10"/>
</linearGradient>
<linearGradient id="paint11_linear_2_2775" x1="311.328" y1="99.2643" x2="311.328" y2="121.001" gradientUnits="userSpaceOnUse">
<stop stop-color="#00A3E3"/>
<stop offset="1" stop-color="#9FCD10"/>
</linearGradient>
<linearGradient id="paint12_linear_2_2775" x1="320.35" y1="103.377" x2="320.35" y2="121.001" gradientUnits="userSpaceOnUse">
<stop stop-color="#00A3E3"/>
<stop offset="1" stop-color="#9FCD10"/>
</linearGradient>
<linearGradient id="paint13_linear_2_2775" x1="329.348" y1="106.623" x2="329.348" y2="121.001" gradientUnits="userSpaceOnUse">
<stop stop-color="#00A3E3"/>
<stop offset="1" stop-color="#9FCD10"/>
</linearGradient>
<linearGradient id="paint14_linear_2_2775" x1="347.343" y1="106.623" x2="347.343" y2="121.001" gradientUnits="userSpaceOnUse">
<stop stop-color="#00A3E3"/>
<stop offset="1" stop-color="#9FCD10"/>
</linearGradient>
<linearGradient id="paint15_linear_2_2775" x1="338.345" y1="103.377" x2="338.345" y2="121.001" gradientUnits="userSpaceOnUse">
<stop stop-color="#00A3E3"/>
<stop offset="1" stop-color="#9FCD10"/>
</linearGradient>
<linearGradient id="paint16_linear_2_2775" x1="230.325" y1="196.066" x2="230.325" y2="208.001" gradientUnits="userSpaceOnUse">
<stop stop-color="#00A3E3"/>
<stop offset="1" stop-color="#9FCD10"/>
</linearGradient>
<linearGradient id="paint17_linear_2_2775" x1="239.335" y1="191.984" x2="239.335" y2="208.001" gradientUnits="userSpaceOnUse">
<stop stop-color="#00A3E3"/>
<stop offset="1" stop-color="#9FCD10"/>
</linearGradient>
<linearGradient id="paint18_linear_2_2775" x1="248.345" y1="183.45" x2="248.345" y2="208.001" gradientUnits="userSpaceOnUse">
<stop stop-color="#00A3E3"/>
<stop offset="1" stop-color="#9FCD10"/>
</linearGradient>
<linearGradient id="paint19_linear_2_2775" x1="257.342" y1="175.226" x2="257.342" y2="208.001" gradientUnits="userSpaceOnUse">
<stop stop-color="#00A3E3"/>
<stop offset="1" stop-color="#9FCD10"/>
</linearGradient>
<linearGradient id="paint20_linear_2_2775" x1="266.34" y1="169.753" x2="266.34" y2="208.001" gradientUnits="userSpaceOnUse">
<stop stop-color="#00A3E3"/>
<stop offset="1" stop-color="#9FCD10"/>
</linearGradient>
<linearGradient id="paint21_linear_2_2775" x1="275.338" y1="164.001" x2="275.338" y2="208.001" gradientUnits="userSpaceOnUse">
<stop stop-color="#00A3E3"/>
<stop offset="1" stop-color="#9FCD10"/>
</linearGradient>
<linearGradient id="paint22_linear_2_2775" x1="284.335" y1="175.226" x2="284.335" y2="208.001" gradientUnits="userSpaceOnUse">
<stop stop-color="#00A3E3"/>
<stop offset="1" stop-color="#9FCD10"/>
</linearGradient>
<linearGradient id="paint23_linear_2_2775" x1="293.333" y1="179.709" x2="293.333" y2="208.001" gradientUnits="userSpaceOnUse">
<stop stop-color="#00A3E3"/>
<stop offset="1" stop-color="#9FCD10"/>
</linearGradient>
<linearGradient id="paint24_linear_2_2775" x1="302.33" y1="181.502" x2="302.33" y2="208.001" gradientUnits="userSpaceOnUse">
<stop stop-color="#00A3E3"/>
<stop offset="1" stop-color="#9FCD10"/>
</linearGradient>
<linearGradient id="paint25_linear_2_2775" x1="311.328" y1="186.264" x2="311.328" y2="208.001" gradientUnits="userSpaceOnUse">
<stop stop-color="#00A3E3"/>
<stop offset="1" stop-color="#9FCD10"/>
</linearGradient>
<linearGradient id="paint26_linear_2_2775" x1="320.35" y1="190.377" x2="320.35" y2="208.001" gradientUnits="userSpaceOnUse">
<stop stop-color="#00A3E3"/>
<stop offset="1" stop-color="#9FCD10"/>
</linearGradient>
<linearGradient id="paint27_linear_2_2775" x1="329.348" y1="193.623" x2="329.348" y2="208.001" gradientUnits="userSpaceOnUse">
<stop stop-color="#00A3E3"/>
<stop offset="1" stop-color="#9FCD10"/>
</linearGradient>
<linearGradient id="paint28_linear_2_2775" x1="347.343" y1="193.623" x2="347.343" y2="208.001" gradientUnits="userSpaceOnUse">
<stop stop-color="#00A3E3"/>
<stop offset="1" stop-color="#9FCD10"/>
</linearGradient>
<linearGradient id="paint29_linear_2_2775" x1="338.345" y1="190.377" x2="338.345" y2="208.001" gradientUnits="userSpaceOnUse">
<stop stop-color="#00A3E3"/>
<stop offset="1" stop-color="#9FCD10"/>
</linearGradient>
<linearGradient id="paint30_linear_2_2775" x1="33.0238" y1="477.211" x2="33.0238" y2="489.298" gradientUnits="userSpaceOnUse">
<stop stop-color="#00A3E3"/>
<stop offset="1" stop-color="#9FCD10"/>
</linearGradient>
<linearGradient id="paint31_linear_2_2775" x1="28.4389" y1="483.254" x2="28.4389" y2="484.254" gradientUnits="userSpaceOnUse">
<stop stop-color="#00A3E3"/>
<stop offset="1" stop-color="#9FCD10"/>
</linearGradient>
<linearGradient id="paint32_linear_2_2775" x1="25.4093" y1="481.35" x2="25.4093" y2="485.16" gradientUnits="userSpaceOnUse">
<stop stop-color="#00A3E3"/>
<stop offset="1" stop-color="#9FCD10"/>
</linearGradient>
<linearGradient id="paint33_linear_2_2775" x1="31.5449" y1="266.736" x2="31.5449" y2="279.266" gradientUnits="userSpaceOnUse">
<stop stop-color="#00A3E3"/>
<stop offset="1" stop-color="#9FCD10"/>
</linearGradient>
<linearGradient id="paint34_linear_2_2775" x1="28.0904" y1="266.727" x2="28.0904" y2="270.473" gradientUnits="userSpaceOnUse">
<stop stop-color="#00A3E3"/>
<stop offset="1" stop-color="#9FCD10"/>
</linearGradient>
<linearGradient id="paint35_linear_2_2775" x1="31.8427" y1="275.472" x2="31.8427" y2="276.472" gradientUnits="userSpaceOnUse">
<stop stop-color="#00A3E3"/>
<stop offset="1" stop-color="#9FCD10"/>
</linearGradient>
<linearGradient id="paint36_linear_2_2775" x1="32.5326" y1="272.091" x2="32.5326" y2="273.091" gradientUnits="userSpaceOnUse">
<stop stop-color="#00A3E3"/>
<stop offset="1" stop-color="#9FCD10"/>
</linearGradient>
<linearGradient id="paint37_linear_2_2775" x1="31.5773" y1="229.796" x2="31.5773" y2="241.855" gradientUnits="userSpaceOnUse">
<stop stop-color="#00A3E3"/>
<stop offset="1" stop-color="#9FCD10"/>
</linearGradient>
<linearGradient id="paint38_linear_2_2775" x1="29.2222" y1="236.074" x2="29.2222" y2="237.074" gradientUnits="userSpaceOnUse">
<stop stop-color="#00A3E3"/>
<stop offset="1" stop-color="#9FCD10"/>
</linearGradient>
<linearGradient id="paint39_linear_2_2775" x1="31.6158" y1="236.074" x2="31.6158" y2="237.074" gradientUnits="userSpaceOnUse">
<stop stop-color="#00A3E3"/>
<stop offset="1" stop-color="#9FCD10"/>
</linearGradient>
<linearGradient id="paint40_linear_2_2775" x1="34.0093" y1="236.074" x2="34.0093" y2="237.074" gradientUnits="userSpaceOnUse">
<stop stop-color="#00A3E3"/>
<stop offset="1" stop-color="#9FCD10"/>
</linearGradient>
<linearGradient id="paint41_linear_2_2775" x1="33.668" y1="197.502" x2="33.668" y2="201.38" gradientUnits="userSpaceOnUse">
<stop stop-color="#00A3E3"/>
<stop offset="1" stop-color="#9FCD10"/>
</linearGradient>
<linearGradient id="paint42_linear_2_2775" x1="31.0557" y1="195.647" x2="31.0557" y2="201.38" gradientUnits="userSpaceOnUse">
<stop stop-color="#00A3E3"/>
<stop offset="1" stop-color="#9FCD10"/>
</linearGradient>
<linearGradient id="paint43_linear_2_2775" x1="28.4863" y1="199.551" x2="28.4863" y2="201.379" gradientUnits="userSpaceOnUse">
<stop stop-color="#00A3E3"/>
<stop offset="1" stop-color="#9FCD10"/>
</linearGradient>
<linearGradient id="paint44_linear_2_2775" x1="31.5774" y1="192.866" x2="31.5774" y2="204.171" gradientUnits="userSpaceOnUse">
<stop stop-color="#00A3E3"/>
<stop offset="1" stop-color="#9FCD10"/>
</linearGradient>
<linearGradient id="paint45_linear_2_2775" x1="28.2422" y1="157.511" x2="28.2422" y2="165.425" gradientUnits="userSpaceOnUse">
<stop stop-color="#00A3E3"/>
<stop offset="1" stop-color="#9FCD10"/>
</linearGradient>
<linearGradient id="paint46_linear_2_2775" x1="28.7423" y1="163.044" x2="28.7423" y2="165.425" gradientUnits="userSpaceOnUse">
<stop stop-color="#00A3E3"/>
<stop offset="1" stop-color="#9FCD10"/>
</linearGradient>
<linearGradient id="paint47_linear_2_2775" x1="33.9551" y1="155.934" x2="33.9551" y2="163.848" gradientUnits="userSpaceOnUse">
<stop stop-color="#00A3E3"/>
<stop offset="1" stop-color="#9FCD10"/>
</linearGradient>
<linearGradient id="paint48_linear_2_2775" x1="34.4552" y1="155.934" x2="34.4552" y2="158.314" gradientUnits="userSpaceOnUse">
<stop stop-color="#00A3E3"/>
<stop offset="1" stop-color="#9FCD10"/>
</linearGradient>
<linearGradient id="paint49_linear_2_2775" x1="27.9337" y1="120.995" x2="27.9337" y2="124.145" gradientUnits="userSpaceOnUse">
<stop stop-color="#00A3E3"/>
<stop offset="1" stop-color="#9FCD10"/>
</linearGradient>
<linearGradient id="paint50_linear_2_2775" x1="28.1508" y1="122.534" x2="28.1508" y2="123.534" gradientUnits="userSpaceOnUse">
<stop stop-color="#00A3E3"/>
<stop offset="1" stop-color="#9FCD10"/>
</linearGradient>
<linearGradient id="paint51_linear_2_2775" x1="31.5258" y1="117.475" x2="31.5258" y2="127.818" gradientUnits="userSpaceOnUse">
<stop stop-color="#00A3E3"/>
<stop offset="1" stop-color="#9FCD10"/>
</linearGradient>
<linearGradient id="paint52_linear_2_2775" x1="32.879" y1="120.131" x2="32.879" y2="121.131" gradientUnits="userSpaceOnUse">
<stop stop-color="#00A3E3"/>
<stop offset="1" stop-color="#9FCD10"/>
</linearGradient>
<clipPath id="clip0_2_2775">
<rect width="145" height="156" fill="white" transform="translate(136.334 313.001)"/>
</clipPath>
<clipPath id="clip1_2_2775">
<rect width="42" height="42" fill="white" transform="translate(641.334 287.001)"/>
</clipPath>
<clipPath id="clip2_2_2775">
<rect width="12.8691" height="16.1134" rx="6.43455" transform="matrix(1 0 0 -1 345.493 97.2537)" fill="white"/>
</clipPath>
<clipPath id="clip3_2_2775">
<rect width="12.8691" height="16.1134" rx="6.43455" transform="matrix(1 0 0 -1 654.169 95.6224)" fill="white"/>
</clipPath>
<clipPath id="clip4_2_2775">
<rect width="123" height="44" fill="white" transform="translate(227.334 77.0015)"/>
</clipPath>
<clipPath id="clip5_2_2775">
<rect width="123" height="44" fill="white" transform="translate(227.334 164.001)"/>
</clipPath>
</defs>
</svg>
