<svg width="80" height="40" viewBox="0 0 80 40" fill="none" xmlns="http://www.w3.org/2000/svg">
<path d="M9.85274 6.94629H10.5641C13.0339 6.99998 15.4635 7.99327 17.2084 9.75167C16.5641 10.4094 15.9064 11.0403 15.2756 11.698C14.2957 10.8121 13.1145 10.1275 11.8259 9.88589C9.91985 9.48321 7.86616 9.84563 6.26885 10.9329C4.52388 12.0738 3.34267 14.0067 3.08764 16.0738C2.80576 18.1141 3.38294 20.2618 4.7118 21.8457C5.98697 23.3893 7.93328 24.3557 9.9467 24.4228C11.8259 24.5302 13.7856 23.953 15.1548 22.6376C16.2286 21.7114 16.7252 20.302 16.8863 18.9329C14.6581 18.9329 12.4299 18.9463 10.2017 18.9329V16.1678H19.5843C20.0675 19.1342 19.3695 22.4765 17.1145 24.5973C15.6111 26.1007 13.5306 26.9866 11.4098 27.1611C9.35609 27.3624 7.23529 26.9732 5.40979 25.9799C3.22187 24.8121 1.4769 22.8389 0.61784 20.5168C-0.187529 18.3826 -0.200952 15.9664 0.550726 13.8188C1.23529 11.8591 2.55073 10.1275 4.242 8.91945C5.86616 7.72481 7.83932 7.06709 9.85274 6.94629Z" fill="#0F9918"/>
<path d="M63.6787 7.64423H66.5512V26.812C65.5982 26.812 64.6317 26.8254 63.6787 26.7986C63.6921 20.4227 63.6787 14.0335 63.6787 7.64423Z" fill="#0F9918"/>
<path d="M25.9739 14.2886C27.7458 13.9531 29.6652 14.3289 31.1283 15.3893C32.4572 16.3289 33.3834 17.8054 33.6652 19.4161C34.0276 21.2819 33.5713 23.3222 32.3632 24.7987C31.0612 26.4497 28.927 27.3356 26.8464 27.2014C24.9404 27.094 23.088 26.141 21.9605 24.5839C20.6853 22.8658 20.3766 20.5034 21.0746 18.49C21.7726 16.3289 23.7458 14.6779 25.9739 14.2886ZM26.3766 16.839C25.6518 17.0269 24.9807 17.443 24.4974 18.0336C23.1954 19.5906 23.276 22.1276 24.7122 23.5772C25.531 24.4094 26.7659 24.7987 27.9068 24.5705C28.9672 24.3826 29.8934 23.6712 30.4035 22.7316C31.2894 21.1343 31.0344 18.9329 29.6787 17.6846C28.8062 16.8792 27.531 16.5437 26.3766 16.839Z" fill="#0F9918"/>
<path d="M40.2021 14.2886C42.229 13.8993 44.4437 14.4631 45.9605 15.8859C48.4303 18.1007 48.6988 22.2483 46.5914 24.7986C45.3162 26.4094 43.2491 27.2953 41.2088 27.2013C39.2625 27.1476 37.3431 26.1812 36.1887 24.5839C34.8867 22.8255 34.6048 20.4094 35.3431 18.3557C36.0813 16.2617 38.0142 14.6644 40.2021 14.2886ZM40.6048 16.8389C39.88 17.0268 39.2088 17.4429 38.7256 18.0201C37.437 19.5503 37.4907 22.047 38.8733 23.51C39.6921 24.3825 40.9672 24.8121 42.1484 24.5704C43.1954 24.3691 44.135 23.6711 44.6451 22.7315C45.5176 21.1208 45.2625 18.9194 43.8934 17.6711C43.0209 16.8658 41.7458 16.5436 40.6048 16.8389Z" fill="#0F9918"/>
<path d="M52.2692 15.0669C53.8128 14.1005 55.8665 13.832 57.5309 14.6643C58.0544 14.8924 58.484 15.2817 58.9001 15.671C58.9135 15.3085 58.9001 14.9327 58.9135 14.5569C59.8128 14.5703 60.7122 14.5569 61.6249 14.5703V26.4092C61.6115 28.1944 61.1551 30.0871 59.8665 31.3891C58.4571 32.8253 56.296 33.2683 54.3497 32.9729C52.2692 32.6642 50.4571 31.1475 49.6517 29.228C50.4571 28.8387 51.3027 28.53 52.135 28.1676C52.6048 29.2683 53.5578 30.2079 54.7524 30.4226C55.947 30.6374 57.3296 30.3421 58.1081 29.3488C58.9403 28.3287 58.9403 26.9327 58.9001 25.6844C58.2826 26.2884 57.5712 26.8253 56.7122 27.0267C54.8464 27.5501 52.7927 26.9058 51.3564 25.6441C49.9068 24.3824 49.0477 22.4361 49.1283 20.5032C49.1685 18.3153 50.4034 16.2079 52.2692 15.0669ZM55.0477 16.7851C54.2289 16.9193 53.4638 17.3757 52.9403 18.0065C51.6786 19.5099 51.6786 21.9126 52.9538 23.3891C53.6786 24.2616 54.8464 24.7448 55.9739 24.624C57.0343 24.5166 58.0142 23.8454 58.5377 22.9193C59.4236 21.3488 59.2759 19.2146 58.0813 17.8455C57.343 16.9998 56.1618 16.5837 55.0477 16.7851Z" fill="#0F9918"/>
<path d="M70 15.7516C71.6108 14.2482 74.094 13.7382 76.1611 14.5301C78.1209 15.2684 79.3692 17.1341 80 19.0536C77.0873 20.2616 74.188 21.4563 71.2752 22.6643C71.6779 23.4294 72.2953 24.1274 73.1275 24.4093C74.2953 24.8254 75.6913 24.6778 76.6712 23.8992C77.0604 23.6039 77.3692 23.2147 77.6645 22.8388C78.4027 23.3355 79.141 23.8187 79.8792 24.3153C78.8323 25.8858 77.0739 26.9865 75.1812 27.161C73.0873 27.416 70.8591 26.6106 69.5034 24.9731C67.2752 22.3959 67.49 18.0737 70 15.7516ZM71.4363 18.2348C70.9799 18.8925 70.792 19.6979 70.8054 20.4898C72.7517 19.6845 74.698 18.8791 76.6443 18.0603C76.3222 17.3086 75.5437 16.8523 74.7517 16.7314C73.4765 16.5033 72.1477 17.1878 71.4363 18.2348Z" fill="#0F9918"/>
</svg>
