<svg width="59" height="64" viewBox="0 0 59 64" fill="none" xmlns="http://www.w3.org/2000/svg">
<path d="M58.4441 51.6848C58.4441 58.4862 46.8023 63.9999 32.4413 63.9999C18.0803 63.9999 6.43848 58.4862 6.43848 51.6848C6.43848 44.8833 18.0803 39.3697 32.4413 39.3697C46.8023 39.3697 58.4441 44.8833 58.4441 51.6848Z" fill="#22137B"/>
<path d="M58.4441 50.9604C58.4441 57.7618 46.8023 63.2755 32.4413 63.2755C18.0803 63.2755 6.43848 57.7618 6.43848 50.9604C6.43848 44.1589 18.0803 38.6453 32.4413 38.6453C46.8023 38.6453 58.4441 44.1589 58.4441 50.9604Z" fill="#22137B"/>
<path d="M58.4441 50.236C58.4441 57.0374 46.8023 62.5511 32.4413 62.5511C18.0803 62.5511 6.43848 57.0374 6.43848 50.236C6.43848 43.4345 18.0803 37.9208 32.4413 37.9208C46.8023 37.9208 58.4441 43.4345 58.4441 50.236Z" fill="#22137B"/>
<path d="M58.4441 49.5115C58.4441 56.313 46.8023 61.8267 32.4413 61.8267C18.0803 61.8267 6.43848 56.313 6.43848 49.5115C6.43848 42.7101 18.0803 37.1964 32.4413 37.1964C46.8023 37.1964 58.4441 42.7101 58.4441 49.5115Z" fill="#22137B"/>
<path d="M58.4441 48.7871C58.4441 55.5886 46.8023 61.1022 32.4413 61.1022C18.0803 61.1022 6.43848 55.5886 6.43848 48.7871C6.43848 41.9857 18.0803 36.472 32.4413 36.472C46.8023 36.472 58.4441 41.9857 58.4441 48.7871Z" fill="#22137B"/>
<path d="M58.4441 48.0627C58.4441 54.8642 46.8023 60.3778 32.4413 60.3778C18.0803 60.3778 6.43848 54.8642 6.43848 48.0627C6.43848 41.2612 18.0803 35.7476 32.4413 35.7476C46.8023 35.7476 58.4441 41.2612 58.4441 48.0627Z" fill="#22137B"/>
<path d="M58.4441 47.3383C58.4441 54.1397 46.8023 59.6534 32.4413 59.6534C18.0803 59.6534 6.43848 54.1397 6.43848 47.3383C6.43848 40.5368 18.0803 35.0232 32.4413 35.0232C46.8023 35.0232 58.4441 40.5368 58.4441 47.3383Z" fill="#22137B"/>
<path d="M58.4441 46.6139C58.4441 53.4153 46.8023 58.929 32.4413 58.929C18.0803 58.929 6.43848 53.4153 6.43848 46.6139C6.43848 39.8124 18.0803 34.2987 32.4413 34.2987C46.8023 34.2987 58.4441 39.8124 58.4441 46.6139Z" fill="#22137B"/>
<path d="M58.4441 45.8894C58.4441 52.6909 46.8023 58.2046 32.4413 58.2046C18.0803 58.2046 6.43848 52.6909 6.43848 45.8894C6.43848 39.088 18.0803 33.5743 32.4413 33.5743C46.8023 33.5743 58.4441 39.088 58.4441 45.8894Z" fill="#22137B"/>
<path d="M58.4441 45.165C58.4441 51.9665 46.8023 57.4801 32.4413 57.4801C18.0803 57.4801 6.43848 51.9665 6.43848 45.165C6.43848 38.3636 18.0803 32.8499 32.4413 32.8499C46.8023 32.8499 58.4441 38.3636 58.4441 45.165Z" fill="#22137B"/>
<path d="M58.4441 44.4406C58.4441 51.2421 46.8023 56.7557 32.4413 56.7557C18.0803 56.7557 6.43848 51.2421 6.43848 44.4406C6.43848 37.6392 18.0803 32.1255 32.4413 32.1255C46.8023 32.1255 58.4441 37.6392 58.4441 44.4406Z" fill="#22137B"/>
<path d="M58.4441 49.6848C58.4441 56.4862 46.8023 61.9999 32.4413 61.9999C18.0803 61.9999 6.43848 56.4862 6.43848 49.6848C6.43848 42.8833 18.0803 37.3697 32.4413 37.3697C46.8023 37.3697 58.4441 42.8833 58.4441 49.6848Z" fill="url(#paint0_linear_2_2754)"/>
<path d="M58.4441 48.9604C58.4441 55.7618 46.8023 61.2755 32.4413 61.2755C18.0803 61.2755 6.43848 55.7618 6.43848 48.9604C6.43848 42.1589 18.0803 36.6453 32.4413 36.6453C46.8023 36.6453 58.4441 42.1589 58.4441 48.9604Z" fill="url(#paint1_linear_2_2754)"/>
<path d="M58.4441 48.236C58.4441 55.0374 46.8023 60.5511 32.4413 60.5511C18.0803 60.5511 6.43848 55.0374 6.43848 48.236C6.43848 41.4345 18.0803 35.9208 32.4413 35.9208C46.8023 35.9208 58.4441 41.4345 58.4441 48.236Z" fill="url(#paint2_linear_2_2754)"/>
<path d="M58.4441 47.5115C58.4441 54.313 46.8023 59.8267 32.4413 59.8267C18.0803 59.8267 6.43848 54.313 6.43848 47.5115C6.43848 40.7101 18.0803 35.1964 32.4413 35.1964C46.8023 35.1964 58.4441 40.7101 58.4441 47.5115Z" fill="url(#paint3_linear_2_2754)"/>
<path d="M58.4441 46.7871C58.4441 53.5886 46.8023 59.1022 32.4413 59.1022C18.0803 59.1022 6.43848 53.5886 6.43848 46.7871C6.43848 39.9857 18.0803 34.472 32.4413 34.472C46.8023 34.472 58.4441 39.9857 58.4441 46.7871Z" fill="url(#paint4_linear_2_2754)"/>
<path d="M58.4441 46.0627C58.4441 52.8642 46.8023 58.3778 32.4413 58.3778C18.0803 58.3778 6.43848 52.8642 6.43848 46.0627C6.43848 39.2612 18.0803 33.7476 32.4413 33.7476C46.8023 33.7476 58.4441 39.2612 58.4441 46.0627Z" fill="url(#paint5_linear_2_2754)"/>
<path d="M58.4441 45.3383C58.4441 52.1397 46.8023 57.6534 32.4413 57.6534C18.0803 57.6534 6.43848 52.1397 6.43848 45.3383C6.43848 38.5368 18.0803 33.0232 32.4413 33.0232C46.8023 33.0232 58.4441 38.5368 58.4441 45.3383Z" fill="url(#paint6_linear_2_2754)"/>
<path d="M58.4441 44.6139C58.4441 51.4153 46.8023 56.929 32.4413 56.929C18.0803 56.929 6.43848 51.4153 6.43848 44.6139C6.43848 37.8124 18.0803 32.2987 32.4413 32.2987C46.8023 32.2987 58.4441 37.8124 58.4441 44.6139Z" fill="url(#paint7_linear_2_2754)"/>
<path d="M58.4441 43.8894C58.4441 50.6909 46.8023 56.2046 32.4413 56.2046C18.0803 56.2046 6.43848 50.6909 6.43848 43.8894C6.43848 37.088 18.0803 31.5743 32.4413 31.5743C46.8023 31.5743 58.4441 37.088 58.4441 43.8894Z" fill="url(#paint8_linear_2_2754)"/>
<path d="M58.4441 43.165C58.4441 49.9665 46.8023 55.4801 32.4413 55.4801C18.0803 55.4801 6.43848 49.9665 6.43848 43.165C6.43848 36.3636 18.0803 30.8499 32.4413 30.8499C46.8023 30.8499 58.4441 36.3636 58.4441 43.165Z" fill="url(#paint9_linear_2_2754)"/>
<path d="M58.4441 42.4406C58.4441 49.2421 46.8023 54.7557 32.4413 54.7557C18.0803 54.7557 6.43848 49.2421 6.43848 42.4406C6.43848 35.6392 18.0803 30.1255 32.4413 30.1255C46.8023 30.1255 58.4441 35.6392 58.4441 42.4406Z" fill="url(#paint10_linear_2_2754)"/>
<ellipse cx="32.4413" cy="41.8687" rx="26.0028" ry="11.7432" fill="white"/>
<path d="M38.3125 43.99C38.3125 44.6131 37.9147 45.1401 37.119 45.5709C36.3376 45.994 35.2791 46.2671 33.9435 46.3902V47.0479C33.9435 47.2556 33.8227 47.421 33.5812 47.5441C33.3538 47.6748 33.0483 47.7402 32.6647 47.7402C32.2953 47.7402 31.9898 47.6748 31.7483 47.5441C31.5067 47.421 31.386 47.2556 31.386 47.0479V46.4248C30.6045 46.3863 29.8444 46.2978 29.1055 46.1594C28.3809 46.0209 27.7415 45.844 27.1874 45.6286C26.9601 45.5517 26.7967 45.467 26.6972 45.3747C26.612 45.2747 26.5693 45.1516 26.5693 45.0055C26.5693 44.8132 26.6759 44.6439 26.889 44.4977C27.1164 44.3516 27.3721 44.2785 27.6563 44.2785C27.9262 44.2785 28.2601 44.34 28.658 44.4631C29.3115 44.6708 29.9296 44.8247 30.5122 44.9247C31.1089 45.017 31.727 45.0632 32.3663 45.0632C33.2188 45.0632 33.8724 44.9785 34.3271 44.8093C34.7818 44.6324 35.0091 44.3862 35.0091 44.0708C35.0091 43.8785 34.8741 43.7208 34.6042 43.5977C34.3484 43.4746 34.0287 43.3785 33.6451 43.3092C33.2615 43.24 32.7073 43.1515 31.9827 43.0438C30.9313 42.8977 30.0646 42.7515 29.3826 42.6053C28.7006 42.4592 28.1109 42.2284 27.6137 41.913C27.1306 41.5976 26.889 41.1745 26.889 40.6437C26.889 40.0206 27.294 39.486 28.1038 39.0398C28.9279 38.5936 30.0007 38.309 31.322 38.1859V37.5282C31.322 37.3205 31.4428 37.1551 31.6843 37.032C31.9259 36.9012 32.2314 36.8358 32.6008 36.8358C32.9844 36.8358 33.2899 36.9012 33.5172 37.032C33.7588 37.1551 33.8795 37.3205 33.8795 37.5282V38.1628C35.1583 38.2551 36.3589 38.5167 37.4814 38.9475C37.6945 39.0244 37.8437 39.1129 37.9289 39.2129C38.0284 39.3129 38.0781 39.4321 38.0781 39.5706C38.0781 39.7629 37.9644 39.9321 37.7371 40.0783C37.524 40.2245 37.2753 40.2975 36.9912 40.2975C36.8349 40.2975 36.6857 40.286 36.5436 40.2629C36.4157 40.2398 36.231 40.1898 35.9895 40.1129C35.4069 39.9129 34.8812 39.7629 34.4124 39.6629C33.9577 39.5629 33.3965 39.5129 32.7287 39.5129C31.9614 39.5129 31.3433 39.6052 30.8745 39.7898C30.4198 39.9744 30.1925 40.2206 30.1925 40.5283C30.1925 40.7437 30.3274 40.9206 30.5974 41.0591C30.8674 41.1899 31.2084 41.2937 31.6204 41.3707C32.0325 41.4476 32.6079 41.5361 33.3467 41.6361C34.3839 41.7745 35.2293 41.9168 35.8829 42.063C36.5507 42.2015 37.119 42.4284 37.5879 42.7438C38.071 43.0515 38.3125 43.4669 38.3125 43.99Z" fill="url(#paint11_linear_2_2754)"/>
<path d="M58.4441 36.2639C58.4441 43.0653 46.8023 48.579 32.4413 48.579C18.0803 48.579 6.43848 43.0653 6.43848 36.2639C6.43848 29.4624 18.0803 23.9488 32.4413 23.9488C46.8023 23.9488 58.4441 29.4624 58.4441 36.2639Z" fill="url(#paint12_linear_2_2754)"/>
<path d="M58.4441 35.5395C58.4441 42.3409 46.8023 47.8546 32.4413 47.8546C18.0803 47.8546 6.43848 42.3409 6.43848 35.5395C6.43848 28.738 18.0803 23.2244 32.4413 23.2244C46.8023 23.2244 58.4441 28.738 58.4441 35.5395Z" fill="url(#paint13_linear_2_2754)"/>
<path d="M58.4441 34.8151C58.4441 41.6165 46.8023 47.1302 32.4413 47.1302C18.0803 47.1302 6.43848 41.6165 6.43848 34.8151C6.43848 28.0136 18.0803 22.4999 32.4413 22.4999C46.8023 22.4999 58.4441 28.0136 58.4441 34.8151Z" fill="url(#paint14_linear_2_2754)"/>
<path d="M58.4441 34.0906C58.4441 40.8921 46.8023 46.4058 32.4413 46.4058C18.0803 46.4058 6.43848 40.8921 6.43848 34.0906C6.43848 27.2892 18.0803 21.7755 32.4413 21.7755C46.8023 21.7755 58.4441 27.2892 58.4441 34.0906Z" fill="url(#paint15_linear_2_2754)"/>
<path d="M58.4441 33.3662C58.4441 40.1677 46.8023 45.6813 32.4413 45.6813C18.0803 45.6813 6.43848 40.1677 6.43848 33.3662C6.43848 26.5648 18.0803 21.0511 32.4413 21.0511C46.8023 21.0511 58.4441 26.5648 58.4441 33.3662Z" fill="url(#paint16_linear_2_2754)"/>
<path d="M58.4441 32.6418C58.4441 39.4433 46.8023 44.9569 32.4413 44.9569C18.0803 44.9569 6.43848 39.4433 6.43848 32.6418C6.43848 25.8404 18.0803 20.3267 32.4413 20.3267C46.8023 20.3267 58.4441 25.8404 58.4441 32.6418Z" fill="url(#paint17_linear_2_2754)"/>
<path d="M58.4441 31.9174C58.4441 38.7188 46.8023 44.2325 32.4413 44.2325C18.0803 44.2325 6.43848 38.7188 6.43848 31.9174C6.43848 25.1159 18.0803 19.6023 32.4413 19.6023C46.8023 19.6023 58.4441 25.1159 58.4441 31.9174Z" fill="url(#paint18_linear_2_2754)"/>
<path d="M58.4441 31.193C58.4441 37.9944 46.8023 43.5081 32.4413 43.5081C18.0803 43.5081 6.43848 37.9944 6.43848 31.193C6.43848 24.3915 18.0803 18.8778 32.4413 18.8778C46.8023 18.8778 58.4441 24.3915 58.4441 31.193Z" fill="url(#paint19_linear_2_2754)"/>
<path d="M58.4441 30.4685C58.4441 37.27 46.8023 42.7837 32.4413 42.7837C18.0803 42.7837 6.43848 37.27 6.43848 30.4685C6.43848 23.6671 18.0803 18.1534 32.4413 18.1534C46.8023 18.1534 58.4441 23.6671 58.4441 30.4685Z" fill="url(#paint20_linear_2_2754)"/>
<path d="M58.4441 29.7441C58.4441 36.5456 46.8023 42.0592 32.4413 42.0592C18.0803 42.0592 6.43848 36.5456 6.43848 29.7441C6.43848 22.9427 18.0803 17.429 32.4413 17.429C46.8023 17.429 58.4441 22.9427 58.4441 29.7441Z" fill="url(#paint21_linear_2_2754)"/>
<path d="M58.4441 29.0197C58.4441 35.8212 46.8023 41.3348 32.4413 41.3348C18.0803 41.3348 6.43848 35.8212 6.43848 29.0197C6.43848 22.2183 18.0803 16.7046 32.4413 16.7046C46.8023 16.7046 58.4441 22.2183 58.4441 29.0197Z" fill="url(#paint22_linear_2_2754)"/>
<ellipse cx="32.4413" cy="28.4478" rx="26.0028" ry="11.7432" fill="white"/>
<path d="M38.3125 30.5691C38.3125 31.1922 37.9147 31.7192 37.119 32.15C36.3376 32.5731 35.2791 32.8462 33.9435 32.9693V33.627C33.9435 33.8347 33.8227 34.0001 33.5812 34.1232C33.3538 34.2539 33.0483 34.3193 32.6647 34.3193C32.2953 34.3193 31.9898 34.2539 31.7483 34.1232C31.5067 34.0001 31.386 33.8347 31.386 33.627V33.0039C30.6045 32.9654 29.8444 32.8769 29.1055 32.7385C28.3809 32.6 27.7415 32.4231 27.1874 32.2077C26.9601 32.1308 26.7967 32.0461 26.6972 31.9538C26.612 31.8538 26.5693 31.7307 26.5693 31.5846C26.5693 31.3923 26.6759 31.223 26.889 31.0769C27.1164 30.9307 27.3721 30.8576 27.6563 30.8576C27.9262 30.8576 28.2601 30.9192 28.658 31.0422C29.3115 31.2499 29.9296 31.4038 30.5122 31.5038C31.1089 31.5961 31.727 31.6423 32.3663 31.6423C33.2188 31.6423 33.8724 31.5576 34.3271 31.3884C34.7818 31.2115 35.0091 30.9653 35.0091 30.6499C35.0091 30.4576 34.8741 30.2999 34.6042 30.1768C34.3484 30.0537 34.0287 29.9576 33.6451 29.8883C33.2615 29.8191 32.7073 29.7306 31.9827 29.6229C30.9313 29.4768 30.0646 29.3306 29.3826 29.1844C28.7006 29.0383 28.1109 28.8075 27.6137 28.4921C27.1306 28.1767 26.889 27.7536 26.889 27.2228C26.889 26.5997 27.294 26.0651 28.1038 25.6189C28.9279 25.1727 30.0007 24.8881 31.322 24.765V24.1073C31.322 23.8996 31.4428 23.7342 31.6843 23.6111C31.9259 23.4803 32.2314 23.4149 32.6008 23.4149C32.9844 23.4149 33.2899 23.4803 33.5172 23.6111C33.7588 23.7342 33.8795 23.8996 33.8795 24.1073V24.7419C35.1583 24.8342 36.3589 25.0958 37.4814 25.5266C37.6945 25.6035 37.8437 25.692 37.9289 25.792C38.0284 25.892 38.0781 26.0112 38.0781 26.1497C38.0781 26.342 37.9644 26.5112 37.7371 26.6574C37.524 26.8036 37.2753 26.8766 36.9912 26.8766C36.8349 26.8766 36.6857 26.8651 36.5436 26.842C36.4157 26.8189 36.231 26.7689 35.9895 26.692C35.4069 26.492 34.8812 26.342 34.4124 26.242C33.9577 26.142 33.3965 26.092 32.7287 26.092C31.9614 26.092 31.3433 26.1843 30.8745 26.3689C30.4198 26.5535 30.1925 26.7997 30.1925 27.1074C30.1925 27.3228 30.3274 27.4997 30.5974 27.6382C30.8674 27.769 31.2084 27.8728 31.6204 27.9498C32.0325 28.0267 32.6079 28.1152 33.3467 28.2152C34.3839 28.3536 35.2293 28.4959 35.8829 28.6421C36.5507 28.7806 37.119 29.0075 37.5879 29.3229C38.071 29.6306 38.3125 30.046 38.3125 30.5691Z" fill="url(#paint23_linear_2_2754)"/>
<path d="M52.572 20.3269C52.572 27.1283 40.9302 32.642 26.5692 32.642C12.2083 32.642 0.566406 27.1283 0.566406 20.3269C0.566406 13.5254 12.2083 8.01177 26.5692 8.01177C40.9302 8.01177 52.572 13.5254 52.572 20.3269Z" fill="url(#paint24_linear_2_2754)"/>
<path d="M52.572 19.6025C52.572 26.4039 40.9302 31.9176 26.5692 31.9176C12.2083 31.9176 0.566406 26.4039 0.566406 19.6025C0.566406 12.801 12.2083 7.28735 26.5692 7.28735C40.9302 7.28735 52.572 12.801 52.572 19.6025Z" fill="url(#paint25_linear_2_2754)"/>
<path d="M52.572 18.878C52.572 25.6795 40.9302 31.1932 26.5692 31.1932C12.2083 31.1932 0.566406 25.6795 0.566406 18.878C0.566406 12.0766 12.2083 6.56293 26.5692 6.56293C40.9302 6.56293 52.572 12.0766 52.572 18.878Z" fill="url(#paint26_linear_2_2754)"/>
<path d="M52.572 18.1536C52.572 24.9551 40.9302 30.4687 26.5692 30.4687C12.2083 30.4687 0.566406 24.9551 0.566406 18.1536C0.566406 11.3522 12.2083 5.83851 26.5692 5.83851C40.9302 5.83851 52.572 11.3522 52.572 18.1536Z" fill="url(#paint27_linear_2_2754)"/>
<path d="M52.572 17.4292C52.572 24.2307 40.9302 29.7443 26.5692 29.7443C12.2083 29.7443 0.566406 24.2307 0.566406 17.4292C0.566406 10.6278 12.2083 5.11409 26.5692 5.11409C40.9302 5.11409 52.572 10.6278 52.572 17.4292Z" fill="url(#paint28_linear_2_2754)"/>
<path d="M52.572 16.7048C52.572 23.5062 40.9302 29.0199 26.5692 29.0199C12.2083 29.0199 0.566406 23.5062 0.566406 16.7048C0.566406 9.90334 12.2083 4.38967 26.5692 4.38967C40.9302 4.38967 52.572 9.90334 52.572 16.7048Z" fill="url(#paint29_linear_2_2754)"/>
<path d="M52.572 15.9804C52.572 22.7818 40.9302 28.2955 26.5692 28.2955C12.2083 28.2955 0.566406 22.7818 0.566406 15.9804C0.566406 9.17892 12.2083 3.66525 26.5692 3.66525C40.9302 3.66525 52.572 9.17892 52.572 15.9804Z" fill="url(#paint30_linear_2_2754)"/>
<path d="M52.572 15.256C52.572 22.0574 40.9302 27.5711 26.5692 27.5711C12.2083 27.5711 0.566406 22.0574 0.566406 15.256C0.566406 8.4545 12.2083 2.94083 26.5692 2.94083C40.9302 2.94083 52.572 8.4545 52.572 15.256Z" fill="url(#paint31_linear_2_2754)"/>
<path d="M52.572 14.5315C52.572 21.333 40.9302 26.8467 26.5692 26.8467C12.2083 26.8467 0.566406 21.333 0.566406 14.5315C0.566406 7.73008 12.2083 2.21642 26.5692 2.21642C40.9302 2.21642 52.572 7.73008 52.572 14.5315Z" fill="url(#paint32_linear_2_2754)"/>
<path d="M52.572 13.8071C52.572 20.6086 40.9302 26.1222 26.5692 26.1222C12.2083 26.1222 0.566406 20.6086 0.566406 13.8071C0.566406 7.00566 12.2083 1.492 26.5692 1.492C40.9302 1.492 52.572 7.00566 52.572 13.8071Z" fill="url(#paint33_linear_2_2754)"/>
<path d="M52.572 13.0827C52.572 19.8841 40.9302 25.3978 26.5692 25.3978C12.2083 25.3978 0.566406 19.8841 0.566406 13.0827C0.566406 6.28124 12.2083 0.767578 26.5692 0.767578C40.9302 0.767578 52.572 6.28124 52.572 13.0827Z" fill="url(#paint34_linear_2_2754)"/>
<ellipse cx="26.5692" cy="12.5108" rx="26.0028" ry="11.7432" fill="white"/>
<path d="M32.4405 14.6321C32.4405 15.2552 32.0426 15.7822 31.247 16.213C30.4655 16.6361 29.407 16.9092 28.0714 17.0322V17.69C28.0714 17.8977 27.9506 18.0631 27.7091 18.1862C27.4818 18.3169 27.1763 18.3823 26.7927 18.3823C26.4232 18.3823 26.1178 18.3169 25.8762 18.1862C25.6347 18.0631 25.5139 17.8977 25.5139 17.69V17.0669C24.7324 17.0284 23.9723 16.9399 23.2335 16.8015C22.5088 16.663 21.8695 16.4861 21.3153 16.2707C21.088 16.1937 20.9246 16.1091 20.8251 16.0168C20.7399 15.9168 20.6973 15.7937 20.6973 15.6476C20.6973 15.4552 20.8038 15.286 21.017 15.1398C21.2443 14.9937 21.5 14.9206 21.7842 14.9206C22.0542 14.9206 22.3881 14.9821 22.7859 15.1052C23.4395 15.3129 24.0575 15.4668 24.6401 15.5668C25.2368 15.6591 25.8549 15.7053 26.4943 15.7053C27.3468 15.7053 28.0004 15.6206 28.455 15.4514C28.9097 15.2745 29.137 15.0283 29.137 14.7129C29.137 14.5206 29.0021 14.3629 28.7321 14.2398C28.4763 14.1167 28.1567 14.0206 27.773 13.9513C27.3894 13.8821 26.8353 13.7936 26.1107 13.6859C25.0592 13.5398 24.1925 13.3936 23.5105 13.2474C22.8285 13.1013 22.2389 12.8705 21.7416 12.5551C21.2585 12.2397 21.017 11.8166 21.017 11.2858C21.017 10.6627 21.4219 10.128 22.2318 9.68187C23.0559 9.23569 24.1286 8.95106 25.45 8.82798V8.17025C25.45 7.96255 25.5707 7.79715 25.8123 7.67407C26.0538 7.54329 26.3593 7.47791 26.7287 7.47791C27.1123 7.47791 27.4178 7.54329 27.6452 7.67407C27.8867 7.79715 28.0075 7.96255 28.0075 8.17025V8.8049C29.2862 8.89721 30.4868 9.15876 31.6093 9.58955C31.8224 9.66648 31.9716 9.75495 32.0568 9.85495C32.1563 9.95496 32.206 10.0742 32.206 10.2127C32.206 10.405 32.0924 10.5742 31.865 10.7204C31.6519 10.8665 31.4033 10.9396 31.1191 10.9396C30.9628 10.9396 30.8136 10.9281 30.6715 10.905C30.5437 10.8819 30.359 10.8319 30.1174 10.755C29.5349 10.555 29.0092 10.405 28.5403 10.305C28.0856 10.205 27.5244 10.155 26.8566 10.155C26.0893 10.155 25.4713 10.2473 25.0024 10.4319C24.5477 10.6165 24.3204 10.8627 24.3204 11.1704C24.3204 11.3858 24.4554 11.5627 24.7253 11.7012C24.9953 11.832 25.3363 11.9358 25.7483 12.0128C26.1604 12.0897 26.7358 12.1781 27.4747 12.2782C28.5119 12.4166 29.3573 12.5589 30.0108 12.7051C30.6786 12.8436 31.247 13.0705 31.7158 13.3859C32.1989 13.6936 32.4405 14.109 32.4405 14.6321Z" fill="url(#paint35_linear_2_2754)"/>
<defs>
<linearGradient id="paint0_linear_2_2754" x1="32.4413" y1="30.1255" x2="32.4413" y2="61.9999" gradientUnits="userSpaceOnUse">
<stop stop-color="#00A3E3"/>
<stop offset="1" stop-color="#9FCD10"/>
</linearGradient>
<linearGradient id="paint1_linear_2_2754" x1="32.4413" y1="30.1255" x2="32.4413" y2="61.9999" gradientUnits="userSpaceOnUse">
<stop stop-color="#00A3E3"/>
<stop offset="1" stop-color="#9FCD10"/>
</linearGradient>
<linearGradient id="paint2_linear_2_2754" x1="32.4413" y1="30.1255" x2="32.4413" y2="61.9999" gradientUnits="userSpaceOnUse">
<stop stop-color="#00A3E3"/>
<stop offset="1" stop-color="#9FCD10"/>
</linearGradient>
<linearGradient id="paint3_linear_2_2754" x1="32.4413" y1="30.1255" x2="32.4413" y2="61.9999" gradientUnits="userSpaceOnUse">
<stop stop-color="#00A3E3"/>
<stop offset="1" stop-color="#9FCD10"/>
</linearGradient>
<linearGradient id="paint4_linear_2_2754" x1="32.4413" y1="30.1255" x2="32.4413" y2="61.9999" gradientUnits="userSpaceOnUse">
<stop stop-color="#00A3E3"/>
<stop offset="1" stop-color="#9FCD10"/>
</linearGradient>
<linearGradient id="paint5_linear_2_2754" x1="32.4413" y1="30.1255" x2="32.4413" y2="61.9999" gradientUnits="userSpaceOnUse">
<stop stop-color="#00A3E3"/>
<stop offset="1" stop-color="#9FCD10"/>
</linearGradient>
<linearGradient id="paint6_linear_2_2754" x1="32.4413" y1="30.1255" x2="32.4413" y2="61.9999" gradientUnits="userSpaceOnUse">
<stop stop-color="#00A3E3"/>
<stop offset="1" stop-color="#9FCD10"/>
</linearGradient>
<linearGradient id="paint7_linear_2_2754" x1="32.4413" y1="30.1255" x2="32.4413" y2="61.9999" gradientUnits="userSpaceOnUse">
<stop stop-color="#00A3E3"/>
<stop offset="1" stop-color="#9FCD10"/>
</linearGradient>
<linearGradient id="paint8_linear_2_2754" x1="32.4413" y1="30.1255" x2="32.4413" y2="61.9999" gradientUnits="userSpaceOnUse">
<stop stop-color="#00A3E3"/>
<stop offset="1" stop-color="#9FCD10"/>
</linearGradient>
<linearGradient id="paint9_linear_2_2754" x1="32.4413" y1="30.1255" x2="32.4413" y2="61.9999" gradientUnits="userSpaceOnUse">
<stop stop-color="#00A3E3"/>
<stop offset="1" stop-color="#9FCD10"/>
</linearGradient>
<linearGradient id="paint10_linear_2_2754" x1="32.4413" y1="30.1255" x2="32.4413" y2="61.9999" gradientUnits="userSpaceOnUse">
<stop stop-color="#00A3E3"/>
<stop offset="1" stop-color="#9FCD10"/>
</linearGradient>
<linearGradient id="paint11_linear_2_2754" x1="32.4409" y1="36.8358" x2="32.4409" y2="47.7402" gradientUnits="userSpaceOnUse">
<stop stop-color="#00A3E3"/>
<stop offset="1" stop-color="#9FCD10"/>
</linearGradient>
<linearGradient id="paint12_linear_2_2754" x1="32.4413" y1="16.7046" x2="32.4413" y2="48.579" gradientUnits="userSpaceOnUse">
<stop stop-color="#00A3E3"/>
<stop offset="1" stop-color="#9FCD10"/>
</linearGradient>
<linearGradient id="paint13_linear_2_2754" x1="32.4413" y1="16.7046" x2="32.4413" y2="48.579" gradientUnits="userSpaceOnUse">
<stop stop-color="#00A3E3"/>
<stop offset="1" stop-color="#9FCD10"/>
</linearGradient>
<linearGradient id="paint14_linear_2_2754" x1="32.4413" y1="16.7046" x2="32.4413" y2="48.579" gradientUnits="userSpaceOnUse">
<stop stop-color="#00A3E3"/>
<stop offset="1" stop-color="#9FCD10"/>
</linearGradient>
<linearGradient id="paint15_linear_2_2754" x1="32.4413" y1="16.7046" x2="32.4413" y2="48.579" gradientUnits="userSpaceOnUse">
<stop stop-color="#00A3E3"/>
<stop offset="1" stop-color="#9FCD10"/>
</linearGradient>
<linearGradient id="paint16_linear_2_2754" x1="32.4413" y1="16.7046" x2="32.4413" y2="48.579" gradientUnits="userSpaceOnUse">
<stop stop-color="#00A3E3"/>
<stop offset="1" stop-color="#9FCD10"/>
</linearGradient>
<linearGradient id="paint17_linear_2_2754" x1="32.4413" y1="16.7046" x2="32.4413" y2="48.579" gradientUnits="userSpaceOnUse">
<stop stop-color="#00A3E3"/>
<stop offset="1" stop-color="#9FCD10"/>
</linearGradient>
<linearGradient id="paint18_linear_2_2754" x1="32.4413" y1="16.7046" x2="32.4413" y2="48.579" gradientUnits="userSpaceOnUse">
<stop stop-color="#00A3E3"/>
<stop offset="1" stop-color="#9FCD10"/>
</linearGradient>
<linearGradient id="paint19_linear_2_2754" x1="32.4413" y1="16.7046" x2="32.4413" y2="48.579" gradientUnits="userSpaceOnUse">
<stop stop-color="#00A3E3"/>
<stop offset="1" stop-color="#9FCD10"/>
</linearGradient>
<linearGradient id="paint20_linear_2_2754" x1="32.4413" y1="16.7046" x2="32.4413" y2="48.579" gradientUnits="userSpaceOnUse">
<stop stop-color="#00A3E3"/>
<stop offset="1" stop-color="#9FCD10"/>
</linearGradient>
<linearGradient id="paint21_linear_2_2754" x1="32.4413" y1="16.7046" x2="32.4413" y2="48.579" gradientUnits="userSpaceOnUse">
<stop stop-color="#00A3E3"/>
<stop offset="1" stop-color="#9FCD10"/>
</linearGradient>
<linearGradient id="paint22_linear_2_2754" x1="32.4413" y1="16.7046" x2="32.4413" y2="48.579" gradientUnits="userSpaceOnUse">
<stop stop-color="#00A3E3"/>
<stop offset="1" stop-color="#9FCD10"/>
</linearGradient>
<linearGradient id="paint23_linear_2_2754" x1="32.4409" y1="23.4149" x2="32.4409" y2="34.3193" gradientUnits="userSpaceOnUse">
<stop stop-color="#00A3E3"/>
<stop offset="1" stop-color="#9FCD10"/>
</linearGradient>
<linearGradient id="paint24_linear_2_2754" x1="26.5692" y1="0.767578" x2="26.5692" y2="32.642" gradientUnits="userSpaceOnUse">
<stop stop-color="#00A3E3"/>
<stop offset="1" stop-color="#9FCD10"/>
</linearGradient>
<linearGradient id="paint25_linear_2_2754" x1="26.5692" y1="0.767578" x2="26.5692" y2="32.642" gradientUnits="userSpaceOnUse">
<stop stop-color="#00A3E3"/>
<stop offset="1" stop-color="#9FCD10"/>
</linearGradient>
<linearGradient id="paint26_linear_2_2754" x1="26.5692" y1="0.767578" x2="26.5692" y2="32.642" gradientUnits="userSpaceOnUse">
<stop stop-color="#00A3E3"/>
<stop offset="1" stop-color="#9FCD10"/>
</linearGradient>
<linearGradient id="paint27_linear_2_2754" x1="26.5692" y1="0.767578" x2="26.5692" y2="32.642" gradientUnits="userSpaceOnUse">
<stop stop-color="#00A3E3"/>
<stop offset="1" stop-color="#9FCD10"/>
</linearGradient>
<linearGradient id="paint28_linear_2_2754" x1="26.5692" y1="0.767578" x2="26.5692" y2="32.642" gradientUnits="userSpaceOnUse">
<stop stop-color="#00A3E3"/>
<stop offset="1" stop-color="#9FCD10"/>
</linearGradient>
<linearGradient id="paint29_linear_2_2754" x1="26.5692" y1="0.767578" x2="26.5692" y2="32.642" gradientUnits="userSpaceOnUse">
<stop stop-color="#00A3E3"/>
<stop offset="1" stop-color="#9FCD10"/>
</linearGradient>
<linearGradient id="paint30_linear_2_2754" x1="26.5692" y1="0.767578" x2="26.5692" y2="32.642" gradientUnits="userSpaceOnUse">
<stop stop-color="#00A3E3"/>
<stop offset="1" stop-color="#9FCD10"/>
</linearGradient>
<linearGradient id="paint31_linear_2_2754" x1="26.5692" y1="0.767578" x2="26.5692" y2="32.642" gradientUnits="userSpaceOnUse">
<stop stop-color="#00A3E3"/>
<stop offset="1" stop-color="#9FCD10"/>
</linearGradient>
<linearGradient id="paint32_linear_2_2754" x1="26.5692" y1="0.767578" x2="26.5692" y2="32.642" gradientUnits="userSpaceOnUse">
<stop stop-color="#00A3E3"/>
<stop offset="1" stop-color="#9FCD10"/>
</linearGradient>
<linearGradient id="paint33_linear_2_2754" x1="26.5692" y1="0.767578" x2="26.5692" y2="32.642" gradientUnits="userSpaceOnUse">
<stop stop-color="#00A3E3"/>
<stop offset="1" stop-color="#9FCD10"/>
</linearGradient>
<linearGradient id="paint34_linear_2_2754" x1="26.5692" y1="0.767578" x2="26.5692" y2="32.642" gradientUnits="userSpaceOnUse">
<stop stop-color="#00A3E3"/>
<stop offset="1" stop-color="#9FCD10"/>
</linearGradient>
<linearGradient id="paint35_linear_2_2754" x1="26.5689" y1="7.47791" x2="26.5689" y2="18.3823" gradientUnits="userSpaceOnUse">
<stop stop-color="#00A3E3"/>
<stop offset="1" stop-color="#9FCD10"/>
</linearGradient>
</defs>
</svg>
