<svg width="416" height="277" viewBox="0 0 416 277" fill="none" xmlns="http://www.w3.org/2000/svg">
<rect x="38.9756" y="50.6389" width="257.501" height="174.285" stroke="#C6C6C6" stroke-width="2" stroke-linejoin="round" stroke-dasharray="3 3"/>
<rect x="77.3936" y="0.366943" width="268.26" height="202.564" fill="#F1F1F1"/>
<rect x="83.9629" y="29.9302" width="255.121" height="168.621" fill="white"/>
<rect x="104.767" y="51.8293" width="211.323" height="122.633" rx="8" fill="#F1F1F1"/>
<rect x="321.565" y="13.5061" width="16.4241" height="4.37976" rx="2.18988" fill="#C4C4C4"/>
<rect x="201.122" y="130.665" width="47.0824" height="4.37976" rx="2.18988" fill="white"/>
<rect x="116.812" y="72.6328" width="47.0824" height="4.37976" rx="2.18988" fill="white"/>
<rect x="258.059" y="130.665" width="47.0824" height="4.37976" rx="2.18988" fill="white"/>
<rect x="201.122" y="138.329" width="47.0824" height="4.37976" rx="2.18988" fill="white"/>
<rect x="116.812" y="80.2971" width="47.0824" height="4.37976" rx="2.18988" fill="white"/>
<rect x="258.059" y="138.329" width="47.0824" height="4.37976" rx="2.18988" fill="white"/>
<rect x="201.122" y="145.994" width="26.2786" height="4.37976" rx="2.18988" fill="white"/>
<rect x="116.812" y="87.9624" width="26.2786" height="4.37976" rx="2.18988" fill="white"/>
<rect x="258.059" y="145.994" width="26.2786" height="4.37976" rx="2.18988" fill="white"/>
<circle cx="86.7002" cy="15.1485" r="2.73735" fill="#C4C4C4"/>
<circle cx="94.3653" cy="15.1485" r="2.73735" fill="#C4C4C4"/>
<circle cx="102.029" cy="15.1485" r="2.73735" fill="#C4C4C4"/>
<g filter="url(#filter0_d_2_2962)">
<rect x="16.0771" y="110.956" width="167.526" height="134.678" rx="15" fill="white"/>
</g>
<rect x="33.5967" y="141.614" width="130.298" height="19.7089" rx="4" fill="#EEEEEE"/>
<rect x="33.5957" y="183.222" width="130.298" height="19.7089" rx="4" fill="#EEEEEE"/>
<rect x="33.5957" y="213.88" width="41.6077" height="19.7089" rx="4" fill="url(#paint0_linear_2_2962)"/>
<path d="M34.4927 133.225C34.404 133.225 34.334 133.199 34.2827 133.148C34.2313 133.092 34.2057 133.019 34.2057 132.931V128.535C34.2057 128.451 34.2313 128.383 34.2827 128.332C34.3387 128.28 34.411 128.255 34.4997 128.255H36.1587C36.6767 128.255 37.078 128.381 37.3627 128.633C37.652 128.885 37.7967 129.242 37.7967 129.704C37.7967 130.166 37.652 130.525 37.3627 130.782C37.0733 131.038 36.672 131.167 36.1587 131.167H34.7797V132.931C34.7797 133.019 34.754 133.092 34.7027 133.148C34.6513 133.199 34.5813 133.225 34.4927 133.225ZM36.1027 130.691C36.854 130.691 37.2297 130.362 37.2297 129.704C37.2297 129.055 36.854 128.731 36.1027 128.731H34.7797V130.691H36.1027ZM39.9512 129.697C40.8052 129.697 41.2322 130.145 41.2322 131.041V132.945C41.2322 133.029 41.2065 133.096 41.1552 133.148C41.1085 133.199 41.0432 133.225 40.9592 133.225C40.8752 133.225 40.8075 133.199 40.7562 133.148C40.7049 133.096 40.6792 133.029 40.6792 132.945V132.609C40.5905 132.809 40.4552 132.966 40.2732 133.078C40.0912 133.185 39.8812 133.239 39.6432 133.239C39.4239 133.239 39.2209 133.194 39.0342 133.106C38.8522 133.017 38.7075 132.893 38.6002 132.735C38.4929 132.576 38.4392 132.401 38.4392 132.21C38.4392 131.953 38.5045 131.755 38.6352 131.615C38.7659 131.47 38.9805 131.367 39.2792 131.307C39.5779 131.241 39.9932 131.209 40.5252 131.209H40.6792V130.978C40.6792 130.698 40.6209 130.492 40.5042 130.362C40.3922 130.231 40.2079 130.166 39.9512 130.166C39.6339 130.166 39.3119 130.252 38.9852 130.425C38.8592 130.504 38.7705 130.544 38.7192 130.544C38.6632 130.544 38.6165 130.523 38.5792 130.481C38.5419 130.439 38.5232 130.385 38.5232 130.32C38.5232 130.254 38.5419 130.198 38.5792 130.152C38.6212 130.1 38.6865 130.049 38.7752 129.998C38.9385 129.904 39.1229 129.832 39.3282 129.781C39.5382 129.725 39.7459 129.697 39.9512 129.697ZM39.7202 132.791C40.0002 132.791 40.2289 132.697 40.4062 132.511C40.5882 132.319 40.6792 132.074 40.6792 131.776V131.573H40.5532C40.1425 131.573 39.8299 131.591 39.6152 131.629C39.4005 131.661 39.2465 131.72 39.1532 131.804C39.0645 131.883 39.0202 132.002 39.0202 132.161C39.0202 132.343 39.0855 132.494 39.2162 132.616C39.3515 132.732 39.5195 132.791 39.7202 132.791ZM43.4181 133.239C43.2035 133.239 42.9981 133.213 42.8021 133.162C42.6108 133.11 42.4405 133.038 42.2911 132.945C42.2071 132.889 42.1465 132.837 42.1091 132.791C42.0765 132.739 42.0601 132.679 42.0601 132.609C42.0601 132.548 42.0765 132.499 42.1091 132.462C42.1465 132.42 42.1931 132.399 42.2491 132.399C42.3051 132.399 42.3868 132.434 42.4941 132.504C42.6341 132.588 42.7718 132.655 42.9071 132.707C43.0471 132.753 43.2198 132.777 43.4251 132.777C43.6771 132.777 43.8731 132.732 44.0131 132.644C44.1531 132.555 44.2231 132.427 44.2231 132.259C44.2231 132.156 44.1975 132.074 44.1461 132.014C44.0948 131.948 44.0061 131.892 43.8801 131.846C43.7541 131.794 43.5698 131.743 43.3271 131.692C42.9165 131.603 42.6225 131.484 42.4451 131.335C42.2678 131.185 42.1791 130.982 42.1791 130.726C42.1791 130.525 42.2351 130.348 42.3471 130.194C42.4591 130.04 42.6131 129.918 42.8091 129.83C43.0098 129.741 43.2361 129.697 43.4881 129.697C43.6701 129.697 43.8451 129.722 44.0131 129.774C44.1858 129.82 44.3375 129.888 44.4681 129.977C44.6268 130.089 44.7061 130.205 44.7061 130.327C44.7061 130.387 44.6875 130.439 44.6501 130.481C44.6128 130.523 44.5685 130.544 44.5171 130.544C44.4611 130.544 44.3771 130.504 44.2651 130.425C44.1345 130.341 44.0108 130.275 43.8941 130.229C43.7775 130.182 43.6328 130.159 43.4601 130.159C43.2408 130.159 43.0635 130.208 42.9281 130.306C42.7975 130.404 42.7321 130.534 42.7321 130.698C42.7321 130.8 42.7555 130.884 42.8021 130.95C42.8535 131.01 42.9351 131.066 43.0471 131.118C43.1638 131.164 43.3295 131.211 43.5441 131.258C43.8615 131.328 44.1065 131.405 44.2791 131.489C44.4565 131.573 44.5825 131.675 44.6571 131.797C44.7318 131.918 44.7691 132.072 44.7691 132.259C44.7691 132.553 44.6455 132.791 44.3981 132.973C44.1508 133.15 43.8241 133.239 43.4181 133.239ZM46.7814 133.239C46.5667 133.239 46.3614 133.213 46.1654 133.162C45.9741 133.11 45.8037 133.038 45.6544 132.945C45.5704 132.889 45.5097 132.837 45.4724 132.791C45.4397 132.739 45.4234 132.679 45.4234 132.609C45.4234 132.548 45.4397 132.499 45.4724 132.462C45.5097 132.42 45.5564 132.399 45.6124 132.399C45.6684 132.399 45.7501 132.434 45.8574 132.504C45.9974 132.588 46.1351 132.655 46.2704 132.707C46.4104 132.753 46.5831 132.777 46.7884 132.777C47.0404 132.777 47.2364 132.732 47.3764 132.644C47.5164 132.555 47.5864 132.427 47.5864 132.259C47.5864 132.156 47.5607 132.074 47.5094 132.014C47.4581 131.948 47.3694 131.892 47.2434 131.846C47.1174 131.794 46.9331 131.743 46.6904 131.692C46.2797 131.603 45.9857 131.484 45.8084 131.335C45.6311 131.185 45.5424 130.982 45.5424 130.726C45.5424 130.525 45.5984 130.348 45.7104 130.194C45.8224 130.04 45.9764 129.918 46.1724 129.83C46.3731 129.741 46.5994 129.697 46.8514 129.697C47.0334 129.697 47.2084 129.722 47.3764 129.774C47.5491 129.82 47.7007 129.888 47.8314 129.977C47.9901 130.089 48.0694 130.205 48.0694 130.327C48.0694 130.387 48.0507 130.439 48.0134 130.481C47.9761 130.523 47.9317 130.544 47.8804 130.544C47.8244 130.544 47.7404 130.504 47.6284 130.425C47.4977 130.341 47.3741 130.275 47.2574 130.229C47.1407 130.182 46.9961 130.159 46.8234 130.159C46.6041 130.159 46.4267 130.208 46.2914 130.306C46.1607 130.404 46.0954 130.534 46.0954 130.698C46.0954 130.8 46.1187 130.884 46.1654 130.95C46.2167 131.01 46.2984 131.066 46.4104 131.118C46.5271 131.164 46.6927 131.211 46.9074 131.258C47.2247 131.328 47.4697 131.405 47.6424 131.489C47.8197 131.573 47.9457 131.675 48.0204 131.797C48.0951 131.918 48.1324 132.072 48.1324 132.259C48.1324 132.553 48.0087 132.791 47.7614 132.973C47.5141 133.15 47.1874 133.239 46.7814 133.239ZM53.5972 129.893C53.6438 129.781 53.7208 129.725 53.8282 129.725C53.8982 129.725 53.9612 129.748 54.0172 129.795C54.0732 129.841 54.1012 129.9 54.1012 129.97C54.1012 130.002 54.0942 130.037 54.0802 130.075L52.9182 133.015C52.8902 133.075 52.8482 133.124 52.7922 133.162C52.7408 133.194 52.6825 133.211 52.6172 133.211C52.5565 133.211 52.4982 133.194 52.4422 133.162C52.3908 133.124 52.3512 133.075 52.3232 133.015L51.3572 130.558L50.3982 133.015C50.3748 133.075 50.3352 133.124 50.2792 133.162C50.2232 133.194 50.1625 133.211 50.0972 133.211C50.0365 133.211 49.9782 133.194 49.9222 133.162C49.8662 133.124 49.8242 133.075 49.7962 133.015L48.6342 130.082C48.6202 130.044 48.6132 130.012 48.6132 129.984C48.6132 129.909 48.6435 129.846 48.7042 129.795C48.7695 129.743 48.8395 129.718 48.9142 129.718C49.0262 129.718 49.1055 129.774 49.1522 129.886L50.1112 132.469L51.0982 129.907C51.1262 129.846 51.1635 129.799 51.2102 129.767C51.2615 129.734 51.3152 129.718 51.3712 129.718C51.4318 129.718 51.4855 129.734 51.5322 129.767C51.5835 129.799 51.6208 129.846 51.6442 129.907L52.6312 132.462L53.5972 129.893ZM56.2007 133.239C55.8787 133.239 55.5941 133.166 55.3467 133.022C55.1041 132.877 54.9151 132.672 54.7797 132.406C54.6491 132.135 54.5837 131.822 54.5837 131.468C54.5837 131.113 54.6491 130.803 54.7797 130.537C54.9151 130.266 55.1041 130.058 55.3467 129.914C55.5941 129.769 55.8787 129.697 56.2007 129.697C56.5227 129.697 56.8074 129.769 57.0547 129.914C57.3021 130.058 57.4911 130.266 57.6217 130.537C57.7571 130.803 57.8247 131.113 57.8247 131.468C57.8247 131.822 57.7571 132.135 57.6217 132.406C57.4911 132.672 57.3021 132.877 57.0547 133.022C56.8074 133.166 56.5227 133.239 56.2007 133.239ZM56.2007 132.77C56.5367 132.77 56.7934 132.66 56.9707 132.441C57.1527 132.217 57.2437 131.892 57.2437 131.468C57.2437 131.052 57.1527 130.733 56.9707 130.509C56.7887 130.28 56.5321 130.166 56.2007 130.166C55.8694 130.166 55.6127 130.28 55.4307 130.509C55.2487 130.733 55.1577 131.052 55.1577 131.468C55.1577 131.888 55.2464 132.21 55.4237 132.434C55.6057 132.658 55.8647 132.77 56.2007 132.77ZM60.3565 129.711C60.5525 129.697 60.6505 129.776 60.6505 129.949C60.6505 130.023 60.6295 130.084 60.5875 130.131C60.5455 130.173 60.4732 130.198 60.3705 130.208L60.1605 130.229C59.8479 130.257 59.6145 130.369 59.4605 130.565C59.3112 130.756 59.2365 130.982 59.2365 131.244V132.945C59.2365 133.038 59.2109 133.108 59.1595 133.155C59.1082 133.201 59.0405 133.225 58.9565 133.225C58.8725 133.225 58.8025 133.201 58.7465 133.155C58.6952 133.103 58.6695 133.033 58.6695 132.945V129.991C58.6695 129.902 58.6975 129.834 58.7535 129.788C58.8095 129.736 58.8772 129.711 58.9565 129.711C59.0312 129.711 59.0942 129.736 59.1455 129.788C59.1969 129.834 59.2225 129.9 59.2225 129.984V130.376C59.3205 130.17 59.4582 130.014 59.6355 129.907C59.8175 129.799 60.0252 129.736 60.2585 129.718L60.3565 129.711ZM63.8059 128.22C63.8946 128.22 63.9646 128.245 64.0159 128.297C64.0673 128.348 64.0929 128.413 64.0929 128.493V132.945C64.0929 133.029 64.0673 133.096 64.0159 133.148C63.9646 133.199 63.8946 133.225 63.8059 133.225C63.7173 133.225 63.6473 133.199 63.5959 133.148C63.5493 133.096 63.5259 133.029 63.5259 132.945V132.567C63.4233 132.781 63.2716 132.947 63.0709 133.064C62.8749 133.18 62.6439 133.239 62.3779 133.239C62.0793 133.239 61.8156 133.164 61.5869 133.015C61.3583 132.865 61.1809 132.658 61.0549 132.392C60.9289 132.121 60.8659 131.808 60.8659 131.454C60.8659 131.104 60.9289 130.796 61.0549 130.53C61.1809 130.264 61.3583 130.058 61.5869 129.914C61.8156 129.769 62.0793 129.697 62.3779 129.697C62.6439 129.697 62.8749 129.755 63.0709 129.872C63.2716 129.988 63.4233 130.154 63.5259 130.369V128.493C63.5259 128.409 63.5493 128.343 63.5959 128.297C63.6473 128.245 63.7173 128.22 63.8059 128.22ZM62.4899 132.77C62.8213 132.77 63.0756 132.658 63.2529 132.434C63.4349 132.205 63.5259 131.883 63.5259 131.468C63.5259 131.052 63.4349 130.733 63.2529 130.509C63.0756 130.285 62.8213 130.173 62.4899 130.173C62.1586 130.173 61.8996 130.285 61.7129 130.509C61.5309 130.733 61.4399 131.048 61.4399 131.454C61.4399 131.869 61.5309 132.193 61.7129 132.427C61.8996 132.655 62.1586 132.77 62.4899 132.77Z" fill="black"/>
<path d="M36.2987 174.853C35.832 174.853 35.4283 174.753 35.0877 174.552C34.747 174.347 34.4833 174.055 34.2967 173.677C34.1147 173.295 34.0237 172.844 34.0237 172.326C34.0237 171.813 34.1147 171.367 34.2967 170.989C34.4833 170.607 34.747 170.315 35.0877 170.114C35.4283 169.909 35.832 169.806 36.2987 169.806C36.6113 169.806 36.9053 169.858 37.1807 169.96C37.4607 170.058 37.7033 170.201 37.9087 170.387C37.9833 170.457 38.0207 170.539 38.0207 170.632C38.0207 170.698 38.002 170.756 37.9647 170.807C37.9273 170.854 37.883 170.877 37.8317 170.877C37.7757 170.877 37.708 170.852 37.6287 170.8C37.3907 170.614 37.1737 170.483 36.9777 170.408C36.7863 170.334 36.5647 170.296 36.3127 170.296C35.7713 170.296 35.3537 170.474 35.0597 170.828C34.7703 171.178 34.6257 171.678 34.6257 172.326C34.6257 172.98 34.7703 173.484 35.0597 173.838C35.3537 174.188 35.7713 174.363 36.3127 174.363C36.56 174.363 36.7817 174.326 36.9777 174.251C37.1737 174.177 37.3907 174.046 37.6287 173.859C37.708 173.808 37.7757 173.782 37.8317 173.782C37.883 173.782 37.9273 173.806 37.9647 173.852C38.002 173.899 38.0207 173.957 38.0207 174.027C38.0207 174.121 37.9833 174.202 37.9087 174.272C37.7033 174.459 37.4607 174.604 37.1807 174.706C36.9053 174.804 36.6113 174.853 36.2987 174.853ZM40.2046 174.846C39.8826 174.846 39.598 174.774 39.3506 174.629C39.108 174.485 38.919 174.279 38.7836 174.013C38.653 173.743 38.5876 173.43 38.5876 173.075C38.5876 172.721 38.653 172.41 38.7836 172.144C38.919 171.874 39.108 171.666 39.3506 171.521C39.598 171.377 39.8826 171.304 40.2046 171.304C40.5266 171.304 40.8113 171.377 41.0586 171.521C41.306 171.666 41.495 171.874 41.6256 172.144C41.761 172.41 41.8286 172.721 41.8286 173.075C41.8286 173.43 41.761 173.743 41.6256 174.013C41.495 174.279 41.306 174.485 41.0586 174.629C40.8113 174.774 40.5266 174.846 40.2046 174.846ZM40.2046 174.377C40.5406 174.377 40.7973 174.268 40.9746 174.048C41.1566 173.824 41.2476 173.5 41.2476 173.075C41.2476 172.66 41.1566 172.34 40.9746 172.116C40.7926 171.888 40.536 171.773 40.2046 171.773C39.8733 171.773 39.6166 171.888 39.4346 172.116C39.2526 172.34 39.1616 172.66 39.1616 173.075C39.1616 173.495 39.2503 173.817 39.4276 174.041C39.6096 174.265 39.8686 174.377 40.2046 174.377ZM44.3884 171.304C45.2051 171.304 45.6134 171.755 45.6134 172.655V174.552C45.6134 174.641 45.5878 174.711 45.5364 174.762C45.4898 174.809 45.4221 174.832 45.3334 174.832C45.2448 174.832 45.1748 174.809 45.1234 174.762C45.0721 174.711 45.0464 174.641 45.0464 174.552V172.69C45.0464 172.373 44.9834 172.142 44.8574 171.997C44.7361 171.853 44.5401 171.78 44.2694 171.78C43.9568 171.78 43.7071 171.876 43.5204 172.067C43.3338 172.259 43.2404 172.518 43.2404 172.844V174.552C43.2404 174.641 43.2148 174.711 43.1634 174.762C43.1168 174.809 43.0491 174.832 42.9604 174.832C42.8718 174.832 42.8018 174.809 42.7504 174.762C42.6991 174.711 42.6734 174.641 42.6734 174.552V171.598C42.6734 171.514 42.6991 171.447 42.7504 171.395C42.8018 171.344 42.8718 171.318 42.9604 171.318C43.0444 171.318 43.1098 171.344 43.1564 171.395C43.2078 171.447 43.2334 171.512 43.2334 171.591V171.948C43.3454 171.738 43.5018 171.58 43.7024 171.472C43.9031 171.36 44.1318 171.304 44.3884 171.304ZM49.263 171.388C49.3423 171.388 49.403 171.409 49.445 171.451C49.487 171.493 49.508 171.549 49.508 171.619V174.552C49.508 174.641 49.48 174.711 49.424 174.762C49.3726 174.809 49.3073 174.832 49.228 174.832C49.144 174.832 49.074 174.809 49.018 174.762C48.9666 174.711 48.941 174.641 48.941 174.552V171.836H47.408V174.552C47.408 174.641 47.38 174.711 47.324 174.762C47.2726 174.809 47.2073 174.832 47.128 174.832C47.044 174.832 46.974 174.809 46.918 174.762C46.8666 174.711 46.841 174.641 46.841 174.552V171.836H46.372C46.2926 171.836 46.2296 171.818 46.183 171.78C46.141 171.738 46.12 171.685 46.12 171.619C46.12 171.549 46.141 171.493 46.183 171.451C46.2296 171.409 46.2926 171.388 46.372 171.388H46.841V171.269C46.841 170.849 46.946 170.52 47.156 170.282C47.366 170.04 47.667 169.902 48.059 169.869L48.227 169.855C48.451 169.837 48.563 169.907 48.563 170.065C48.563 170.201 48.4836 170.278 48.325 170.296L48.157 170.31C47.9096 170.329 47.723 170.408 47.597 170.548C47.471 170.684 47.408 170.889 47.408 171.164V171.388H49.263ZM49.228 169.876C49.3353 169.876 49.424 169.909 49.494 169.974C49.5686 170.04 49.606 170.124 49.606 170.226C49.606 170.334 49.571 170.42 49.501 170.485C49.431 170.551 49.34 170.583 49.228 170.583C49.116 170.583 49.025 170.551 48.955 170.485C48.885 170.42 48.85 170.334 48.85 170.226C48.85 170.124 48.885 170.04 48.955 169.974C49.025 169.909 49.116 169.876 49.228 169.876ZM52.2491 171.318C52.4451 171.304 52.5431 171.384 52.5431 171.556C52.5431 171.631 52.5221 171.692 52.4801 171.738C52.4381 171.78 52.3658 171.806 52.2631 171.815L52.0531 171.836C51.7404 171.864 51.5071 171.976 51.3531 172.172C51.2038 172.364 51.1291 172.59 51.1291 172.851V174.552C51.1291 174.646 51.1034 174.716 51.0521 174.762C51.0008 174.809 50.9331 174.832 50.8491 174.832C50.7651 174.832 50.6951 174.809 50.6391 174.762C50.5878 174.711 50.5621 174.641 50.5621 174.552V171.598C50.5621 171.51 50.5901 171.442 50.6461 171.395C50.7021 171.344 50.7698 171.318 50.8491 171.318C50.9238 171.318 50.9868 171.344 51.0381 171.395C51.0894 171.442 51.1151 171.507 51.1151 171.591V171.983C51.2131 171.778 51.3508 171.622 51.5281 171.514C51.7101 171.407 51.9178 171.344 52.1511 171.325L52.2491 171.318ZM56.8239 171.304C57.5799 171.304 57.9579 171.755 57.9579 172.655V174.552C57.9579 174.641 57.9322 174.711 57.8809 174.762C57.8295 174.809 57.7619 174.832 57.6779 174.832C57.5939 174.832 57.5239 174.809 57.4679 174.762C57.4165 174.711 57.3909 174.641 57.3909 174.552V172.669C57.3909 172.357 57.3349 172.13 57.2229 171.99C57.1109 171.85 56.9359 171.78 56.6979 171.78C56.4132 171.78 56.1892 171.876 56.0259 172.067C55.8625 172.259 55.7809 172.518 55.7809 172.844V174.552C55.7809 174.641 55.7529 174.711 55.6969 174.762C55.6455 174.809 55.5779 174.832 55.4939 174.832C55.4099 174.832 55.3422 174.809 55.2909 174.762C55.2395 174.711 55.2139 174.641 55.2139 174.552V172.669C55.2139 172.357 55.1579 172.13 55.0459 171.99C54.9339 171.85 54.7565 171.78 54.5139 171.78C54.2339 171.78 54.0099 171.876 53.8419 172.067C53.6785 172.259 53.5969 172.518 53.5969 172.844V174.552C53.5969 174.641 53.5712 174.711 53.5199 174.762C53.4685 174.809 53.4009 174.832 53.3169 174.832C53.2329 174.832 53.1629 174.809 53.1069 174.762C53.0555 174.711 53.0299 174.641 53.0299 174.552V171.598C53.0299 171.514 53.0555 171.447 53.1069 171.395C53.1629 171.344 53.2329 171.318 53.3169 171.318C53.3962 171.318 53.4615 171.344 53.5129 171.395C53.5642 171.442 53.5899 171.507 53.5899 171.591V171.927C53.6925 171.727 53.8349 171.573 54.0169 171.465C54.1989 171.358 54.4089 171.304 54.6469 171.304C55.1789 171.304 55.5265 171.528 55.6899 171.976C55.7879 171.771 55.9372 171.608 56.1379 171.486C56.3385 171.365 56.5672 171.304 56.8239 171.304ZM61.1665 174.832C61.0778 174.832 61.0078 174.807 60.9565 174.755C60.9052 174.699 60.8795 174.627 60.8795 174.538V170.142C60.8795 170.058 60.9052 169.991 60.9565 169.939C61.0125 169.888 61.0848 169.862 61.1735 169.862H62.8325C63.3505 169.862 63.7518 169.988 64.0365 170.24C64.3258 170.492 64.4705 170.849 64.4705 171.311C64.4705 171.773 64.3258 172.133 64.0365 172.389C63.7472 172.646 63.3458 172.774 62.8325 172.774H61.4535V174.538C61.4535 174.627 61.4278 174.699 61.3765 174.755C61.3252 174.807 61.2552 174.832 61.1665 174.832ZM62.7765 172.298C63.5278 172.298 63.9035 171.969 63.9035 171.311C63.9035 170.663 63.5278 170.338 62.7765 170.338H61.4535V172.298H62.7765ZM66.625 171.304C67.479 171.304 67.906 171.752 67.906 172.648V174.552C67.906 174.636 67.8804 174.704 67.829 174.755C67.7824 174.807 67.717 174.832 67.633 174.832C67.549 174.832 67.4814 174.807 67.43 174.755C67.3787 174.704 67.353 174.636 67.353 174.552V174.216C67.2644 174.417 67.129 174.573 66.947 174.685C66.765 174.793 66.555 174.846 66.317 174.846C66.0977 174.846 65.8947 174.802 65.708 174.713C65.526 174.625 65.3814 174.501 65.274 174.342C65.1667 174.184 65.113 174.009 65.113 173.817C65.113 173.561 65.1784 173.362 65.309 173.222C65.4397 173.078 65.6544 172.975 65.953 172.914C66.2517 172.849 66.667 172.816 67.199 172.816H67.353V172.585C67.353 172.305 67.2947 172.1 67.178 171.969C67.066 171.839 66.8817 171.773 66.625 171.773C66.3077 171.773 65.9857 171.86 65.659 172.032C65.533 172.112 65.4444 172.151 65.393 172.151C65.337 172.151 65.2904 172.13 65.253 172.088C65.2157 172.046 65.197 171.993 65.197 171.927C65.197 171.862 65.2157 171.806 65.253 171.759C65.295 171.708 65.3604 171.657 65.449 171.605C65.6124 171.512 65.7967 171.44 66.002 171.388C66.212 171.332 66.4197 171.304 66.625 171.304ZM66.394 174.398C66.674 174.398 66.9027 174.305 67.08 174.118C67.262 173.927 67.353 173.682 67.353 173.383V173.18H67.227C66.8164 173.18 66.5037 173.199 66.289 173.236C66.0744 173.269 65.9204 173.327 65.827 173.411C65.7384 173.491 65.694 173.61 65.694 173.768C65.694 173.95 65.7594 174.102 65.89 174.223C66.0254 174.34 66.1934 174.398 66.394 174.398ZM70.0919 174.846C69.8773 174.846 69.6719 174.821 69.4759 174.769C69.2846 174.718 69.1143 174.646 68.9649 174.552C68.8809 174.496 68.8203 174.445 68.7829 174.398C68.7503 174.347 68.7339 174.286 68.7339 174.216C68.7339 174.156 68.7503 174.107 68.7829 174.069C68.8203 174.027 68.8669 174.006 68.9229 174.006C68.9789 174.006 69.0606 174.041 69.1679 174.111C69.3079 174.195 69.4456 174.263 69.5809 174.314C69.7209 174.361 69.8936 174.384 70.0989 174.384C70.3509 174.384 70.5469 174.34 70.6869 174.251C70.8269 174.163 70.8969 174.034 70.8969 173.866C70.8969 173.764 70.8713 173.682 70.8199 173.621C70.7686 173.556 70.6799 173.5 70.5539 173.453C70.4279 173.402 70.2436 173.351 70.0009 173.299C69.5903 173.211 69.2963 173.092 69.1189 172.942C68.9416 172.793 68.8529 172.59 68.8529 172.333C68.8529 172.133 68.9089 171.955 69.0209 171.801C69.1329 171.647 69.2869 171.526 69.4829 171.437C69.6836 171.349 69.9099 171.304 70.1619 171.304C70.3439 171.304 70.5189 171.33 70.6869 171.381C70.8596 171.428 71.0113 171.496 71.1419 171.584C71.3006 171.696 71.3799 171.813 71.3799 171.934C71.3799 171.995 71.3613 172.046 71.3239 172.088C71.2866 172.13 71.2423 172.151 71.1909 172.151C71.1349 172.151 71.0509 172.112 70.9389 172.032C70.8083 171.948 70.6846 171.883 70.5679 171.836C70.4513 171.79 70.3066 171.766 70.1339 171.766C69.9146 171.766 69.7373 171.815 69.6019 171.913C69.4713 172.011 69.4059 172.142 69.4059 172.305C69.4059 172.408 69.4293 172.492 69.4759 172.557C69.5273 172.618 69.6089 172.674 69.7209 172.725C69.8376 172.772 70.0033 172.819 70.2179 172.865C70.5353 172.935 70.7803 173.012 70.9529 173.096C71.1303 173.18 71.2563 173.283 71.3309 173.404C71.4056 173.526 71.4429 173.68 71.4429 173.866C71.4429 174.16 71.3193 174.398 71.0719 174.58C70.8246 174.758 70.4979 174.846 70.0919 174.846ZM73.4552 174.846C73.2406 174.846 73.0352 174.821 72.8392 174.769C72.6479 174.718 72.4776 174.646 72.3282 174.552C72.2442 174.496 72.1836 174.445 72.1462 174.398C72.1136 174.347 72.0972 174.286 72.0972 174.216C72.0972 174.156 72.1136 174.107 72.1462 174.069C72.1836 174.027 72.2302 174.006 72.2862 174.006C72.3422 174.006 72.4239 174.041 72.5312 174.111C72.6712 174.195 72.8089 174.263 72.9442 174.314C73.0842 174.361 73.2569 174.384 73.4622 174.384C73.7142 174.384 73.9102 174.34 74.0502 174.251C74.1902 174.163 74.2602 174.034 74.2602 173.866C74.2602 173.764 74.2346 173.682 74.1832 173.621C74.1319 173.556 74.0432 173.5 73.9172 173.453C73.7912 173.402 73.6069 173.351 73.3642 173.299C72.9536 173.211 72.6596 173.092 72.4822 172.942C72.3049 172.793 72.2162 172.59 72.2162 172.333C72.2162 172.133 72.2722 171.955 72.3842 171.801C72.4962 171.647 72.6502 171.526 72.8462 171.437C73.0469 171.349 73.2732 171.304 73.5252 171.304C73.7072 171.304 73.8822 171.33 74.0502 171.381C74.2229 171.428 74.3746 171.496 74.5052 171.584C74.6639 171.696 74.7432 171.813 74.7432 171.934C74.7432 171.995 74.7246 172.046 74.6872 172.088C74.6499 172.13 74.6056 172.151 74.5542 172.151C74.4982 172.151 74.4142 172.112 74.3022 172.032C74.1716 171.948 74.0479 171.883 73.9312 171.836C73.8146 171.79 73.6699 171.766 73.4972 171.766C73.2779 171.766 73.1006 171.815 72.9652 171.913C72.8346 172.011 72.7692 172.142 72.7692 172.305C72.7692 172.408 72.7926 172.492 72.8392 172.557C72.8906 172.618 72.9722 172.674 73.0842 172.725C73.2009 172.772 73.3666 172.819 73.5812 172.865C73.8986 172.935 74.1436 173.012 74.3162 173.096C74.4936 173.18 74.6196 173.283 74.6942 173.404C74.7689 173.526 74.8062 173.68 74.8062 173.866C74.8062 174.16 74.6826 174.398 74.4352 174.58C74.1879 174.758 73.8612 174.846 73.4552 174.846ZM80.271 171.5C80.3177 171.388 80.3947 171.332 80.502 171.332C80.572 171.332 80.635 171.356 80.691 171.402C80.747 171.449 80.775 171.507 80.775 171.577C80.775 171.61 80.768 171.645 80.754 171.682L79.592 174.622C79.564 174.683 79.522 174.732 79.466 174.769C79.4147 174.802 79.3563 174.818 79.291 174.818C79.2303 174.818 79.172 174.802 79.116 174.769C79.0647 174.732 79.025 174.683 78.997 174.622L78.031 172.165L77.072 174.622C77.0487 174.683 77.009 174.732 76.953 174.769C76.897 174.802 76.8363 174.818 76.771 174.818C76.7103 174.818 76.652 174.802 76.596 174.769C76.54 174.732 76.498 174.683 76.47 174.622L75.308 171.689C75.294 171.652 75.287 171.619 75.287 171.591C75.287 171.517 75.3173 171.454 75.378 171.402C75.4433 171.351 75.5133 171.325 75.588 171.325C75.7 171.325 75.7793 171.381 75.826 171.493L76.785 174.076L77.772 171.514C77.8 171.454 77.8373 171.407 77.884 171.374C77.9353 171.342 77.989 171.325 78.045 171.325C78.1057 171.325 78.1593 171.342 78.206 171.374C78.2573 171.407 78.2947 171.454 78.318 171.514L79.305 174.069L80.271 171.5ZM82.8745 174.846C82.5525 174.846 82.2679 174.774 82.0205 174.629C81.7779 174.485 81.5889 174.279 81.4535 174.013C81.3229 173.743 81.2575 173.43 81.2575 173.075C81.2575 172.721 81.3229 172.41 81.4535 172.144C81.5889 171.874 81.7779 171.666 82.0205 171.521C82.2679 171.377 82.5525 171.304 82.8745 171.304C83.1965 171.304 83.4812 171.377 83.7285 171.521C83.9759 171.666 84.1649 171.874 84.2955 172.144C84.4309 172.41 84.4985 172.721 84.4985 173.075C84.4985 173.43 84.4309 173.743 84.2955 174.013C84.1649 174.279 83.9759 174.485 83.7285 174.629C83.4812 174.774 83.1965 174.846 82.8745 174.846ZM82.8745 174.377C83.2105 174.377 83.4672 174.268 83.6445 174.048C83.8265 173.824 83.9175 173.5 83.9175 173.075C83.9175 172.66 83.8265 172.34 83.6445 172.116C83.4625 171.888 83.2059 171.773 82.8745 171.773C82.5432 171.773 82.2865 171.888 82.1045 172.116C81.9225 172.34 81.8315 172.66 81.8315 173.075C81.8315 173.495 81.9202 173.817 82.0975 174.041C82.2795 174.265 82.5385 174.377 82.8745 174.377ZM87.0304 171.318C87.2264 171.304 87.3244 171.384 87.3244 171.556C87.3244 171.631 87.3034 171.692 87.2614 171.738C87.2194 171.78 87.147 171.806 87.0444 171.815L86.8344 171.836C86.5217 171.864 86.2884 171.976 86.1344 172.172C85.985 172.364 85.9104 172.59 85.9104 172.851V174.552C85.9104 174.646 85.8847 174.716 85.8334 174.762C85.782 174.809 85.7144 174.832 85.6304 174.832C85.5464 174.832 85.4764 174.809 85.4204 174.762C85.369 174.711 85.3434 174.641 85.3434 174.552V171.598C85.3434 171.51 85.3714 171.442 85.4274 171.395C85.4834 171.344 85.551 171.318 85.6304 171.318C85.705 171.318 85.768 171.344 85.8194 171.395C85.8707 171.442 85.8964 171.507 85.8964 171.591V171.983C85.9944 171.778 86.132 171.622 86.3094 171.514C86.4914 171.407 86.699 171.344 86.9324 171.325L87.0304 171.318ZM90.4798 169.827C90.5684 169.827 90.6384 169.853 90.6898 169.904C90.7411 169.956 90.7668 170.021 90.7668 170.1V174.552C90.7668 174.636 90.7411 174.704 90.6898 174.755C90.6384 174.807 90.5684 174.832 90.4798 174.832C90.3911 174.832 90.3211 174.807 90.2698 174.755C90.2231 174.704 90.1998 174.636 90.1998 174.552V174.174C90.0971 174.389 89.9454 174.555 89.7448 174.671C89.5488 174.788 89.3178 174.846 89.0518 174.846C88.7531 174.846 88.4894 174.772 88.2608 174.622C88.0321 174.473 87.8548 174.265 87.7288 173.999C87.6028 173.729 87.5398 173.416 87.5398 173.061C87.5398 172.711 87.6028 172.403 87.7288 172.137C87.8548 171.871 88.0321 171.666 88.2608 171.521C88.4894 171.377 88.7531 171.304 89.0518 171.304C89.3178 171.304 89.5488 171.363 89.7448 171.479C89.9454 171.596 90.0971 171.762 90.1998 171.976V170.1C90.1998 170.016 90.2231 169.951 90.2698 169.904C90.3211 169.853 90.3911 169.827 90.4798 169.827ZM89.1638 174.377C89.4951 174.377 89.7494 174.265 89.9268 174.041C90.1088 173.813 90.1998 173.491 90.1998 173.075C90.1998 172.66 90.1088 172.34 89.9268 172.116C89.7494 171.892 89.4951 171.78 89.1638 171.78C88.8324 171.78 88.5734 171.892 88.3868 172.116C88.2048 172.34 88.1138 172.655 88.1138 173.061C88.1138 173.477 88.2048 173.801 88.3868 174.034C88.5734 174.263 88.8324 174.377 89.1638 174.377Z" fill="black"/>
<path d="M47.4262 225.354C47.3102 225.354 47.2202 225.322 47.1562 225.258C47.0922 225.194 47.0602 225.106 47.0602 224.994V221.478C47.0602 221.362 47.0942 221.27 47.1622 221.202C47.2342 221.13 47.3282 221.094 47.4442 221.094C47.5642 221.094 47.6582 221.13 47.7262 221.202C47.7982 221.27 47.8342 221.362 47.8342 221.478V224.718H49.5202C49.7602 224.718 49.8802 224.824 49.8802 225.036C49.8802 225.248 49.7602 225.354 49.5202 225.354H47.4262ZM51.6428 225.402C51.3428 225.402 51.0788 225.34 50.8508 225.216C50.6268 225.092 50.4528 224.914 50.3288 224.682C50.2048 224.45 50.1428 224.18 50.1428 223.872C50.1428 223.564 50.2048 223.296 50.3288 223.068C50.4528 222.836 50.6268 222.658 50.8508 222.534C51.0788 222.41 51.3428 222.348 51.6428 222.348C51.9428 222.348 52.2048 222.41 52.4288 222.534C52.6568 222.658 52.8308 222.836 52.9508 223.068C53.0748 223.296 53.1368 223.564 53.1368 223.872C53.1368 224.18 53.0748 224.45 52.9508 224.682C52.8308 224.914 52.6568 225.092 52.4288 225.216C52.2048 225.34 51.9428 225.402 51.6428 225.402ZM51.6368 224.82C51.8808 224.82 52.0668 224.74 52.1948 224.58C52.3228 224.42 52.3868 224.184 52.3868 223.872C52.3868 223.564 52.3228 223.33 52.1948 223.17C52.0668 223.006 51.8828 222.924 51.6428 222.924C51.4028 222.924 51.2168 223.006 51.0848 223.17C50.9568 223.33 50.8928 223.564 50.8928 223.872C50.8928 224.184 50.9568 224.42 51.0848 224.58C51.2128 224.74 51.3968 224.82 51.6368 224.82ZM56.24 222.36C56.352 222.36 56.442 222.392 56.51 222.456C56.578 222.52 56.612 222.606 56.612 222.714V225.084C56.612 225.544 56.484 225.892 56.228 226.128C55.972 226.364 55.594 226.482 55.094 226.482C54.658 226.482 54.294 226.4 54.002 226.236C53.854 226.148 53.78 226.042 53.78 225.918C53.78 225.83 53.8 225.76 53.84 225.708C53.884 225.656 53.94 225.63 54.008 225.63C54.044 225.63 54.088 225.638 54.14 225.654C54.192 225.674 54.246 225.696 54.302 225.72C54.446 225.78 54.574 225.826 54.686 225.858C54.802 225.89 54.934 225.906 55.082 225.906C55.606 225.906 55.868 225.65 55.868 225.138V224.754C55.78 224.918 55.652 225.046 55.484 225.138C55.316 225.226 55.124 225.27 54.908 225.27C54.652 225.27 54.424 225.21 54.224 225.09C54.028 224.966 53.874 224.794 53.762 224.574C53.65 224.354 53.594 224.1 53.594 223.812C53.594 223.524 53.648 223.27 53.756 223.05C53.868 222.826 54.024 222.654 54.224 222.534C54.424 222.41 54.652 222.348 54.908 222.348C55.124 222.348 55.316 222.394 55.484 222.486C55.652 222.574 55.78 222.7 55.868 222.864V222.708C55.868 222.604 55.902 222.52 55.97 222.456C56.038 222.392 56.128 222.36 56.24 222.36ZM55.106 224.688C55.346 224.688 55.532 224.61 55.664 224.454C55.8 224.298 55.868 224.084 55.868 223.812C55.868 223.536 55.8 223.32 55.664 223.164C55.532 223.008 55.346 222.93 55.106 222.93C54.87 222.93 54.684 223.008 54.548 223.164C54.412 223.32 54.344 223.536 54.344 223.812C54.344 224.084 54.412 224.298 54.548 224.454C54.684 224.61 54.87 224.688 55.106 224.688ZM57.8388 225.39C57.7228 225.39 57.6288 225.354 57.5568 225.282C57.4888 225.21 57.4548 225.116 57.4548 225V221.478C57.4548 221.362 57.4888 221.27 57.5568 221.202C57.6288 221.13 57.7228 221.094 57.8388 221.094C57.9588 221.094 58.0528 221.13 58.1208 221.202C58.1928 221.27 58.2288 221.362 58.2288 221.478V225C58.2288 225.116 58.1928 225.21 58.1208 225.282C58.0528 225.354 57.9588 225.39 57.8388 225.39ZM60.7803 222.348C61.1323 222.348 61.3943 222.448 61.5663 222.648C61.7383 222.848 61.8243 223.15 61.8243 223.554V225.03C61.8243 225.142 61.7903 225.23 61.7223 225.294C61.6583 225.358 61.5683 225.39 61.4523 225.39C61.3363 225.39 61.2443 225.358 61.1763 225.294C61.1083 225.23 61.0743 225.142 61.0743 225.03V223.596C61.0743 223.368 61.0303 223.202 60.9423 223.098C60.8583 222.994 60.7243 222.942 60.5403 222.942C60.3243 222.942 60.1503 223.01 60.0183 223.146C59.8903 223.282 59.8263 223.464 59.8263 223.692V225.03C59.8263 225.142 59.7923 225.23 59.7243 225.294C59.6563 225.358 59.5643 225.39 59.4483 225.39C59.3323 225.39 59.2403 225.358 59.1723 225.294C59.1083 225.23 59.0763 225.142 59.0763 225.03V222.708C59.0763 222.604 59.1103 222.52 59.1783 222.456C59.2463 222.392 59.3383 222.36 59.4543 222.36C59.5583 222.36 59.6423 222.392 59.7063 222.456C59.7743 222.516 59.8083 222.596 59.8083 222.696V222.858C59.9083 222.694 60.0423 222.568 60.2103 222.48C60.3783 222.392 60.5683 222.348 60.7803 222.348Z" fill="white"/>
<path d="M44.7302 153.314C44.6435 153.267 44.5935 153.2 44.5802 153.114C44.5735 153.027 44.6002 152.934 44.6602 152.834L45.3602 151.734L45.4702 151.894L44.1602 151.944C44.0402 151.944 43.9435 151.92 43.8702 151.874C43.8035 151.82 43.7702 151.744 43.7702 151.644C43.7702 151.55 43.8035 151.48 43.8702 151.434C43.9435 151.38 44.0402 151.357 44.1602 151.364L45.4702 151.414L45.3602 151.564L44.6702 150.454C44.6035 150.354 44.5769 150.26 44.5902 150.174C44.6035 150.087 44.6502 150.02 44.7302 149.974C44.8102 149.927 44.8902 149.924 44.9702 149.964C45.0569 150.004 45.1269 150.077 45.1802 150.184L45.7502 151.284H45.6502L46.2202 150.184C46.2802 150.077 46.3502 150.004 46.4302 149.964C46.5169 149.924 46.6002 149.927 46.6802 149.974C46.7602 150.027 46.8035 150.097 46.8102 150.184C46.8235 150.27 46.7969 150.364 46.7302 150.464L46.0402 151.564L45.9302 151.414L47.2402 151.364C47.3602 151.357 47.4535 151.38 47.5202 151.434C47.5935 151.48 47.6302 151.55 47.6302 151.644C47.6302 151.744 47.5935 151.82 47.5202 151.874C47.4535 151.92 47.3602 151.944 47.2402 151.944L45.9302 151.894L46.0402 151.734L46.7302 152.834C46.7969 152.934 46.8235 153.027 46.8102 153.114C46.8035 153.194 46.7602 153.257 46.6802 153.304C46.5935 153.357 46.5069 153.364 46.4202 153.324C46.3402 153.284 46.2735 153.214 46.2202 153.114L45.6502 152.014H45.7502L45.1702 153.114C45.1169 153.22 45.0502 153.294 44.9702 153.334C44.8902 153.374 44.8102 153.367 44.7302 153.314ZM52.5321 153.314C52.4455 153.267 52.3955 153.2 52.3821 153.114C52.3755 153.027 52.4021 152.934 52.4621 152.834L53.1621 151.734L53.2721 151.894L51.9621 151.944C51.8421 151.944 51.7455 151.92 51.6721 151.874C51.6055 151.82 51.5721 151.744 51.5721 151.644C51.5721 151.55 51.6055 151.48 51.6721 151.434C51.7455 151.38 51.8421 151.357 51.9621 151.364L53.2721 151.414L53.1621 151.564L52.4721 150.454C52.4055 150.354 52.3788 150.26 52.3921 150.174C52.4055 150.087 52.4521 150.02 52.5321 149.974C52.6121 149.927 52.6921 149.924 52.7721 149.964C52.8588 150.004 52.9288 150.077 52.9821 150.184L53.5521 151.284H53.4521L54.0221 150.184C54.0821 150.077 54.1521 150.004 54.2321 149.964C54.3188 149.924 54.4021 149.927 54.4821 149.974C54.5621 150.027 54.6055 150.097 54.6121 150.184C54.6255 150.27 54.5988 150.364 54.5321 150.464L53.8421 151.564L53.7321 151.414L55.0421 151.364C55.1621 151.357 55.2555 151.38 55.3221 151.434C55.3955 151.48 55.4321 151.55 55.4321 151.644C55.4321 151.744 55.3955 151.82 55.3221 151.874C55.2555 151.92 55.1621 151.944 55.0421 151.944L53.7321 151.894L53.8421 151.734L54.5321 152.834C54.5988 152.934 54.6255 153.027 54.6121 153.114C54.6055 153.194 54.5621 153.257 54.4821 153.304C54.3955 153.357 54.3088 153.364 54.2221 153.324C54.1421 153.284 54.0755 153.214 54.0221 153.114L53.4521 152.014H53.5521L52.9721 153.114C52.9188 153.22 52.8521 153.294 52.7721 153.334C52.6921 153.374 52.6121 153.367 52.5321 153.314ZM60.3341 153.314C60.2474 153.267 60.1974 153.2 60.1841 153.114C60.1774 153.027 60.2041 152.934 60.2641 152.834L60.9641 151.734L61.0741 151.894L59.7641 151.944C59.6441 151.944 59.5474 151.92 59.4741 151.874C59.4074 151.82 59.3741 151.744 59.3741 151.644C59.3741 151.55 59.4074 151.48 59.4741 151.434C59.5474 151.38 59.6441 151.357 59.7641 151.364L61.0741 151.414L60.9641 151.564L60.2741 150.454C60.2074 150.354 60.1808 150.26 60.1941 150.174C60.2074 150.087 60.2541 150.02 60.3341 149.974C60.4141 149.927 60.4941 149.924 60.5741 149.964C60.6608 150.004 60.7308 150.077 60.7841 150.184L61.3541 151.284H61.2541L61.8241 150.184C61.8841 150.077 61.9541 150.004 62.0341 149.964C62.1208 149.924 62.2041 149.927 62.2841 149.974C62.3641 150.027 62.4074 150.097 62.4141 150.184C62.4274 150.27 62.4008 150.364 62.3341 150.464L61.6441 151.564L61.5341 151.414L62.8441 151.364C62.9641 151.357 63.0574 151.38 63.1241 151.434C63.1974 151.48 63.2341 151.55 63.2341 151.644C63.2341 151.744 63.1974 151.82 63.1241 151.874C63.0574 151.92 62.9641 151.944 62.8441 151.944L61.5341 151.894L61.6441 151.734L62.3341 152.834C62.4008 152.934 62.4274 153.027 62.4141 153.114C62.4074 153.194 62.3641 153.257 62.2841 153.304C62.1974 153.357 62.1108 153.364 62.0241 153.324C61.9441 153.284 61.8774 153.214 61.8241 153.114L61.2541 152.014H61.3541L60.7741 153.114C60.7208 153.22 60.6541 153.294 60.5741 153.334C60.4941 153.374 60.4141 153.367 60.3341 153.314ZM68.1361 153.314C68.0494 153.267 67.9994 153.2 67.9861 153.114C67.9794 153.027 68.0061 152.934 68.0661 152.834L68.7661 151.734L68.8761 151.894L67.5661 151.944C67.4461 151.944 67.3494 151.92 67.2761 151.874C67.2094 151.82 67.1761 151.744 67.1761 151.644C67.1761 151.55 67.2094 151.48 67.2761 151.434C67.3494 151.38 67.4461 151.357 67.5661 151.364L68.8761 151.414L68.7661 151.564L68.0761 150.454C68.0094 150.354 67.9827 150.26 67.9961 150.174C68.0094 150.087 68.0561 150.02 68.1361 149.974C68.2161 149.927 68.2961 149.924 68.3761 149.964C68.4627 150.004 68.5327 150.077 68.5861 150.184L69.1561 151.284H69.0561L69.6261 150.184C69.6861 150.077 69.7561 150.004 69.8361 149.964C69.9227 149.924 70.0061 149.927 70.0861 149.974C70.1661 150.027 70.2094 150.097 70.2161 150.184C70.2294 150.27 70.2027 150.364 70.1361 150.464L69.4461 151.564L69.3361 151.414L70.6461 151.364C70.7661 151.357 70.8594 151.38 70.9261 151.434C70.9994 151.48 71.0361 151.55 71.0361 151.644C71.0361 151.744 70.9994 151.82 70.9261 151.874C70.8594 151.92 70.7661 151.944 70.6461 151.944L69.3361 151.894L69.4461 151.734L70.1361 152.834C70.2027 152.934 70.2294 153.027 70.2161 153.114C70.2094 153.194 70.1661 153.257 70.0861 153.304C69.9994 153.357 69.9127 153.364 69.8261 153.324C69.7461 153.284 69.6794 153.214 69.6261 153.114L69.0561 152.014H69.1561L68.5761 153.114C68.5227 153.22 68.4561 153.294 68.3761 153.334C68.2961 153.374 68.2161 153.367 68.1361 153.314ZM75.938 153.314C75.8513 153.267 75.8013 153.2 75.788 153.114C75.7813 153.027 75.808 152.934 75.868 152.834L76.568 151.734L76.678 151.894L75.368 151.944C75.248 151.944 75.1513 151.92 75.078 151.874C75.0113 151.82 74.978 151.744 74.978 151.644C74.978 151.55 75.0113 151.48 75.078 151.434C75.1513 151.38 75.248 151.357 75.368 151.364L76.678 151.414L76.568 151.564L75.878 150.454C75.8113 150.354 75.7847 150.26 75.798 150.174C75.8113 150.087 75.858 150.02 75.938 149.974C76.018 149.927 76.098 149.924 76.178 149.964C76.2647 150.004 76.3347 150.077 76.388 150.184L76.958 151.284H76.858L77.428 150.184C77.488 150.077 77.558 150.004 77.638 149.964C77.7247 149.924 77.808 149.927 77.888 149.974C77.968 150.027 78.0113 150.097 78.018 150.184C78.0313 150.27 78.0047 150.364 77.938 150.464L77.248 151.564L77.138 151.414L78.448 151.364C78.568 151.357 78.6613 151.38 78.728 151.434C78.8013 151.48 78.838 151.55 78.838 151.644C78.838 151.744 78.8013 151.82 78.728 151.874C78.6613 151.92 78.568 151.944 78.448 151.944L77.138 151.894L77.248 151.734L77.938 152.834C78.0047 152.934 78.0313 153.027 78.018 153.114C78.0113 153.194 77.968 153.257 77.888 153.304C77.8013 153.357 77.7147 153.364 77.628 153.324C77.548 153.284 77.4813 153.214 77.428 153.114L76.858 152.014H76.958L76.378 153.114C76.3247 153.22 76.258 153.294 76.178 153.334C76.098 153.374 76.018 153.367 75.938 153.314ZM83.74 153.314C83.6533 153.267 83.6033 153.2 83.59 153.114C83.5833 153.027 83.61 152.934 83.67 152.834L84.37 151.734L84.48 151.894L83.17 151.944C83.05 151.944 82.9533 151.92 82.88 151.874C82.8133 151.82 82.78 151.744 82.78 151.644C82.78 151.55 82.8133 151.48 82.88 151.434C82.9533 151.38 83.05 151.357 83.17 151.364L84.48 151.414L84.37 151.564L83.68 150.454C83.6133 150.354 83.5866 150.26 83.6 150.174C83.6133 150.087 83.66 150.02 83.74 149.974C83.82 149.927 83.9 149.924 83.98 149.964C84.0666 150.004 84.1366 150.077 84.19 150.184L84.76 151.284H84.66L85.23 150.184C85.29 150.077 85.36 150.004 85.44 149.964C85.5266 149.924 85.61 149.927 85.69 149.974C85.77 150.027 85.8133 150.097 85.82 150.184C85.8333 150.27 85.8066 150.364 85.74 150.464L85.05 151.564L84.94 151.414L86.25 151.364C86.37 151.357 86.4633 151.38 86.53 151.434C86.6033 151.48 86.64 151.55 86.64 151.644C86.64 151.744 86.6033 151.82 86.53 151.874C86.4633 151.92 86.37 151.944 86.25 151.944L84.94 151.894L85.05 151.734L85.74 152.834C85.8066 152.934 85.8333 153.027 85.82 153.114C85.8133 153.194 85.77 153.257 85.69 153.304C85.6033 153.357 85.5166 153.364 85.43 153.324C85.35 153.284 85.2833 153.214 85.23 153.114L84.66 152.014H84.76L84.18 153.114C84.1266 153.22 84.06 153.294 83.98 153.334C83.9 153.374 83.82 153.367 83.74 153.314ZM91.5419 153.314C91.4552 153.267 91.4052 153.2 91.3919 153.114C91.3852 153.027 91.4119 152.934 91.4719 152.834L92.1719 151.734L92.2819 151.894L90.9719 151.944C90.8519 151.944 90.7552 151.92 90.6819 151.874C90.6152 151.82 90.5819 151.744 90.5819 151.644C90.5819 151.55 90.6152 151.48 90.6819 151.434C90.7552 151.38 90.8519 151.357 90.9719 151.364L92.2819 151.414L92.1719 151.564L91.4819 150.454C91.4152 150.354 91.3886 150.26 91.4019 150.174C91.4152 150.087 91.4619 150.02 91.5419 149.974C91.6219 149.927 91.7019 149.924 91.7819 149.964C91.8686 150.004 91.9386 150.077 91.9919 150.184L92.5619 151.284H92.4619L93.0319 150.184C93.0919 150.077 93.1619 150.004 93.2419 149.964C93.3286 149.924 93.4119 149.927 93.4919 149.974C93.5719 150.027 93.6152 150.097 93.6219 150.184C93.6352 150.27 93.6086 150.364 93.5419 150.464L92.8519 151.564L92.7419 151.414L94.0519 151.364C94.1719 151.357 94.2652 151.38 94.3319 151.434C94.4052 151.48 94.4419 151.55 94.4419 151.644C94.4419 151.744 94.4052 151.82 94.3319 151.874C94.2652 151.92 94.1719 151.944 94.0519 151.944L92.7419 151.894L92.8519 151.734L93.5419 152.834C93.6086 152.934 93.6352 153.027 93.6219 153.114C93.6152 153.194 93.5719 153.257 93.4919 153.304C93.4052 153.357 93.3186 153.364 93.2319 153.324C93.1519 153.284 93.0852 153.214 93.0319 153.114L92.4619 152.014H92.5619L91.9819 153.114C91.9286 153.22 91.8619 153.294 91.7819 153.334C91.7019 153.374 91.6219 153.367 91.5419 153.314ZM99.3439 153.314C99.2572 153.267 99.2072 153.2 99.1939 153.114C99.1872 153.027 99.2139 152.934 99.2739 152.834L99.9739 151.734L100.084 151.894L98.7739 151.944C98.6539 151.944 98.5572 151.92 98.4839 151.874C98.4172 151.82 98.3839 151.744 98.3839 151.644C98.3839 151.55 98.4172 151.48 98.4839 151.434C98.5572 151.38 98.6539 151.357 98.7739 151.364L100.084 151.414L99.9739 151.564L99.2839 150.454C99.2172 150.354 99.1905 150.26 99.2039 150.174C99.2172 150.087 99.2639 150.02 99.3439 149.974C99.4239 149.927 99.5039 149.924 99.5839 149.964C99.6705 150.004 99.7405 150.077 99.7939 150.184L100.364 151.284H100.264L100.834 150.184C100.894 150.077 100.964 150.004 101.044 149.964C101.131 149.924 101.214 149.927 101.294 149.974C101.374 150.027 101.417 150.097 101.424 150.184C101.437 150.27 101.411 150.364 101.344 150.464L100.654 151.564L100.544 151.414L101.854 151.364C101.974 151.357 102.067 151.38 102.134 151.434C102.207 151.48 102.244 151.55 102.244 151.644C102.244 151.744 102.207 151.82 102.134 151.874C102.067 151.92 101.974 151.944 101.854 151.944L100.544 151.894L100.654 151.734L101.344 152.834C101.411 152.934 101.437 153.027 101.424 153.114C101.417 153.194 101.374 153.257 101.294 153.304C101.207 153.357 101.121 153.364 101.034 153.324C100.954 153.284 100.887 153.214 100.834 153.114L100.264 152.014H100.364L99.7839 153.114C99.7305 153.22 99.6639 153.294 99.5839 153.334C99.5039 153.374 99.4239 153.367 99.3439 153.314ZM107.146 153.314C107.059 153.267 107.009 153.2 106.996 153.114C106.989 153.027 107.016 152.934 107.076 152.834L107.776 151.734L107.886 151.894L106.576 151.944C106.456 151.944 106.359 151.92 106.286 151.874C106.219 151.82 106.186 151.744 106.186 151.644C106.186 151.55 106.219 151.48 106.286 151.434C106.359 151.38 106.456 151.357 106.576 151.364L107.886 151.414L107.776 151.564L107.086 150.454C107.019 150.354 106.992 150.26 107.006 150.174C107.019 150.087 107.066 150.02 107.146 149.974C107.226 149.927 107.306 149.924 107.386 149.964C107.472 150.004 107.542 150.077 107.596 150.184L108.166 151.284H108.066L108.636 150.184C108.696 150.077 108.766 150.004 108.846 149.964C108.932 149.924 109.016 149.927 109.096 149.974C109.176 150.027 109.219 150.097 109.226 150.184C109.239 150.27 109.212 150.364 109.146 150.464L108.456 151.564L108.346 151.414L109.656 151.364C109.776 151.357 109.869 151.38 109.936 151.434C110.009 151.48 110.046 151.55 110.046 151.644C110.046 151.744 110.009 151.82 109.936 151.874C109.869 151.92 109.776 151.944 109.656 151.944L108.346 151.894L108.456 151.734L109.146 152.834C109.212 152.934 109.239 153.027 109.226 153.114C109.219 153.194 109.176 153.257 109.096 153.304C109.009 153.357 108.922 153.364 108.836 153.324C108.756 153.284 108.689 153.214 108.636 153.114L108.066 152.014H108.166L107.586 153.114C107.532 153.22 107.466 153.294 107.386 153.334C107.306 153.374 107.226 153.367 107.146 153.314ZM114.948 153.314C114.861 153.267 114.811 153.2 114.798 153.114C114.791 153.027 114.818 152.934 114.878 152.834L115.578 151.734L115.688 151.894L114.378 151.944C114.258 151.944 114.161 151.92 114.088 151.874C114.021 151.82 113.988 151.744 113.988 151.644C113.988 151.55 114.021 151.48 114.088 151.434C114.161 151.38 114.258 151.357 114.378 151.364L115.688 151.414L115.578 151.564L114.888 150.454C114.821 150.354 114.794 150.26 114.808 150.174C114.821 150.087 114.868 150.02 114.948 149.974C115.028 149.927 115.108 149.924 115.188 149.964C115.274 150.004 115.344 150.077 115.398 150.184L115.968 151.284H115.868L116.438 150.184C116.498 150.077 116.568 150.004 116.648 149.964C116.734 149.924 116.818 149.927 116.898 149.974C116.978 150.027 117.021 150.097 117.028 150.184C117.041 150.27 117.014 150.364 116.948 150.464L116.258 151.564L116.148 151.414L117.458 151.364C117.578 151.357 117.671 151.38 117.738 151.434C117.811 151.48 117.848 151.55 117.848 151.644C117.848 151.744 117.811 151.82 117.738 151.874C117.671 151.92 117.578 151.944 117.458 151.944L116.148 151.894L116.258 151.734L116.948 152.834C117.014 152.934 117.041 153.027 117.028 153.114C117.021 153.194 116.978 153.257 116.898 153.304C116.811 153.357 116.724 153.364 116.638 153.324C116.558 153.284 116.491 153.214 116.438 153.114L115.868 152.014H115.968L115.388 153.114C115.334 153.22 115.268 153.294 115.188 153.334C115.108 153.374 115.028 153.367 114.948 153.314Z" fill="url(#paint1_linear_2_2962)"/>
<path d="M44.7302 194.921C44.6435 194.875 44.5935 194.808 44.5802 194.721C44.5735 194.635 44.6002 194.541 44.6602 194.441L45.3602 193.341L45.4702 193.501L44.1602 193.551C44.0402 193.551 43.9435 193.528 43.8702 193.481C43.8035 193.428 43.7702 193.351 43.7702 193.251C43.7702 193.158 43.8035 193.088 43.8702 193.041C43.9435 192.988 44.0402 192.965 44.1602 192.971L45.4702 193.021L45.3602 193.171L44.6702 192.061C44.6035 191.961 44.5769 191.868 44.5902 191.781C44.6035 191.695 44.6502 191.628 44.7302 191.581C44.8102 191.535 44.8902 191.531 44.9702 191.571C45.0569 191.611 45.1269 191.685 45.1802 191.791L45.7502 192.891H45.6502L46.2202 191.791C46.2802 191.685 46.3502 191.611 46.4302 191.571C46.5169 191.531 46.6002 191.535 46.6802 191.581C46.7602 191.635 46.8035 191.705 46.8102 191.791C46.8235 191.878 46.7969 191.971 46.7302 192.071L46.0402 193.171L45.9302 193.021L47.2402 192.971C47.3602 192.965 47.4535 192.988 47.5202 193.041C47.5935 193.088 47.6302 193.158 47.6302 193.251C47.6302 193.351 47.5935 193.428 47.5202 193.481C47.4535 193.528 47.3602 193.551 47.2402 193.551L45.9302 193.501L46.0402 193.341L46.7302 194.441C46.7969 194.541 46.8235 194.635 46.8102 194.721C46.8035 194.801 46.7602 194.865 46.6802 194.911C46.5935 194.965 46.5069 194.971 46.4202 194.931C46.3402 194.891 46.2735 194.821 46.2202 194.721L45.6502 193.621H45.7502L45.1702 194.721C45.1169 194.828 45.0502 194.901 44.9702 194.941C44.8902 194.981 44.8102 194.975 44.7302 194.921ZM52.5321 194.921C52.4455 194.875 52.3955 194.808 52.3821 194.721C52.3755 194.635 52.4021 194.541 52.4621 194.441L53.1621 193.341L53.2721 193.501L51.9621 193.551C51.8421 193.551 51.7455 193.528 51.6721 193.481C51.6055 193.428 51.5721 193.351 51.5721 193.251C51.5721 193.158 51.6055 193.088 51.6721 193.041C51.7455 192.988 51.8421 192.965 51.9621 192.971L53.2721 193.021L53.1621 193.171L52.4721 192.061C52.4055 191.961 52.3788 191.868 52.3921 191.781C52.4055 191.695 52.4521 191.628 52.5321 191.581C52.6121 191.535 52.6921 191.531 52.7721 191.571C52.8588 191.611 52.9288 191.685 52.9821 191.791L53.5521 192.891H53.4521L54.0221 191.791C54.0821 191.685 54.1521 191.611 54.2321 191.571C54.3188 191.531 54.4021 191.535 54.4821 191.581C54.5621 191.635 54.6055 191.705 54.6121 191.791C54.6255 191.878 54.5988 191.971 54.5321 192.071L53.8421 193.171L53.7321 193.021L55.0421 192.971C55.1621 192.965 55.2555 192.988 55.3221 193.041C55.3955 193.088 55.4321 193.158 55.4321 193.251C55.4321 193.351 55.3955 193.428 55.3221 193.481C55.2555 193.528 55.1621 193.551 55.0421 193.551L53.7321 193.501L53.8421 193.341L54.5321 194.441C54.5988 194.541 54.6255 194.635 54.6121 194.721C54.6055 194.801 54.5621 194.865 54.4821 194.911C54.3955 194.965 54.3088 194.971 54.2221 194.931C54.1421 194.891 54.0755 194.821 54.0221 194.721L53.4521 193.621H53.5521L52.9721 194.721C52.9188 194.828 52.8521 194.901 52.7721 194.941C52.6921 194.981 52.6121 194.975 52.5321 194.921ZM60.3341 194.921C60.2474 194.875 60.1974 194.808 60.1841 194.721C60.1774 194.635 60.2041 194.541 60.2641 194.441L60.9641 193.341L61.0741 193.501L59.7641 193.551C59.6441 193.551 59.5474 193.528 59.4741 193.481C59.4074 193.428 59.3741 193.351 59.3741 193.251C59.3741 193.158 59.4074 193.088 59.4741 193.041C59.5474 192.988 59.6441 192.965 59.7641 192.971L61.0741 193.021L60.9641 193.171L60.2741 192.061C60.2074 191.961 60.1808 191.868 60.1941 191.781C60.2074 191.695 60.2541 191.628 60.3341 191.581C60.4141 191.535 60.4941 191.531 60.5741 191.571C60.6608 191.611 60.7308 191.685 60.7841 191.791L61.3541 192.891H61.2541L61.8241 191.791C61.8841 191.685 61.9541 191.611 62.0341 191.571C62.1208 191.531 62.2041 191.535 62.2841 191.581C62.3641 191.635 62.4074 191.705 62.4141 191.791C62.4274 191.878 62.4008 191.971 62.3341 192.071L61.6441 193.171L61.5341 193.021L62.8441 192.971C62.9641 192.965 63.0574 192.988 63.1241 193.041C63.1974 193.088 63.2341 193.158 63.2341 193.251C63.2341 193.351 63.1974 193.428 63.1241 193.481C63.0574 193.528 62.9641 193.551 62.8441 193.551L61.5341 193.501L61.6441 193.341L62.3341 194.441C62.4008 194.541 62.4274 194.635 62.4141 194.721C62.4074 194.801 62.3641 194.865 62.2841 194.911C62.1974 194.965 62.1108 194.971 62.0241 194.931C61.9441 194.891 61.8774 194.821 61.8241 194.721L61.2541 193.621H61.3541L60.7741 194.721C60.7208 194.828 60.6541 194.901 60.5741 194.941C60.4941 194.981 60.4141 194.975 60.3341 194.921ZM68.1361 194.921C68.0494 194.875 67.9994 194.808 67.9861 194.721C67.9794 194.635 68.0061 194.541 68.0661 194.441L68.7661 193.341L68.8761 193.501L67.5661 193.551C67.4461 193.551 67.3494 193.528 67.2761 193.481C67.2094 193.428 67.1761 193.351 67.1761 193.251C67.1761 193.158 67.2094 193.088 67.2761 193.041C67.3494 192.988 67.4461 192.965 67.5661 192.971L68.8761 193.021L68.7661 193.171L68.0761 192.061C68.0094 191.961 67.9827 191.868 67.9961 191.781C68.0094 191.695 68.0561 191.628 68.1361 191.581C68.2161 191.535 68.2961 191.531 68.3761 191.571C68.4627 191.611 68.5327 191.685 68.5861 191.791L69.1561 192.891H69.0561L69.6261 191.791C69.6861 191.685 69.7561 191.611 69.8361 191.571C69.9227 191.531 70.0061 191.535 70.0861 191.581C70.1661 191.635 70.2094 191.705 70.2161 191.791C70.2294 191.878 70.2027 191.971 70.1361 192.071L69.4461 193.171L69.3361 193.021L70.6461 192.971C70.7661 192.965 70.8594 192.988 70.9261 193.041C70.9994 193.088 71.0361 193.158 71.0361 193.251C71.0361 193.351 70.9994 193.428 70.9261 193.481C70.8594 193.528 70.7661 193.551 70.6461 193.551L69.3361 193.501L69.4461 193.341L70.1361 194.441C70.2027 194.541 70.2294 194.635 70.2161 194.721C70.2094 194.801 70.1661 194.865 70.0861 194.911C69.9994 194.965 69.9127 194.971 69.8261 194.931C69.7461 194.891 69.6794 194.821 69.6261 194.721L69.0561 193.621H69.1561L68.5761 194.721C68.5227 194.828 68.4561 194.901 68.3761 194.941C68.2961 194.981 68.2161 194.975 68.1361 194.921ZM75.938 194.921C75.8513 194.875 75.8013 194.808 75.788 194.721C75.7813 194.635 75.808 194.541 75.868 194.441L76.568 193.341L76.678 193.501L75.368 193.551C75.248 193.551 75.1513 193.528 75.078 193.481C75.0113 193.428 74.978 193.351 74.978 193.251C74.978 193.158 75.0113 193.088 75.078 193.041C75.1513 192.988 75.248 192.965 75.368 192.971L76.678 193.021L76.568 193.171L75.878 192.061C75.8113 191.961 75.7847 191.868 75.798 191.781C75.8113 191.695 75.858 191.628 75.938 191.581C76.018 191.535 76.098 191.531 76.178 191.571C76.2647 191.611 76.3347 191.685 76.388 191.791L76.958 192.891H76.858L77.428 191.791C77.488 191.685 77.558 191.611 77.638 191.571C77.7247 191.531 77.808 191.535 77.888 191.581C77.968 191.635 78.0113 191.705 78.018 191.791C78.0313 191.878 78.0047 191.971 77.938 192.071L77.248 193.171L77.138 193.021L78.448 192.971C78.568 192.965 78.6613 192.988 78.728 193.041C78.8013 193.088 78.838 193.158 78.838 193.251C78.838 193.351 78.8013 193.428 78.728 193.481C78.6613 193.528 78.568 193.551 78.448 193.551L77.138 193.501L77.248 193.341L77.938 194.441C78.0047 194.541 78.0313 194.635 78.018 194.721C78.0113 194.801 77.968 194.865 77.888 194.911C77.8013 194.965 77.7147 194.971 77.628 194.931C77.548 194.891 77.4813 194.821 77.428 194.721L76.858 193.621H76.958L76.378 194.721C76.3247 194.828 76.258 194.901 76.178 194.941C76.098 194.981 76.018 194.975 75.938 194.921ZM83.74 194.921C83.6533 194.875 83.6033 194.808 83.59 194.721C83.5833 194.635 83.61 194.541 83.67 194.441L84.37 193.341L84.48 193.501L83.17 193.551C83.05 193.551 82.9533 193.528 82.88 193.481C82.8133 193.428 82.78 193.351 82.78 193.251C82.78 193.158 82.8133 193.088 82.88 193.041C82.9533 192.988 83.05 192.965 83.17 192.971L84.48 193.021L84.37 193.171L83.68 192.061C83.6133 191.961 83.5866 191.868 83.6 191.781C83.6133 191.695 83.66 191.628 83.74 191.581C83.82 191.535 83.9 191.531 83.98 191.571C84.0666 191.611 84.1366 191.685 84.19 191.791L84.76 192.891H84.66L85.23 191.791C85.29 191.685 85.36 191.611 85.44 191.571C85.5266 191.531 85.61 191.535 85.69 191.581C85.77 191.635 85.8133 191.705 85.82 191.791C85.8333 191.878 85.8066 191.971 85.74 192.071L85.05 193.171L84.94 193.021L86.25 192.971C86.37 192.965 86.4633 192.988 86.53 193.041C86.6033 193.088 86.64 193.158 86.64 193.251C86.64 193.351 86.6033 193.428 86.53 193.481C86.4633 193.528 86.37 193.551 86.25 193.551L84.94 193.501L85.05 193.341L85.74 194.441C85.8066 194.541 85.8333 194.635 85.82 194.721C85.8133 194.801 85.77 194.865 85.69 194.911C85.6033 194.965 85.5166 194.971 85.43 194.931C85.35 194.891 85.2833 194.821 85.23 194.721L84.66 193.621H84.76L84.18 194.721C84.1266 194.828 84.06 194.901 83.98 194.941C83.9 194.981 83.82 194.975 83.74 194.921ZM91.5419 194.921C91.4552 194.875 91.4052 194.808 91.3919 194.721C91.3852 194.635 91.4119 194.541 91.4719 194.441L92.1719 193.341L92.2819 193.501L90.9719 193.551C90.8519 193.551 90.7552 193.528 90.6819 193.481C90.6152 193.428 90.5819 193.351 90.5819 193.251C90.5819 193.158 90.6152 193.088 90.6819 193.041C90.7552 192.988 90.8519 192.965 90.9719 192.971L92.2819 193.021L92.1719 193.171L91.4819 192.061C91.4152 191.961 91.3886 191.868 91.4019 191.781C91.4152 191.695 91.4619 191.628 91.5419 191.581C91.6219 191.535 91.7019 191.531 91.7819 191.571C91.8686 191.611 91.9386 191.685 91.9919 191.791L92.5619 192.891H92.4619L93.0319 191.791C93.0919 191.685 93.1619 191.611 93.2419 191.571C93.3286 191.531 93.4119 191.535 93.4919 191.581C93.5719 191.635 93.6152 191.705 93.6219 191.791C93.6352 191.878 93.6086 191.971 93.5419 192.071L92.8519 193.171L92.7419 193.021L94.0519 192.971C94.1719 192.965 94.2652 192.988 94.3319 193.041C94.4052 193.088 94.4419 193.158 94.4419 193.251C94.4419 193.351 94.4052 193.428 94.3319 193.481C94.2652 193.528 94.1719 193.551 94.0519 193.551L92.7419 193.501L92.8519 193.341L93.5419 194.441C93.6086 194.541 93.6352 194.635 93.6219 194.721C93.6152 194.801 93.5719 194.865 93.4919 194.911C93.4052 194.965 93.3186 194.971 93.2319 194.931C93.1519 194.891 93.0852 194.821 93.0319 194.721L92.4619 193.621H92.5619L91.9819 194.721C91.9286 194.828 91.8619 194.901 91.7819 194.941C91.7019 194.981 91.6219 194.975 91.5419 194.921ZM99.3439 194.921C99.2572 194.875 99.2072 194.808 99.1939 194.721C99.1872 194.635 99.2139 194.541 99.2739 194.441L99.9739 193.341L100.084 193.501L98.7739 193.551C98.6539 193.551 98.5572 193.528 98.4839 193.481C98.4172 193.428 98.3839 193.351 98.3839 193.251C98.3839 193.158 98.4172 193.088 98.4839 193.041C98.5572 192.988 98.6539 192.965 98.7739 192.971L100.084 193.021L99.9739 193.171L99.2839 192.061C99.2172 191.961 99.1905 191.868 99.2039 191.781C99.2172 191.695 99.2639 191.628 99.3439 191.581C99.4239 191.535 99.5039 191.531 99.5839 191.571C99.6705 191.611 99.7405 191.685 99.7939 191.791L100.364 192.891H100.264L100.834 191.791C100.894 191.685 100.964 191.611 101.044 191.571C101.131 191.531 101.214 191.535 101.294 191.581C101.374 191.635 101.417 191.705 101.424 191.791C101.437 191.878 101.411 191.971 101.344 192.071L100.654 193.171L100.544 193.021L101.854 192.971C101.974 192.965 102.067 192.988 102.134 193.041C102.207 193.088 102.244 193.158 102.244 193.251C102.244 193.351 102.207 193.428 102.134 193.481C102.067 193.528 101.974 193.551 101.854 193.551L100.544 193.501L100.654 193.341L101.344 194.441C101.411 194.541 101.437 194.635 101.424 194.721C101.417 194.801 101.374 194.865 101.294 194.911C101.207 194.965 101.121 194.971 101.034 194.931C100.954 194.891 100.887 194.821 100.834 194.721L100.264 193.621H100.364L99.7839 194.721C99.7305 194.828 99.6639 194.901 99.5839 194.941C99.5039 194.981 99.4239 194.975 99.3439 194.921ZM107.146 194.921C107.059 194.875 107.009 194.808 106.996 194.721C106.989 194.635 107.016 194.541 107.076 194.441L107.776 193.341L107.886 193.501L106.576 193.551C106.456 193.551 106.359 193.528 106.286 193.481C106.219 193.428 106.186 193.351 106.186 193.251C106.186 193.158 106.219 193.088 106.286 193.041C106.359 192.988 106.456 192.965 106.576 192.971L107.886 193.021L107.776 193.171L107.086 192.061C107.019 191.961 106.992 191.868 107.006 191.781C107.019 191.695 107.066 191.628 107.146 191.581C107.226 191.535 107.306 191.531 107.386 191.571C107.472 191.611 107.542 191.685 107.596 191.791L108.166 192.891H108.066L108.636 191.791C108.696 191.685 108.766 191.611 108.846 191.571C108.932 191.531 109.016 191.535 109.096 191.581C109.176 191.635 109.219 191.705 109.226 191.791C109.239 191.878 109.212 191.971 109.146 192.071L108.456 193.171L108.346 193.021L109.656 192.971C109.776 192.965 109.869 192.988 109.936 193.041C110.009 193.088 110.046 193.158 110.046 193.251C110.046 193.351 110.009 193.428 109.936 193.481C109.869 193.528 109.776 193.551 109.656 193.551L108.346 193.501L108.456 193.341L109.146 194.441C109.212 194.541 109.239 194.635 109.226 194.721C109.219 194.801 109.176 194.865 109.096 194.911C109.009 194.965 108.922 194.971 108.836 194.931C108.756 194.891 108.689 194.821 108.636 194.721L108.066 193.621H108.166L107.586 194.721C107.532 194.828 107.466 194.901 107.386 194.941C107.306 194.981 107.226 194.975 107.146 194.921ZM114.948 194.921C114.861 194.875 114.811 194.808 114.798 194.721C114.791 194.635 114.818 194.541 114.878 194.441L115.578 193.341L115.688 193.501L114.378 193.551C114.258 193.551 114.161 193.528 114.088 193.481C114.021 193.428 113.988 193.351 113.988 193.251C113.988 193.158 114.021 193.088 114.088 193.041C114.161 192.988 114.258 192.965 114.378 192.971L115.688 193.021L115.578 193.171L114.888 192.061C114.821 191.961 114.794 191.868 114.808 191.781C114.821 191.695 114.868 191.628 114.948 191.581C115.028 191.535 115.108 191.531 115.188 191.571C115.274 191.611 115.344 191.685 115.398 191.791L115.968 192.891H115.868L116.438 191.791C116.498 191.685 116.568 191.611 116.648 191.571C116.734 191.531 116.818 191.535 116.898 191.581C116.978 191.635 117.021 191.705 117.028 191.791C117.041 191.878 117.014 191.971 116.948 192.071L116.258 193.171L116.148 193.021L117.458 192.971C117.578 192.965 117.671 192.988 117.738 193.041C117.811 193.088 117.848 193.158 117.848 193.251C117.848 193.351 117.811 193.428 117.738 193.481C117.671 193.528 117.578 193.551 117.458 193.551L116.148 193.501L116.258 193.341L116.948 194.441C117.014 194.541 117.041 194.635 117.028 194.721C117.021 194.801 116.978 194.865 116.898 194.911C116.811 194.965 116.724 194.971 116.638 194.931C116.558 194.891 116.491 194.821 116.438 194.721L115.868 193.621H115.968L115.388 194.721C115.334 194.828 115.268 194.901 115.188 194.941C115.108 194.981 115.028 194.975 114.948 194.921Z" fill="url(#paint2_linear_2_2962)"/>
<g filter="url(#filter1_d_2_2962)">
<rect x="174.844" y="68.2532" width="227.748" height="33.9431" rx="5" fill="url(#paint3_linear_2_2962)"/>
</g>
<rect x="269.009" y="82.4873" width="16.4241" height="4.37976" rx="2.18988" fill="white"/>
<rect x="289.812" y="82.4873" width="15.3292" height="4.37976" rx="2.18988" fill="white"/>
<rect x="187.983" y="78.1074" width="13.1393" height="13.1393" rx="5" fill="#7660FC"/>
<rect x="309.521" y="82.4873" width="16.4241" height="4.37976" rx="2.18988" fill="white"/>
<rect x="330.325" y="82.4873" width="16.4241" height="4.37976" rx="2.18988" fill="white"/>
<rect x="351.129" y="82.4873" width="16.4241" height="4.37976" rx="2.18988" fill="white"/>
<rect x="386.167" y="83.5823" width="4.37976" height="2.18988" rx="1.09494" fill="white"/>
<defs>
<filter id="filter0_d_2_2962" x="0.0771484" y="99.9556" width="209.525" height="176.678" filterUnits="userSpaceOnUse" color-interpolation-filters="sRGB">
<feFlood flood-opacity="0" result="BackgroundImageFix"/>
<feColorMatrix in="SourceAlpha" type="matrix" values="0 0 0 0 0 0 0 0 0 0 0 0 0 0 0 0 0 0 127 0" result="hardAlpha"/>
<feOffset dx="5" dy="10"/>
<feGaussianBlur stdDeviation="10.5"/>
<feComposite in2="hardAlpha" operator="out"/>
<feColorMatrix type="matrix" values="0 0 0 0 0.700272 0 0 0 0 0.700272 0 0 0 0 0.700272 0 0 0 0.25 0"/>
<feBlend mode="normal" in2="BackgroundImageFix" result="effect1_dropShadow_2_2962"/>
<feBlend mode="normal" in="SourceGraphic" in2="effect1_dropShadow_2_2962" result="shape"/>
</filter>
<filter id="filter1_d_2_2962" x="173.844" y="68.2532" width="241.747" height="47.9431" filterUnits="userSpaceOnUse" color-interpolation-filters="sRGB">
<feFlood flood-opacity="0" result="BackgroundImageFix"/>
<feColorMatrix in="SourceAlpha" type="matrix" values="0 0 0 0 0 0 0 0 0 0 0 0 0 0 0 0 0 0 127 0" result="hardAlpha"/>
<feOffset dx="6" dy="7"/>
<feGaussianBlur stdDeviation="3.5"/>
<feComposite in2="hardAlpha" operator="out"/>
<feColorMatrix type="matrix" values="0 0 0 0 0.500272 0 0 0 0 0.500272 0 0 0 0 0.500272 0 0 0 0.25 0"/>
<feBlend mode="normal" in2="BackgroundImageFix" result="effect1_dropShadow_2_2962"/>
<feBlend mode="normal" in="SourceGraphic" in2="effect1_dropShadow_2_2962" result="shape"/>
</filter>
<linearGradient id="paint0_linear_2_2962" x1="54.3996" y1="213.88" x2="54.3996" y2="233.589" gradientUnits="userSpaceOnUse">
<stop stop-color="#00A3E3"/>
<stop offset="1" stop-color="#9FCD10"/>
</linearGradient>
<linearGradient id="paint1_linear_2_2962" x1="84.5104" y1="145.994" x2="84.5104" y2="163.513" gradientUnits="userSpaceOnUse">
<stop stop-color="#00A3E3"/>
<stop offset="1" stop-color="#9FCD10"/>
</linearGradient>
<linearGradient id="paint2_linear_2_2962" x1="84.5104" y1="187.601" x2="84.5104" y2="205.12" gradientUnits="userSpaceOnUse">
<stop stop-color="#00A3E3"/>
<stop offset="1" stop-color="#9FCD10"/>
</linearGradient>
<linearGradient id="paint3_linear_2_2962" x1="288.718" y1="68.2532" x2="288.718" y2="102.196" gradientUnits="userSpaceOnUse">
<stop stop-color="#00A3E3"/>
<stop offset="1" stop-color="#9FCD10"/>
</linearGradient>
</defs>
</svg>
