<svg width="386" height="287" viewBox="0 0 386 287" fill="none" xmlns="http://www.w3.org/2000/svg">
<rect x="60.6934" y="48.2256" width="257.407" height="188.992" stroke="#C6C6C6" stroke-width="2" stroke-linejoin="round" stroke-dasharray="3 3"/>
<rect x="0.333984" y="0.665527" width="268.26" height="202.564" fill="#F1F1F1"/>
<rect x="6.90332" y="30.2288" width="255.121" height="168.621" fill="white"/>
<rect x="27.707" y="52.1282" width="211.323" height="122.633" rx="8" fill="#F1F1F1"/>
<rect x="244.506" y="13.8047" width="16.4241" height="4.37976" rx="2.18988" fill="#C4C4C4"/>
<rect x="43.54" y="90.9353" width="78.8672" height="4.75104" rx="2.37552" fill="white"/>
<rect x="43.54" y="138.446" width="78.8672" height="4.75104" rx="2.37552" fill="white"/>
<rect x="138.561" y="90.9353" width="78.8672" height="4.75104" rx="2.37552" fill="url(#paint0_linear_2_3012)"/>
<rect x="43.54" y="83.3337" width="78.8672" height="4.75104" rx="2.37552" fill="white"/>
<rect x="43.54" y="130.844" width="78.8672" height="4.75104" rx="2.37552" fill="#FFB422"/>
<rect x="138.561" y="83.3337" width="78.8672" height="4.75104" rx="2.37552" fill="white"/>
<rect x="43.54" y="98.5369" width="78.8672" height="4.75104" rx="2.37552" fill="white"/>
<rect x="43.54" y="146.047" width="78.8672" height="4.75104" rx="2.37552" fill="#FFB422"/>
<rect x="138.561" y="98.5369" width="78.8672" height="4.75104" rx="2.37552" fill="white"/>
<rect x="43.54" y="106.139" width="44.6598" height="4.75104" rx="2.37552" fill="url(#paint1_linear_2_3012)"/>
<rect x="43.54" y="153.649" width="44.6598" height="4.75104" rx="2.37552" fill="white"/>
<rect x="138.561" y="106.139" width="44.6598" height="4.75104" rx="2.37552" fill="white"/>
<circle cx="9.64067" cy="15.4471" r="2.73735" fill="#C4C4C4"/>
<circle cx="17.3057" cy="15.4471" r="2.73735" fill="#C4C4C4"/>
<circle cx="24.9698" cy="15.4471" r="2.73735" fill="#C4C4C4"/>
<g filter="url(#filter0_d_2_3012)">
<rect x="160.416" y="120.392" width="198.883" height="134.678" rx="15" fill="white"/>
</g>
<line x1="202.024" y1="188.316" x2="321.001" y2="188.316" stroke="#F1F1F1"/>
<line x1="200.325" y1="211.299" x2="319.302" y2="211.299" stroke="#F1F1F1"/>
<line x1="200.325" y1="176.824" x2="319.302" y2="176.824" stroke="#F1F1F1"/>
<line x1="200.325" y1="199.808" x2="319.302" y2="199.808" stroke="#F1F1F1"/>
<line x1="200.325" y1="165.332" x2="319.302" y2="165.332" stroke="#F1F1F1"/>
<line x1="209.323" y1="154.341" x2="209.323" y2="218.263" stroke="#F1F1F1"/>
<line x1="250.115" y1="154.341" x2="250.115" y2="218.263" stroke="#F1F1F1"/>
<line x1="290.907" y1="154.341" x2="290.907" y2="218.263" stroke="#F1F1F1"/>
<line x1="222.921" y1="153.622" x2="222.921" y2="217.545" stroke="#F1F1F1"/>
<line x1="263.713" y1="153.622" x2="263.713" y2="217.545" stroke="#F1F1F1"/>
<line x1="304.505" y1="153.622" x2="304.505" y2="217.545" stroke="#F1F1F1"/>
<line x1="236.519" y1="153.622" x2="236.519" y2="217.545" stroke="#F1F1F1"/>
<line x1="277.311" y1="153.622" x2="277.311" y2="217.545" stroke="#F1F1F1"/>
<line x1="318.103" y1="153.622" x2="318.103" y2="217.545" stroke="#F1F1F1"/>
<rect x="185.121" y="155.55" width="5.70124" height="2.85062" rx="1.42531" fill="#E0DBFF"/>
<rect x="186.071" y="212.562" width="5.70124" height="2.85062" rx="1.42531" fill="#E0DBFF"/>
<rect x="185.121" y="184.056" width="5.70124" height="2.85062" rx="1.42531" fill="#E0DBFF"/>
<rect x="197.474" y="235.367" width="5.70124" height="2.85062" rx="1.42531" transform="rotate(-90 197.474 235.367)" fill="#E0DBFF"/>
<rect x="225.98" y="235.367" width="5.70124" height="2.85062" rx="1.42531" transform="rotate(-90 225.98 235.367)" fill="#E0DBFF"/>
<rect x="254.486" y="235.367" width="5.70124" height="2.85062" rx="1.42531" transform="rotate(-90 254.486 235.367)" fill="#E0DBFF"/>
<rect x="282.992" y="235.367" width="5.70124" height="2.85062" rx="1.42531" transform="rotate(-90 282.992 235.367)" fill="#E0DBFF"/>
<rect x="311.499" y="235.367" width="5.70124" height="2.85062" rx="1.42531" transform="rotate(-90 311.499 235.367)" fill="#E0DBFF"/>
<rect x="185.121" y="169.803" width="5.70124" height="2.85062" rx="1.42531" fill="#E0DBFF"/>
<rect x="186.071" y="226.815" width="5.70124" height="2.85062" rx="1.42531" fill="#E0DBFF"/>
<rect x="185.121" y="198.309" width="5.70124" height="2.85062" rx="1.42531" fill="#E0DBFF"/>
<rect x="211.727" y="235.367" width="5.70124" height="2.85062" rx="1.42531" transform="rotate(-90 211.727 235.367)" fill="#E0DBFF"/>
<rect x="240.233" y="235.367" width="5.70124" height="2.85062" rx="1.42531" transform="rotate(-90 240.233 235.367)" fill="#E0DBFF"/>
<rect x="268.739" y="235.367" width="5.70124" height="2.85062" rx="1.42531" transform="rotate(-90 268.739 235.367)" fill="#E0DBFF"/>
<rect x="297.245" y="235.367" width="5.70124" height="2.85062" rx="1.42531" transform="rotate(-90 297.245 235.367)" fill="#E0DBFF"/>
<rect x="325.752" y="235.367" width="5.70124" height="2.85062" rx="1.42531" transform="rotate(-90 325.752 235.367)" fill="#E0DBFF"/>
<path d="M263.844 194.983C230.002 182.837 207.745 206.837 200.08 221.598C199.741 222.25 200.223 223.014 200.958 223.014H320.952C321.504 223.014 321.952 222.566 321.952 222.014V157.579C321.952 156.39 319.92 156.107 319.533 157.23C312.339 178.141 294.461 205.971 263.844 194.983Z" fill="url(#paint2_linear_2_3012)"/>
<path d="M189.872 147.948V232.516H331.928" stroke="#E0DBFF" stroke-width="3"/>
<defs>
<filter id="filter0_d_2_3012" x="144.416" y="109.392" width="240.883" height="176.678" filterUnits="userSpaceOnUse" color-interpolation-filters="sRGB">
<feFlood flood-opacity="0" result="BackgroundImageFix"/>
<feColorMatrix in="SourceAlpha" type="matrix" values="0 0 0 0 0 0 0 0 0 0 0 0 0 0 0 0 0 0 127 0" result="hardAlpha"/>
<feOffset dx="5" dy="10"/>
<feGaussianBlur stdDeviation="10.5"/>
<feComposite in2="hardAlpha" operator="out"/>
<feColorMatrix type="matrix" values="0 0 0 0 0.700272 0 0 0 0 0.700272 0 0 0 0 0.700272 0 0 0 0.25 0"/>
<feBlend mode="normal" in2="BackgroundImageFix" result="effect1_dropShadow_2_3012"/>
<feBlend mode="normal" in="SourceGraphic" in2="effect1_dropShadow_2_3012" result="shape"/>
</filter>
<linearGradient id="paint0_linear_2_3012" x1="177.994" y1="90.9353" x2="177.994" y2="95.6863" gradientUnits="userSpaceOnUse">
<stop stop-color="#00A3E3"/>
<stop offset="1" stop-color="#9FCD10"/>
</linearGradient>
<linearGradient id="paint1_linear_2_3012" x1="65.8699" y1="106.139" x2="65.8699" y2="110.89" gradientUnits="userSpaceOnUse">
<stop stop-color="#00A3E3"/>
<stop offset="1" stop-color="#9FCD10"/>
</linearGradient>
<linearGradient id="paint2_linear_2_3012" x1="260.663" y1="148.898" x2="260.663" y2="223.014" gradientUnits="userSpaceOnUse">
<stop stop-color="#00A3E3"/>
<stop offset="1" stop-color="#9FCD10"/>
</linearGradient>
</defs>
</svg>
