<svg width="697" height="559" viewBox="0 0 697 559" fill="none" xmlns="http://www.w3.org/2000/svg">
<path d="M93.5312 50C93.5312 22.3858 115.917 0 143.531 0H646.531C674.145 0 696.531 22.3858 696.531 50V400C696.531 427.614 674.146 450 646.531 450H143.531C115.917 450 93.5312 427.614 93.5312 400V50Z" fill="white"/>
<path d="M113.531 50C113.531 33.4315 126.963 20 143.531 20H647.531C664.1 20 677.531 33.4315 677.531 50V400C677.531 416.569 664.1 430 647.531 430H143.531C126.963 430 113.531 416.569 113.531 400V50Z" fill="#F7F7F7"/>
<path d="M520.85 401.33C519.89 401.33 518.88 401.22 517.82 401C516.76 400.78 515.78 400.44 514.88 399.98C514.34 399.7 513.96 399.34 513.74 398.9C513.54 398.44 513.47 397.98 513.53 397.52C513.61 397.06 513.79 396.65 514.07 396.29C514.37 395.93 514.74 395.7 515.18 395.6C515.64 395.48 516.14 395.56 516.68 395.84C517.34 396.16 518.02 396.4 518.72 396.56C519.44 396.72 520.11 396.8 520.73 396.8C521.41 396.8 521.99 396.7 522.47 396.5C522.95 396.3 523.31 396.01 523.55 395.63C523.81 395.25 523.94 394.8 523.94 394.28C523.94 393.48 523.67 392.85 523.13 392.39C522.59 391.93 521.87 391.7 520.97 391.7C520.57 391.7 520.13 391.76 519.65 391.88C519.19 392 518.71 392.23 518.21 392.57C517.99 392.69 517.69 392.83 517.31 392.99C516.93 393.13 516.54 393.2 516.14 393.2C515.42 393.2 514.89 393.03 514.55 392.69C514.21 392.35 514.04 391.87 514.04 391.25V382.19C514.04 381.43 514.24 380.85 514.64 380.45C515.06 380.05 515.64 379.85 516.38 379.85H525.8C526.54 379.85 527.11 380.04 527.51 380.42C527.91 380.8 528.11 381.36 528.11 382.1C528.11 382.82 527.91 383.37 527.51 383.75C527.11 384.13 526.54 384.32 525.8 384.32H519.23V389.03H517.97C518.45 388.47 519.08 388.05 519.86 387.77C520.64 387.47 521.49 387.32 522.41 387.32C523.75 387.32 524.93 387.61 525.95 388.19C526.97 388.75 527.76 389.54 528.32 390.56C528.9 391.58 529.19 392.77 529.19 394.13C529.19 395.57 528.85 396.84 528.17 397.94C527.51 399.02 526.55 399.86 525.29 400.46C524.05 401.04 522.57 401.33 520.85 401.33ZM538.988 401.33C536.388 401.33 534.388 400.38 532.988 398.48C531.608 396.56 530.918 393.85 530.918 390.35C530.918 387.99 531.228 386.01 531.848 384.41C532.468 382.79 533.378 381.57 534.578 380.75C535.778 379.93 537.248 379.52 538.988 379.52C541.608 379.52 543.608 380.44 544.988 382.28C546.368 384.12 547.058 386.8 547.058 390.32C547.058 392.66 546.748 394.65 546.128 396.29C545.508 397.93 544.598 399.18 543.398 400.04C542.198 400.9 540.728 401.33 538.988 401.33ZM538.988 396.95C539.948 396.95 540.658 396.43 541.118 395.39C541.598 394.33 541.838 392.64 541.838 390.32C541.838 388.02 541.598 386.38 541.118 385.4C540.658 384.4 539.948 383.9 538.988 383.9C538.028 383.9 537.308 384.4 536.828 385.4C536.368 386.38 536.138 388.02 536.138 390.32C536.138 392.64 536.368 394.33 536.828 395.39C537.308 396.43 538.028 396.95 538.988 396.95ZM558.867 400.46C558.607 400.92 558.277 401.22 557.877 401.36C557.477 401.52 557.087 401.55 556.707 401.45C556.327 401.35 555.997 401.16 555.717 400.88C555.437 400.6 555.267 400.25 555.207 399.83C555.147 399.41 555.247 398.97 555.507 398.51L566.007 380.42C566.287 379.94 566.617 379.63 566.997 379.49C567.377 379.33 567.757 379.3 568.137 379.4C568.537 379.5 568.867 379.7 569.127 380C569.407 380.28 569.577 380.63 569.637 381.05C569.717 381.45 569.617 381.88 569.337 382.34L558.867 400.46ZM554.517 392.45C552.717 392.45 551.317 391.86 550.317 390.68C549.337 389.48 548.847 387.9 548.847 385.94C548.847 384.62 549.077 383.48 549.537 382.52C549.997 381.56 550.647 380.82 551.487 380.3C552.327 379.78 553.337 379.52 554.517 379.52C556.297 379.52 557.677 380.11 558.657 381.29C559.657 382.45 560.157 384 560.157 385.94C560.157 387.24 559.927 388.38 559.467 389.36C559.027 390.34 558.387 391.1 557.547 391.64C556.707 392.18 555.697 392.45 554.517 392.45ZM554.517 389.15C554.817 389.15 555.067 389.05 555.267 388.85C555.487 388.63 555.647 388.29 555.747 387.83C555.867 387.35 555.927 386.72 555.927 385.94C555.927 384.76 555.797 383.94 555.537 383.48C555.297 383.02 554.957 382.79 554.517 382.79C554.197 382.79 553.927 382.89 553.707 383.09C553.507 383.27 553.347 383.59 553.227 384.05C553.127 384.51 553.077 385.14 553.077 385.94C553.077 387.14 553.197 387.98 553.437 388.46C553.677 388.92 554.037 389.15 554.517 389.15ZM570.357 401.33C568.577 401.33 567.187 400.74 566.187 399.56C565.207 398.38 564.717 396.81 564.717 394.85C564.717 393.51 564.937 392.36 565.377 391.4C565.837 390.44 566.487 389.7 567.327 389.18C568.187 388.66 569.197 388.4 570.357 388.4C572.137 388.4 573.527 388.99 574.527 390.17C575.527 391.35 576.027 392.91 576.027 394.85C576.027 396.15 575.797 397.29 575.337 398.27C574.897 399.23 574.257 399.98 573.417 400.52C572.577 401.06 571.557 401.33 570.357 401.33ZM570.357 398.06C570.677 398.06 570.937 397.96 571.137 397.76C571.357 397.54 571.517 397.2 571.617 396.74C571.737 396.26 571.797 395.63 571.797 394.85C571.797 393.67 571.667 392.85 571.407 392.39C571.167 391.93 570.817 391.7 570.357 391.7C570.057 391.7 569.797 391.8 569.577 392C569.377 392.18 569.217 392.5 569.097 392.96C568.997 393.4 568.947 394.03 568.947 394.85C568.947 396.05 569.067 396.89 569.307 397.37C569.547 397.83 569.897 398.06 570.357 398.06Z" fill="#242331"/>
<path d="M515.2 353.06V363.78H523.8V366H512.54V353.06H515.2ZM531.1 366.24C529.847 366.24 528.74 366.04 527.78 365.64C526.833 365.24 526.093 364.66 525.56 363.9C525.027 363.127 524.76 362.18 524.76 361.06C524.76 359.94 525.027 358.993 525.56 358.22C526.093 357.433 526.833 356.84 527.78 356.44C528.74 356.04 529.847 355.84 531.1 355.84C532.353 355.84 533.447 356.04 534.38 356.44C535.327 356.84 536.067 357.433 536.6 358.22C537.133 358.993 537.4 359.94 537.4 361.06C537.4 362.18 537.133 363.127 536.6 363.9C536.067 364.66 535.327 365.24 534.38 365.64C533.447 366.04 532.353 366.24 531.1 366.24ZM531.1 364.24C531.793 364.24 532.413 364.12 532.96 363.88C533.52 363.627 533.96 363.267 534.28 362.8C534.6 362.32 534.76 361.74 534.76 361.06C534.76 360.38 534.6 359.8 534.28 359.32C533.96 358.827 533.527 358.453 532.98 358.2C532.433 357.947 531.807 357.82 531.1 357.82C530.407 357.82 529.78 357.947 529.22 358.2C528.66 358.453 528.213 358.82 527.88 359.3C527.56 359.78 527.4 360.367 527.4 361.06C527.4 361.74 527.56 362.32 527.88 362.8C528.2 363.267 528.64 363.627 529.2 363.88C529.76 364.12 530.393 364.24 531.1 364.24ZM539.022 356.06H541.622V366H539.022V356.06ZM545.442 358.2C544.695 358.2 544.049 358.347 543.502 358.64C542.955 358.92 542.515 359.267 542.182 359.68C541.849 360.093 541.615 360.493 541.482 360.88L541.462 359.78C541.475 359.62 541.529 359.387 541.622 359.08C541.715 358.76 541.855 358.42 542.042 358.06C542.229 357.687 542.475 357.333 542.782 357C543.089 356.653 543.462 356.373 543.902 356.16C544.342 355.947 544.855 355.84 545.442 355.84V358.2ZM555.809 362.7H558.329C558.223 363.38 557.936 363.987 557.469 364.52C557.016 365.053 556.396 365.473 555.609 365.78C554.823 366.087 553.863 366.24 552.729 366.24C551.463 366.24 550.343 366.04 549.369 365.64C548.396 365.227 547.636 364.633 547.089 363.86C546.543 363.087 546.269 362.153 546.269 361.06C546.269 359.967 546.536 359.033 547.069 358.26C547.603 357.473 548.343 356.873 549.289 356.46C550.249 356.047 551.369 355.84 552.649 355.84C553.956 355.84 555.043 356.047 555.909 356.46C556.776 356.873 557.416 357.5 557.829 358.34C558.256 359.167 558.436 360.227 558.369 361.52H548.889C548.956 362.027 549.143 362.487 549.449 362.9C549.769 363.313 550.196 363.64 550.729 363.88C551.276 364.12 551.923 364.24 552.669 364.24C553.496 364.24 554.183 364.1 554.729 363.82C555.289 363.527 555.649 363.153 555.809 362.7ZM552.529 357.82C551.569 357.82 550.789 358.033 550.189 358.46C549.589 358.873 549.203 359.387 549.029 360H555.789C555.723 359.333 555.403 358.807 554.829 358.42C554.269 358.02 553.503 357.82 552.529 357.82ZM560.004 356.06H562.604V366H560.004V356.06ZM567.224 355.84C567.837 355.84 568.404 355.92 568.924 356.08C569.444 356.24 569.897 356.487 570.284 356.82C570.671 357.153 570.971 357.58 571.184 358.1C571.397 358.607 571.504 359.213 571.504 359.92V366H568.904V360.38C568.904 359.54 568.697 358.927 568.284 358.54C567.884 358.14 567.224 357.94 566.304 357.94C565.611 357.94 564.984 358.073 564.424 358.34C563.864 358.607 563.411 358.947 563.064 359.36C562.717 359.76 562.517 360.18 562.464 360.62L562.444 359.6C562.511 359.133 562.664 358.68 562.904 358.24C563.144 357.8 563.464 357.4 563.864 357.04C564.277 356.667 564.764 356.373 565.324 356.16C565.884 355.947 566.517 355.84 567.224 355.84ZM575.884 355.84C576.497 355.84 577.064 355.92 577.584 356.08C578.104 356.24 578.557 356.487 578.944 356.82C579.331 357.153 579.631 357.58 579.844 358.1C580.071 358.607 580.184 359.213 580.184 359.92V366H577.584V360.38C577.584 359.54 577.377 358.927 576.964 358.54C576.551 358.14 575.884 357.94 574.964 357.94C574.271 357.94 573.644 358.073 573.084 358.34C572.524 358.607 572.071 358.947 571.724 359.36C571.377 359.76 571.184 360.18 571.144 360.62L571.104 359.54C571.171 359.1 571.331 358.66 571.584 358.22C571.837 357.78 572.171 357.38 572.584 357.02C572.997 356.66 573.477 356.373 574.024 356.16C574.584 355.947 575.204 355.84 575.884 355.84ZM589.747 351.7V353.98H586.727V351.7H589.747ZM586.927 356.06H589.527V366H586.927V356.06ZM599.059 366.24C598.179 366.24 597.425 366.087 596.799 365.78C596.185 365.46 595.685 365.047 595.299 364.54C594.912 364.02 594.625 363.453 594.439 362.84C594.252 362.227 594.159 361.627 594.159 361.04C594.159 360.307 594.245 359.627 594.419 359C594.605 358.373 594.892 357.827 595.279 357.36C595.665 356.88 596.165 356.507 596.779 356.24C597.405 355.973 598.165 355.84 599.059 355.84C600.059 355.84 600.959 356.06 601.759 356.5C602.559 356.94 603.192 357.553 603.659 358.34C604.139 359.113 604.379 360.013 604.379 361.04C604.379 362.093 604.139 363.013 603.659 363.8C603.179 364.573 602.539 365.173 601.739 365.6C600.939 366.027 600.045 366.24 599.059 366.24ZM598.219 364.22C598.925 364.22 599.539 364.087 600.059 363.82C600.592 363.553 600.999 363.187 601.279 362.72C601.572 362.24 601.719 361.68 601.719 361.04C601.719 360.08 601.412 359.307 600.799 358.72C600.199 358.133 599.339 357.84 598.219 357.84C597.512 357.84 596.865 357.967 596.279 358.22C595.705 358.473 595.252 358.84 594.919 359.32C594.585 359.787 594.419 360.36 594.419 361.04C594.419 361.68 594.572 362.24 594.879 362.72C595.185 363.187 595.625 363.553 596.199 363.82C596.772 364.087 597.445 364.22 598.219 364.22ZM591.819 356.06H594.299L594.419 358.7V370H591.819V356.06ZM605.591 362.7H607.991C608.138 363.153 608.438 363.527 608.891 363.82C609.358 364.1 609.965 364.24 610.711 364.24C611.218 364.24 611.611 364.193 611.891 364.1C612.171 364.007 612.365 363.873 612.471 363.7C612.578 363.513 612.631 363.307 612.631 363.08C612.631 362.8 612.545 362.587 612.371 362.44C612.198 362.28 611.931 362.153 611.571 362.06C611.211 361.967 610.751 361.88 610.191 361.8C609.631 361.707 609.091 361.593 608.571 361.46C608.051 361.327 607.591 361.153 607.191 360.94C606.791 360.713 606.471 360.433 606.231 360.1C606.005 359.753 605.891 359.333 605.891 358.84C605.891 358.36 606.005 357.933 606.231 357.56C606.471 357.187 606.798 356.873 607.211 356.62C607.638 356.367 608.131 356.173 608.691 356.04C609.265 355.907 609.878 355.84 610.531 355.84C611.518 355.84 612.338 355.987 612.991 356.28C613.645 356.56 614.131 356.96 614.451 357.48C614.785 357.987 614.951 358.573 614.951 359.24H612.651C612.545 358.747 612.331 358.393 612.011 358.18C611.691 357.953 611.198 357.84 610.531 357.84C609.878 357.84 609.385 357.94 609.051 358.14C608.718 358.34 608.551 358.613 608.551 358.96C608.551 359.24 608.651 359.46 608.851 359.62C609.065 359.767 609.371 359.887 609.771 359.98C610.185 360.073 610.698 360.173 611.311 360.28C611.831 360.387 612.325 360.507 612.791 360.64C613.271 360.773 613.698 360.947 614.071 361.16C614.445 361.36 614.738 361.633 614.951 361.98C615.178 362.313 615.291 362.74 615.291 363.26C615.291 363.9 615.105 364.44 614.731 364.88C614.371 365.32 613.851 365.66 613.171 365.9C612.491 366.127 611.678 366.24 610.731 366.24C609.891 366.24 609.165 366.153 608.551 365.98C607.951 365.793 607.451 365.56 607.051 365.28C606.651 364.987 606.338 364.68 606.111 364.36C605.898 364.027 605.751 363.713 605.671 363.42C605.591 363.127 605.565 362.887 605.591 362.7ZM628.48 366H625.88V356.06H628.48V366ZM626.02 361.22L626.04 361.9C626.014 362.087 625.947 362.36 625.84 362.72C625.734 363.067 625.567 363.44 625.34 363.84C625.127 364.24 624.847 364.627 624.5 365C624.154 365.36 623.727 365.66 623.22 365.9C622.714 366.127 622.114 366.24 621.42 366.24C620.874 366.24 620.334 366.173 619.8 366.04C619.28 365.907 618.807 365.687 618.38 365.38C617.954 365.06 617.614 364.633 617.36 364.1C617.107 363.567 616.98 362.893 616.98 362.08V356.06H619.58V361.64C619.58 362.28 619.68 362.787 619.88 363.16C620.094 363.52 620.4 363.773 620.8 363.92C621.2 364.067 621.674 364.14 622.22 364.14C622.94 364.14 623.56 363.987 624.08 363.68C624.6 363.36 625.02 362.973 625.34 362.52C625.674 362.067 625.9 361.633 626.02 361.22ZM630.548 356.06H633.148V366H630.548V356.06ZM637.768 355.84C638.381 355.84 638.948 355.92 639.468 356.08C639.988 356.24 640.441 356.487 640.828 356.82C641.214 357.153 641.514 357.58 641.728 358.1C641.941 358.607 642.048 359.213 642.048 359.92V366H639.448V360.38C639.448 359.54 639.241 358.927 638.828 358.54C638.428 358.14 637.768 357.94 636.848 357.94C636.154 357.94 635.528 358.073 634.968 358.34C634.408 358.607 633.954 358.947 633.608 359.36C633.261 359.76 633.061 360.18 633.008 360.62L632.988 359.6C633.054 359.133 633.208 358.68 633.448 358.24C633.688 357.8 634.008 357.4 634.408 357.04C634.821 356.667 635.308 356.373 635.868 356.16C636.428 355.947 637.061 355.84 637.768 355.84ZM646.428 355.84C647.041 355.84 647.608 355.92 648.128 356.08C648.648 356.24 649.101 356.487 649.488 356.82C649.874 357.153 650.174 357.58 650.388 358.1C650.614 358.607 650.728 359.213 650.728 359.92V366H648.128V360.38C648.128 359.54 647.921 358.927 647.508 358.54C647.094 358.14 646.428 357.94 645.508 357.94C644.814 357.94 644.188 358.073 643.628 358.34C643.068 358.607 642.614 358.947 642.268 359.36C641.921 359.76 641.728 360.18 641.688 360.62L641.648 359.54C641.714 359.1 641.874 358.66 642.128 358.22C642.381 357.78 642.714 357.38 643.128 357.02C643.541 356.66 644.021 356.373 644.568 356.16C645.128 355.947 645.748 355.84 646.428 355.84Z" fill="#BDBDBD"/>
<circle cx="492.531" cy="355" r="6" fill="white" stroke="#29F0A8" stroke-width="4"/>
<path d="M514.851 319C513.971 319 513.331 318.8 512.931 318.4C512.551 317.98 512.361 317.37 512.361 316.57C512.361 316.01 512.481 315.51 512.721 315.07C512.981 314.63 513.311 314.2 513.711 313.78L518.961 308.29C519.741 307.45 520.291 306.73 520.611 306.13C520.951 305.53 521.121 304.93 521.121 304.33C521.121 303.57 520.871 303 520.371 302.62C519.871 302.24 519.151 302.05 518.211 302.05C517.731 302.05 517.221 302.12 516.681 302.26C516.141 302.38 515.561 302.6 514.941 302.92C514.401 303.16 513.911 303.23 513.471 303.13C513.051 303.03 512.691 302.81 512.391 302.47C512.111 302.13 511.931 301.74 511.851 301.3C511.791 300.86 511.861 300.43 512.061 300.01C512.261 299.57 512.621 299.21 513.141 298.93C514.061 298.43 515.011 298.07 515.991 297.85C516.991 297.63 517.991 297.52 518.991 297.52C520.631 297.52 522.001 297.76 523.101 298.24C524.221 298.72 525.071 299.42 525.651 300.34C526.231 301.24 526.521 302.36 526.521 303.7C526.521 304.54 526.391 305.36 526.131 306.16C525.891 306.96 525.491 307.76 524.931 308.56C524.391 309.36 523.661 310.21 522.741 311.11L517.881 315.91V314.53H525.291C526.031 314.53 526.591 314.72 526.971 315.1C527.371 315.48 527.571 316.03 527.571 316.75C527.571 317.47 527.371 318.03 526.971 318.43C526.591 318.81 526.031 319 525.291 319H514.851ZM537.52 319.33C534.92 319.33 532.92 318.38 531.52 316.48C530.14 314.56 529.45 311.85 529.45 308.35C529.45 305.99 529.76 304.01 530.38 302.41C531 300.79 531.91 299.57 533.11 298.75C534.31 297.93 535.78 297.52 537.52 297.52C540.14 297.52 542.14 298.44 543.52 300.28C544.9 302.12 545.59 304.8 545.59 308.32C545.59 310.66 545.28 312.65 544.66 314.29C544.04 315.93 543.13 317.18 541.93 318.04C540.73 318.9 539.26 319.33 537.52 319.33ZM537.52 314.95C538.48 314.95 539.19 314.43 539.65 313.39C540.13 312.33 540.37 310.64 540.37 308.32C540.37 306.02 540.13 304.38 539.65 303.4C539.19 302.4 538.48 301.9 537.52 301.9C536.56 301.9 535.84 302.4 535.36 303.4C534.9 304.38 534.67 306.02 534.67 308.32C534.67 310.64 534.9 312.33 535.36 313.39C535.84 314.43 536.56 314.95 537.52 314.95ZM557.398 318.46C557.138 318.92 556.808 319.22 556.408 319.36C556.008 319.52 555.618 319.55 555.238 319.45C554.858 319.35 554.528 319.16 554.248 318.88C553.968 318.6 553.798 318.25 553.738 317.83C553.678 317.41 553.778 316.97 554.038 316.51L564.538 298.42C564.818 297.94 565.148 297.63 565.528 297.49C565.908 297.33 566.288 297.3 566.668 297.4C567.068 297.5 567.398 297.7 567.658 298C567.938 298.28 568.108 298.63 568.168 299.05C568.248 299.45 568.148 299.88 567.868 300.34L557.398 318.46ZM553.048 310.45C551.248 310.45 549.848 309.86 548.848 308.68C547.868 307.48 547.378 305.9 547.378 303.94C547.378 302.62 547.608 301.48 548.068 300.52C548.528 299.56 549.178 298.82 550.018 298.3C550.858 297.78 551.868 297.52 553.048 297.52C554.828 297.52 556.208 298.11 557.188 299.29C558.188 300.45 558.688 302 558.688 303.94C558.688 305.24 558.458 306.38 557.998 307.36C557.558 308.34 556.918 309.1 556.078 309.64C555.238 310.18 554.228 310.45 553.048 310.45ZM553.048 307.15C553.348 307.15 553.598 307.05 553.798 306.85C554.018 306.63 554.178 306.29 554.278 305.83C554.398 305.35 554.458 304.72 554.458 303.94C554.458 302.76 554.328 301.94 554.068 301.48C553.828 301.02 553.488 300.79 553.048 300.79C552.728 300.79 552.458 300.89 552.238 301.09C552.038 301.27 551.878 301.59 551.758 302.05C551.658 302.51 551.608 303.14 551.608 303.94C551.608 305.14 551.728 305.98 551.968 306.46C552.208 306.92 552.568 307.15 553.048 307.15ZM568.888 319.33C567.108 319.33 565.718 318.74 564.718 317.56C563.738 316.38 563.248 314.81 563.248 312.85C563.248 311.51 563.468 310.36 563.908 309.4C564.368 308.44 565.018 307.7 565.858 307.18C566.718 306.66 567.728 306.4 568.888 306.4C570.668 306.4 572.058 306.99 573.058 308.17C574.058 309.35 574.558 310.91 574.558 312.85C574.558 314.15 574.328 315.29 573.868 316.27C573.428 317.23 572.788 317.98 571.948 318.52C571.108 319.06 570.088 319.33 568.888 319.33ZM568.888 316.06C569.208 316.06 569.468 315.96 569.668 315.76C569.888 315.54 570.048 315.2 570.148 314.74C570.268 314.26 570.328 313.63 570.328 312.85C570.328 311.67 570.198 310.85 569.938 310.39C569.698 309.93 569.348 309.7 568.888 309.7C568.588 309.7 568.328 309.8 568.108 310C567.908 310.18 567.748 310.5 567.628 310.96C567.528 311.4 567.478 312.03 567.478 312.85C567.478 314.05 567.598 314.89 567.838 315.37C568.078 315.83 568.428 316.06 568.888 316.06Z" fill="#242331"/>
<path d="M515.731 271.06V281.78H524.331V284H513.071V271.06H515.731ZM531.631 284.24C530.378 284.24 529.271 284.04 528.311 283.64C527.364 283.24 526.624 282.66 526.091 281.9C525.558 281.127 525.291 280.18 525.291 279.06C525.291 277.94 525.558 276.993 526.091 276.22C526.624 275.433 527.364 274.84 528.311 274.44C529.271 274.04 530.378 273.84 531.631 273.84C532.884 273.84 533.978 274.04 534.911 274.44C535.858 274.84 536.598 275.433 537.131 276.22C537.664 276.993 537.931 277.94 537.931 279.06C537.931 280.18 537.664 281.127 537.131 281.9C536.598 282.66 535.858 283.24 534.911 283.64C533.978 284.04 532.884 284.24 531.631 284.24ZM531.631 282.24C532.324 282.24 532.944 282.12 533.491 281.88C534.051 281.627 534.491 281.267 534.811 280.8C535.131 280.32 535.291 279.74 535.291 279.06C535.291 278.38 535.131 277.8 534.811 277.32C534.491 276.827 534.058 276.453 533.511 276.2C532.964 275.947 532.338 275.82 531.631 275.82C530.938 275.82 530.311 275.947 529.751 276.2C529.191 276.453 528.744 276.82 528.411 277.3C528.091 277.78 527.931 278.367 527.931 279.06C527.931 279.74 528.091 280.32 528.411 280.8C528.731 281.267 529.171 281.627 529.731 281.88C530.291 282.12 530.924 282.24 531.631 282.24ZM539.553 274.06H542.153V284H539.553V274.06ZM545.973 276.2C545.226 276.2 544.58 276.347 544.033 276.64C543.486 276.92 543.046 277.267 542.713 277.68C542.38 278.093 542.146 278.493 542.013 278.88L541.993 277.78C542.006 277.62 542.06 277.387 542.153 277.08C542.246 276.76 542.386 276.42 542.573 276.06C542.76 275.687 543.006 275.333 543.313 275C543.62 274.653 543.993 274.373 544.433 274.16C544.873 273.947 545.386 273.84 545.973 273.84V276.2ZM556.34 280.7H558.86C558.754 281.38 558.467 281.987 558 282.52C557.547 283.053 556.927 283.473 556.14 283.78C555.354 284.087 554.394 284.24 553.26 284.24C551.994 284.24 550.874 284.04 549.9 283.64C548.927 283.227 548.167 282.633 547.62 281.86C547.074 281.087 546.8 280.153 546.8 279.06C546.8 277.967 547.067 277.033 547.6 276.26C548.134 275.473 548.874 274.873 549.82 274.46C550.78 274.047 551.9 273.84 553.18 273.84C554.487 273.84 555.574 274.047 556.44 274.46C557.307 274.873 557.947 275.5 558.36 276.34C558.787 277.167 558.967 278.227 558.9 279.52H549.42C549.487 280.027 549.674 280.487 549.98 280.9C550.3 281.313 550.727 281.64 551.26 281.88C551.807 282.12 552.454 282.24 553.2 282.24C554.027 282.24 554.714 282.1 555.26 281.82C555.82 281.527 556.18 281.153 556.34 280.7ZM553.06 275.82C552.1 275.82 551.32 276.033 550.72 276.46C550.12 276.873 549.734 277.387 549.56 278H556.32C556.254 277.333 555.934 276.807 555.36 276.42C554.8 276.02 554.034 275.82 553.06 275.82ZM560.535 274.06H563.135V284H560.535V274.06ZM567.755 273.84C568.368 273.84 568.935 273.92 569.455 274.08C569.975 274.24 570.428 274.487 570.815 274.82C571.202 275.153 571.502 275.58 571.715 276.1C571.928 276.607 572.035 277.213 572.035 277.92V284H569.435V278.38C569.435 277.54 569.228 276.927 568.815 276.54C568.415 276.14 567.755 275.94 566.835 275.94C566.142 275.94 565.515 276.073 564.955 276.34C564.395 276.607 563.942 276.947 563.595 277.36C563.248 277.76 563.048 278.18 562.995 278.62L562.975 277.6C563.042 277.133 563.195 276.68 563.435 276.24C563.675 275.8 563.995 275.4 564.395 275.04C564.808 274.667 565.295 274.373 565.855 274.16C566.415 273.947 567.048 273.84 567.755 273.84ZM576.415 273.84C577.028 273.84 577.595 273.92 578.115 274.08C578.635 274.24 579.088 274.487 579.475 274.82C579.862 275.153 580.162 275.58 580.375 276.1C580.602 276.607 580.715 277.213 580.715 277.92V284H578.115V278.38C578.115 277.54 577.908 276.927 577.495 276.54C577.082 276.14 576.415 275.94 575.495 275.94C574.802 275.94 574.175 276.073 573.615 276.34C573.055 276.607 572.602 276.947 572.255 277.36C571.908 277.76 571.715 278.18 571.675 278.62L571.635 277.54C571.702 277.1 571.862 276.66 572.115 276.22C572.368 275.78 572.702 275.38 573.115 275.02C573.528 274.66 574.008 274.373 574.555 274.16C575.115 273.947 575.735 273.84 576.415 273.84Z" fill="#BDBDBD"/>
<circle cx="492.531" cy="276" r="6" fill="white" stroke="#FF77E9" stroke-width="4"/>
<path d="M514.851 237C513.971 237 513.331 236.8 512.931 236.4C512.551 235.98 512.361 235.37 512.361 234.57C512.361 234.01 512.481 233.51 512.721 233.07C512.981 232.63 513.311 232.2 513.711 231.78L518.961 226.29C519.741 225.45 520.291 224.73 520.611 224.13C520.951 223.53 521.121 222.93 521.121 222.33C521.121 221.57 520.871 221 520.371 220.62C519.871 220.24 519.151 220.05 518.211 220.05C517.731 220.05 517.221 220.12 516.681 220.26C516.141 220.38 515.561 220.6 514.941 220.92C514.401 221.16 513.911 221.23 513.471 221.13C513.051 221.03 512.691 220.81 512.391 220.47C512.111 220.13 511.931 219.74 511.851 219.3C511.791 218.86 511.861 218.43 512.061 218.01C512.261 217.57 512.621 217.21 513.141 216.93C514.061 216.43 515.011 216.07 515.991 215.85C516.991 215.63 517.991 215.52 518.991 215.52C520.631 215.52 522.001 215.76 523.101 216.24C524.221 216.72 525.071 217.42 525.651 218.34C526.231 219.24 526.521 220.36 526.521 221.7C526.521 222.54 526.391 223.36 526.131 224.16C525.891 224.96 525.491 225.76 524.931 226.56C524.391 227.36 523.661 228.21 522.741 229.11L517.881 233.91V232.53H525.291C526.031 232.53 526.591 232.72 526.971 233.1C527.371 233.48 527.571 234.03 527.571 234.75C527.571 235.47 527.371 236.03 526.971 236.43C526.591 236.81 526.031 237 525.291 237H514.851ZM537.37 237.33C536.41 237.33 535.4 237.22 534.34 237C533.28 236.78 532.3 236.44 531.4 235.98C530.86 235.7 530.48 235.34 530.26 234.9C530.06 234.44 529.99 233.98 530.05 233.52C530.13 233.06 530.31 232.65 530.59 232.29C530.89 231.93 531.26 231.7 531.7 231.6C532.16 231.48 532.66 231.56 533.2 231.84C533.86 232.16 534.54 232.4 535.24 232.56C535.96 232.72 536.63 232.8 537.25 232.8C537.93 232.8 538.51 232.7 538.99 232.5C539.47 232.3 539.83 232.01 540.07 231.63C540.33 231.25 540.46 230.8 540.46 230.28C540.46 229.48 540.19 228.85 539.65 228.39C539.11 227.93 538.39 227.7 537.49 227.7C537.09 227.7 536.65 227.76 536.17 227.88C535.71 228 535.23 228.23 534.73 228.57C534.51 228.69 534.21 228.83 533.83 228.99C533.45 229.13 533.06 229.2 532.66 229.2C531.94 229.2 531.41 229.03 531.07 228.69C530.73 228.35 530.56 227.87 530.56 227.25V218.19C530.56 217.43 530.76 216.85 531.16 216.45C531.58 216.05 532.16 215.85 532.9 215.85H542.32C543.06 215.85 543.63 216.04 544.03 216.42C544.43 216.8 544.63 217.36 544.63 218.1C544.63 218.82 544.43 219.37 544.03 219.75C543.63 220.13 543.06 220.32 542.32 220.32H535.75V225.03H534.49C534.97 224.47 535.6 224.05 536.38 223.77C537.16 223.47 538.01 223.32 538.93 223.32C540.27 223.32 541.45 223.61 542.47 224.19C543.49 224.75 544.28 225.54 544.84 226.56C545.42 227.58 545.71 228.77 545.71 230.13C545.71 231.57 545.37 232.84 544.69 233.94C544.03 235.02 543.07 235.86 541.81 236.46C540.57 237.04 539.09 237.33 537.37 237.33ZM557.398 236.46C557.138 236.92 556.808 237.22 556.408 237.36C556.008 237.52 555.618 237.55 555.238 237.45C554.858 237.35 554.528 237.16 554.248 236.88C553.968 236.6 553.798 236.25 553.738 235.83C553.678 235.41 553.778 234.97 554.038 234.51L564.538 216.42C564.818 215.94 565.148 215.63 565.528 215.49C565.908 215.33 566.288 215.3 566.668 215.4C567.068 215.5 567.398 215.7 567.658 216C567.938 216.28 568.108 216.63 568.168 217.05C568.248 217.45 568.148 217.88 567.868 218.34L557.398 236.46ZM553.048 228.45C551.248 228.45 549.848 227.86 548.848 226.68C547.868 225.48 547.378 223.9 547.378 221.94C547.378 220.62 547.608 219.48 548.068 218.52C548.528 217.56 549.178 216.82 550.018 216.3C550.858 215.78 551.868 215.52 553.048 215.52C554.828 215.52 556.208 216.11 557.188 217.29C558.188 218.45 558.688 220 558.688 221.94C558.688 223.24 558.458 224.38 557.998 225.36C557.558 226.34 556.918 227.1 556.078 227.64C555.238 228.18 554.228 228.45 553.048 228.45ZM553.048 225.15C553.348 225.15 553.598 225.05 553.798 224.85C554.018 224.63 554.178 224.29 554.278 223.83C554.398 223.35 554.458 222.72 554.458 221.94C554.458 220.76 554.328 219.94 554.068 219.48C553.828 219.02 553.488 218.79 553.048 218.79C552.728 218.79 552.458 218.89 552.238 219.09C552.038 219.27 551.878 219.59 551.758 220.05C551.658 220.51 551.608 221.14 551.608 221.94C551.608 223.14 551.728 223.98 551.968 224.46C552.208 224.92 552.568 225.15 553.048 225.15ZM568.888 237.33C567.108 237.33 565.718 236.74 564.718 235.56C563.738 234.38 563.248 232.81 563.248 230.85C563.248 229.51 563.468 228.36 563.908 227.4C564.368 226.44 565.018 225.7 565.858 225.18C566.718 224.66 567.728 224.4 568.888 224.4C570.668 224.4 572.058 224.99 573.058 226.17C574.058 227.35 574.558 228.91 574.558 230.85C574.558 232.15 574.328 233.29 573.868 234.27C573.428 235.23 572.788 235.98 571.948 236.52C571.108 237.06 570.088 237.33 568.888 237.33ZM568.888 234.06C569.208 234.06 569.468 233.96 569.668 233.76C569.888 233.54 570.048 233.2 570.148 232.74C570.268 232.26 570.328 231.63 570.328 230.85C570.328 229.67 570.198 228.85 569.938 228.39C569.698 227.93 569.348 227.7 568.888 227.7C568.588 227.7 568.328 227.8 568.108 228C567.908 228.18 567.748 228.5 567.628 228.96C567.528 229.4 567.478 230.03 567.478 230.85C567.478 232.05 567.598 232.89 567.838 233.37C568.078 233.83 568.428 234.06 568.888 234.06Z" fill="#242331"/>
<path d="M515.731 189.06V199.78H524.331V202H513.071V189.06H515.731ZM531.631 202.24C530.378 202.24 529.271 202.04 528.311 201.64C527.364 201.24 526.624 200.66 526.091 199.9C525.558 199.127 525.291 198.18 525.291 197.06C525.291 195.94 525.558 194.993 526.091 194.22C526.624 193.433 527.364 192.84 528.311 192.44C529.271 192.04 530.378 191.84 531.631 191.84C532.884 191.84 533.978 192.04 534.911 192.44C535.858 192.84 536.598 193.433 537.131 194.22C537.664 194.993 537.931 195.94 537.931 197.06C537.931 198.18 537.664 199.127 537.131 199.9C536.598 200.66 535.858 201.24 534.911 201.64C533.978 202.04 532.884 202.24 531.631 202.24ZM531.631 200.24C532.324 200.24 532.944 200.12 533.491 199.88C534.051 199.627 534.491 199.267 534.811 198.8C535.131 198.32 535.291 197.74 535.291 197.06C535.291 196.38 535.131 195.8 534.811 195.32C534.491 194.827 534.058 194.453 533.511 194.2C532.964 193.947 532.338 193.82 531.631 193.82C530.938 193.82 530.311 193.947 529.751 194.2C529.191 194.453 528.744 194.82 528.411 195.3C528.091 195.78 527.931 196.367 527.931 197.06C527.931 197.74 528.091 198.32 528.411 198.8C528.731 199.267 529.171 199.627 529.731 199.88C530.291 200.12 530.924 200.24 531.631 200.24ZM539.553 192.06H542.153V202H539.553V192.06ZM545.973 194.2C545.226 194.2 544.58 194.347 544.033 194.64C543.486 194.92 543.046 195.267 542.713 195.68C542.38 196.093 542.146 196.493 542.013 196.88L541.993 195.78C542.006 195.62 542.06 195.387 542.153 195.08C542.246 194.76 542.386 194.42 542.573 194.06C542.76 193.687 543.006 193.333 543.313 193C543.62 192.653 543.993 192.373 544.433 192.16C544.873 191.947 545.386 191.84 545.973 191.84V194.2ZM556.34 198.7H558.86C558.754 199.38 558.467 199.987 558 200.52C557.547 201.053 556.927 201.473 556.14 201.78C555.354 202.087 554.394 202.24 553.26 202.24C551.994 202.24 550.874 202.04 549.9 201.64C548.927 201.227 548.167 200.633 547.62 199.86C547.074 199.087 546.8 198.153 546.8 197.06C546.8 195.967 547.067 195.033 547.6 194.26C548.134 193.473 548.874 192.873 549.82 192.46C550.78 192.047 551.9 191.84 553.18 191.84C554.487 191.84 555.574 192.047 556.44 192.46C557.307 192.873 557.947 193.5 558.36 194.34C558.787 195.167 558.967 196.227 558.9 197.52H549.42C549.487 198.027 549.674 198.487 549.98 198.9C550.3 199.313 550.727 199.64 551.26 199.88C551.807 200.12 552.454 200.24 553.2 200.24C554.027 200.24 554.714 200.1 555.26 199.82C555.82 199.527 556.18 199.153 556.34 198.7ZM553.06 193.82C552.1 193.82 551.32 194.033 550.72 194.46C550.12 194.873 549.734 195.387 549.56 196H556.32C556.254 195.333 555.934 194.807 555.36 194.42C554.8 194.02 554.034 193.82 553.06 193.82ZM560.535 192.06H563.135V202H560.535V192.06ZM567.755 191.84C568.368 191.84 568.935 191.92 569.455 192.08C569.975 192.24 570.428 192.487 570.815 192.82C571.202 193.153 571.502 193.58 571.715 194.1C571.928 194.607 572.035 195.213 572.035 195.92V202H569.435V196.38C569.435 195.54 569.228 194.927 568.815 194.54C568.415 194.14 567.755 193.94 566.835 193.94C566.142 193.94 565.515 194.073 564.955 194.34C564.395 194.607 563.942 194.947 563.595 195.36C563.248 195.76 563.048 196.18 562.995 196.62L562.975 195.6C563.042 195.133 563.195 194.68 563.435 194.24C563.675 193.8 563.995 193.4 564.395 193.04C564.808 192.667 565.295 192.373 565.855 192.16C566.415 191.947 567.048 191.84 567.755 191.84ZM576.415 191.84C577.028 191.84 577.595 191.92 578.115 192.08C578.635 192.24 579.088 192.487 579.475 192.82C579.862 193.153 580.162 193.58 580.375 194.1C580.602 194.607 580.715 195.213 580.715 195.92V202H578.115V196.38C578.115 195.54 577.908 194.927 577.495 194.54C577.082 194.14 576.415 193.94 575.495 193.94C574.802 193.94 574.175 194.073 573.615 194.34C573.055 194.607 572.602 194.947 572.255 195.36C571.908 195.76 571.715 196.18 571.675 196.62L571.635 195.54C571.702 195.1 571.862 194.66 572.115 194.22C572.368 193.78 572.702 193.38 573.115 193.02C573.528 192.66 574.008 192.373 574.555 192.16C575.115 191.947 575.735 191.84 576.415 191.84Z" fill="#BDBDBD"/>
<circle cx="492.531" cy="194" r="6" fill="white" stroke="url(#paint0_linear_2_2504)" stroke-width="4"/>
<path d="M515.241 156C514.501 156 513.931 155.81 513.531 155.43C513.151 155.03 512.961 154.47 512.961 153.75C512.961 153.03 513.151 152.48 513.531 152.1C513.931 151.72 514.501 151.53 515.241 151.53H517.941V139.26H520.461L516.111 141.93C515.591 142.25 515.101 142.38 514.641 142.32C514.181 142.24 513.791 142.04 513.471 141.72C513.151 141.4 512.941 141.01 512.841 140.55C512.741 140.09 512.781 139.63 512.961 139.17C513.141 138.71 513.501 138.32 514.041 138L518.181 135.42C518.621 135.14 519.071 134.93 519.531 134.79C520.011 134.65 520.511 134.58 521.031 134.58C521.791 134.58 522.381 134.78 522.801 135.18C523.221 135.56 523.431 136.12 523.431 136.86V151.53H525.831C526.571 151.53 527.131 151.72 527.511 152.1C527.911 152.48 528.111 153.03 528.111 153.75C528.111 154.47 527.911 155.03 527.511 155.43C527.131 155.81 526.571 156 525.831 156H515.241ZM537.52 156.33C534.92 156.33 532.92 155.38 531.52 153.48C530.14 151.56 529.45 148.85 529.45 145.35C529.45 142.99 529.76 141.01 530.38 139.41C531 137.79 531.91 136.57 533.11 135.75C534.31 134.93 535.78 134.52 537.52 134.52C540.14 134.52 542.14 135.44 543.52 137.28C544.9 139.12 545.59 141.8 545.59 145.32C545.59 147.66 545.28 149.65 544.66 151.29C544.04 152.93 543.13 154.18 541.93 155.04C540.73 155.9 539.26 156.33 537.52 156.33ZM537.52 151.95C538.48 151.95 539.19 151.43 539.65 150.39C540.13 149.33 540.37 147.64 540.37 145.32C540.37 143.02 540.13 141.38 539.65 140.4C539.19 139.4 538.48 138.9 537.52 138.9C536.56 138.9 535.84 139.4 535.36 140.4C534.9 141.38 534.67 143.02 534.67 145.32C534.67 147.64 534.9 149.33 535.36 150.39C535.84 151.43 536.56 151.95 537.52 151.95ZM557.398 155.46C557.138 155.92 556.808 156.22 556.408 156.36C556.008 156.52 555.618 156.55 555.238 156.45C554.858 156.35 554.528 156.16 554.248 155.88C553.968 155.6 553.798 155.25 553.738 154.83C553.678 154.41 553.778 153.97 554.038 153.51L564.538 135.42C564.818 134.94 565.148 134.63 565.528 134.49C565.908 134.33 566.288 134.3 566.668 134.4C567.068 134.5 567.398 134.7 567.658 135C567.938 135.28 568.108 135.63 568.168 136.05C568.248 136.45 568.148 136.88 567.868 137.34L557.398 155.46ZM553.048 147.45C551.248 147.45 549.848 146.86 548.848 145.68C547.868 144.48 547.378 142.9 547.378 140.94C547.378 139.62 547.608 138.48 548.068 137.52C548.528 136.56 549.178 135.82 550.018 135.3C550.858 134.78 551.868 134.52 553.048 134.52C554.828 134.52 556.208 135.11 557.188 136.29C558.188 137.45 558.688 139 558.688 140.94C558.688 142.24 558.458 143.38 557.998 144.36C557.558 145.34 556.918 146.1 556.078 146.64C555.238 147.18 554.228 147.45 553.048 147.45ZM553.048 144.15C553.348 144.15 553.598 144.05 553.798 143.85C554.018 143.63 554.178 143.29 554.278 142.83C554.398 142.35 554.458 141.72 554.458 140.94C554.458 139.76 554.328 138.94 554.068 138.48C553.828 138.02 553.488 137.79 553.048 137.79C552.728 137.79 552.458 137.89 552.238 138.09C552.038 138.27 551.878 138.59 551.758 139.05C551.658 139.51 551.608 140.14 551.608 140.94C551.608 142.14 551.728 142.98 551.968 143.46C552.208 143.92 552.568 144.15 553.048 144.15ZM568.888 156.33C567.108 156.33 565.718 155.74 564.718 154.56C563.738 153.38 563.248 151.81 563.248 149.85C563.248 148.51 563.468 147.36 563.908 146.4C564.368 145.44 565.018 144.7 565.858 144.18C566.718 143.66 567.728 143.4 568.888 143.4C570.668 143.4 572.058 143.99 573.058 145.17C574.058 146.35 574.558 147.91 574.558 149.85C574.558 151.15 574.328 152.29 573.868 153.27C573.428 154.23 572.788 154.98 571.948 155.52C571.108 156.06 570.088 156.33 568.888 156.33ZM568.888 153.06C569.208 153.06 569.468 152.96 569.668 152.76C569.888 152.54 570.048 152.2 570.148 151.74C570.268 151.26 570.328 150.63 570.328 149.85C570.328 148.67 570.198 147.85 569.938 147.39C569.698 146.93 569.348 146.7 568.888 146.7C568.588 146.7 568.328 146.8 568.108 147C567.908 147.18 567.748 147.5 567.628 147.96C567.528 148.4 567.478 149.03 567.478 149.85C567.478 151.05 567.598 151.89 567.838 152.37C568.078 152.83 568.428 153.06 568.888 153.06Z" fill="#242331"/>
<path d="M515.731 108.06V118.78H524.331V121H513.071V108.06H515.731ZM531.631 121.24C530.378 121.24 529.271 121.04 528.311 120.64C527.364 120.24 526.624 119.66 526.091 118.9C525.558 118.127 525.291 117.18 525.291 116.06C525.291 114.94 525.558 113.993 526.091 113.22C526.624 112.433 527.364 111.84 528.311 111.44C529.271 111.04 530.378 110.84 531.631 110.84C532.884 110.84 533.978 111.04 534.911 111.44C535.858 111.84 536.598 112.433 537.131 113.22C537.664 113.993 537.931 114.94 537.931 116.06C537.931 117.18 537.664 118.127 537.131 118.9C536.598 119.66 535.858 120.24 534.911 120.64C533.978 121.04 532.884 121.24 531.631 121.24ZM531.631 119.24C532.324 119.24 532.944 119.12 533.491 118.88C534.051 118.627 534.491 118.267 534.811 117.8C535.131 117.32 535.291 116.74 535.291 116.06C535.291 115.38 535.131 114.8 534.811 114.32C534.491 113.827 534.058 113.453 533.511 113.2C532.964 112.947 532.338 112.82 531.631 112.82C530.938 112.82 530.311 112.947 529.751 113.2C529.191 113.453 528.744 113.82 528.411 114.3C528.091 114.78 527.931 115.367 527.931 116.06C527.931 116.74 528.091 117.32 528.411 117.8C528.731 118.267 529.171 118.627 529.731 118.88C530.291 119.12 530.924 119.24 531.631 119.24ZM539.553 111.06H542.153V121H539.553V111.06ZM545.973 113.2C545.226 113.2 544.58 113.347 544.033 113.64C543.486 113.92 543.046 114.267 542.713 114.68C542.38 115.093 542.146 115.493 542.013 115.88L541.993 114.78C542.006 114.62 542.06 114.387 542.153 114.08C542.246 113.76 542.386 113.42 542.573 113.06C542.76 112.687 543.006 112.333 543.313 112C543.62 111.653 543.993 111.373 544.433 111.16C544.873 110.947 545.386 110.84 545.973 110.84V113.2ZM556.34 117.7H558.86C558.754 118.38 558.467 118.987 558 119.52C557.547 120.053 556.927 120.473 556.14 120.78C555.354 121.087 554.394 121.24 553.26 121.24C551.994 121.24 550.874 121.04 549.9 120.64C548.927 120.227 548.167 119.633 547.62 118.86C547.074 118.087 546.8 117.153 546.8 116.06C546.8 114.967 547.067 114.033 547.6 113.26C548.134 112.473 548.874 111.873 549.82 111.46C550.78 111.047 551.9 110.84 553.18 110.84C554.487 110.84 555.574 111.047 556.44 111.46C557.307 111.873 557.947 112.5 558.36 113.34C558.787 114.167 558.967 115.227 558.9 116.52H549.42C549.487 117.027 549.674 117.487 549.98 117.9C550.3 118.313 550.727 118.64 551.26 118.88C551.807 119.12 552.454 119.24 553.2 119.24C554.027 119.24 554.714 119.1 555.26 118.82C555.82 118.527 556.18 118.153 556.34 117.7ZM553.06 112.82C552.1 112.82 551.32 113.033 550.72 113.46C550.12 113.873 549.734 114.387 549.56 115H556.32C556.254 114.333 555.934 113.807 555.36 113.42C554.8 113.02 554.034 112.82 553.06 112.82ZM560.535 111.06H563.135V121H560.535V111.06ZM567.755 110.84C568.368 110.84 568.935 110.92 569.455 111.08C569.975 111.24 570.428 111.487 570.815 111.82C571.202 112.153 571.502 112.58 571.715 113.1C571.928 113.607 572.035 114.213 572.035 114.92V121H569.435V115.38C569.435 114.54 569.228 113.927 568.815 113.54C568.415 113.14 567.755 112.94 566.835 112.94C566.142 112.94 565.515 113.073 564.955 113.34C564.395 113.607 563.942 113.947 563.595 114.36C563.248 114.76 563.048 115.18 562.995 115.62L562.975 114.6C563.042 114.133 563.195 113.68 563.435 113.24C563.675 112.8 563.995 112.4 564.395 112.04C564.808 111.667 565.295 111.373 565.855 111.16C566.415 110.947 567.048 110.84 567.755 110.84ZM576.415 110.84C577.028 110.84 577.595 110.92 578.115 111.08C578.635 111.24 579.088 111.487 579.475 111.82C579.862 112.153 580.162 112.58 580.375 113.1C580.602 113.607 580.715 114.213 580.715 114.92V121H578.115V115.38C578.115 114.54 577.908 113.927 577.495 113.54C577.082 113.14 576.415 112.94 575.495 112.94C574.802 112.94 574.175 113.073 573.615 113.34C573.055 113.607 572.602 113.947 572.255 114.36C571.908 114.76 571.715 115.18 571.675 115.62L571.635 114.54C571.702 114.1 571.862 113.66 572.115 113.22C572.368 112.78 572.702 112.38 573.115 112.02C573.528 111.66 574.008 111.373 574.555 111.16C575.115 110.947 575.735 110.84 576.415 110.84Z" fill="#BDBDBD"/>
<circle cx="492.531" cy="113" r="6" fill="white" stroke="#FFC700" stroke-width="4"/>
<path d="M310.045 131.816V189.565C352.446 189.565 386.85 223.964 386.85 266.422C386.85 308.852 352.474 343.279 310.045 343.279C267.617 343.279 233.241 308.88 233.241 266.422C233.241 250.105 238.363 235.013 247.014 222.569H246.986L194.882 196.827C182.588 217.13 175.531 240.936 175.531 266.394C175.531 340.716 235.745 401 310.045 401C384.317 401 444.56 340.745 444.56 266.394C444.531 192.071 384.317 131.816 310.045 131.816Z" fill="#29F0A8"/>
<path d="M183.414 176.011L235.518 201.725H235.547C249.433 181.791 272.455 168.721 298.578 168.721V111C249.746 111 206.976 137.056 183.414 176.011Z" fill="#FFC700"/>
<path d="M444.532 266.394C444.532 241.876 437.958 218.896 426.49 199.105H347.096C370.772 212.204 386.85 237.405 386.85 266.394C386.85 308.823 352.475 343.251 310.046 343.251V401C384.318 401 444.532 340.745 444.532 266.394Z" fill="url(#paint1_linear_2_2504)"/>
<path d="M310.046 131.816V189.565C352.446 189.565 386.85 223.964 386.85 266.422H444.56C444.532 192.071 384.318 131.816 310.046 131.816Z" fill="#FF77E9"/>
<path d="M278.781 262.22C277.355 262.22 276.101 261.92 275.021 261.32C273.941 260.707 273.101 259.853 272.501 258.76C271.915 257.667 271.621 256.393 271.621 254.94C271.621 253.847 271.788 252.853 272.121 251.96C272.468 251.067 272.955 250.3 273.581 249.66C274.221 249.02 274.981 248.533 275.861 248.2C276.741 247.853 277.715 247.68 278.781 247.68C280.208 247.68 281.455 247.98 282.521 248.58C283.601 249.18 284.441 250.027 285.041 251.12C285.641 252.2 285.941 253.473 285.941 254.94C285.941 256.033 285.768 257.027 285.421 257.92C285.088 258.813 284.601 259.587 283.961 260.24C283.335 260.88 282.581 261.373 281.701 261.72C280.821 262.053 279.848 262.22 278.781 262.22ZM278.781 259.14C279.488 259.14 280.088 258.973 280.581 258.64C281.075 258.307 281.455 257.827 281.721 257.2C281.988 256.573 282.121 255.82 282.121 254.94C282.121 253.62 281.828 252.593 281.241 251.86C280.655 251.127 279.835 250.76 278.781 250.76C278.088 250.76 277.488 250.927 276.981 251.26C276.488 251.58 276.108 252.053 275.841 252.68C275.575 253.293 275.441 254.047 275.441 254.94C275.441 256.26 275.735 257.293 276.321 258.04C276.908 258.773 277.728 259.14 278.781 259.14ZM292.234 262.18C291.767 262.18 291.367 262.067 291.034 261.84C290.714 261.6 290.447 261.247 290.234 260.78L287.374 254.24C287.214 253.84 287.161 253.467 287.214 253.12C287.267 252.773 287.434 252.5 287.714 252.3C288.007 252.087 288.407 251.98 288.914 251.98C289.341 251.98 289.681 252.08 289.934 252.28C290.201 252.467 290.441 252.84 290.654 253.4L292.674 258.6H291.994L294.114 253.38C294.327 252.833 294.567 252.467 294.834 252.28C295.101 252.08 295.467 251.98 295.934 251.98C296.334 251.98 296.654 252.087 296.894 252.3C297.147 252.5 297.301 252.773 297.354 253.12C297.407 253.467 297.341 253.84 297.154 254.24L294.234 260.8C294.034 261.267 293.767 261.613 293.434 261.84C293.114 262.067 292.714 262.18 292.234 262.18ZM303.82 262.22C302.62 262.22 301.58 262.013 300.7 261.6C299.833 261.173 299.167 260.573 298.7 259.8C298.233 259.027 298 258.113 298 257.06C298 256.047 298.22 255.16 298.66 254.4C299.113 253.627 299.727 253.027 300.5 252.6C301.287 252.16 302.18 251.94 303.18 251.94C303.913 251.94 304.58 252.06 305.18 252.3C305.78 252.527 306.293 252.867 306.72 253.32C307.147 253.76 307.467 254.293 307.68 254.92C307.907 255.547 308.02 256.247 308.02 257.02C308.02 257.287 307.947 257.487 307.8 257.62C307.653 257.74 307.42 257.8 307.1 257.8H300.98V256.12H305.42L305.1 256.38C305.1 255.887 305.033 255.487 304.9 255.18C304.767 254.873 304.567 254.64 304.3 254.48C304.047 254.32 303.727 254.24 303.34 254.24C302.927 254.24 302.567 254.34 302.26 254.54C301.967 254.727 301.74 255.007 301.58 255.38C301.42 255.753 301.34 256.22 301.34 256.78V256.96C301.34 257.907 301.547 258.587 301.96 259C302.387 259.4 303.04 259.6 303.92 259.6C304.213 259.6 304.547 259.567 304.92 259.5C305.307 259.42 305.673 259.313 306.02 259.18C306.367 259.047 306.667 259.027 306.92 259.12C307.173 259.2 307.367 259.347 307.5 259.56C307.647 259.76 307.727 259.993 307.74 260.26C307.753 260.513 307.693 260.767 307.56 261.02C307.427 261.26 307.207 261.447 306.9 261.58C306.433 261.793 305.933 261.953 305.4 262.06C304.88 262.167 304.353 262.22 303.82 262.22ZM311.374 262.18C310.787 262.18 310.334 262.027 310.014 261.72C309.707 261.413 309.554 260.967 309.554 260.38V253.76C309.554 253.187 309.7 252.747 309.994 252.44C310.3 252.133 310.734 251.98 311.294 251.98C311.854 251.98 312.28 252.133 312.574 252.44C312.867 252.747 313.014 253.187 313.014 253.76V254.58H312.814C312.947 253.78 313.287 253.147 313.834 252.68C314.394 252.213 315.087 251.967 315.914 251.94C316.3 251.927 316.587 252.027 316.774 252.24C316.974 252.44 317.08 252.82 317.094 253.38C317.094 253.86 316.994 254.24 316.794 254.52C316.594 254.8 316.214 254.967 315.654 255.02L315.194 255.06C314.487 255.127 313.974 255.327 313.654 255.66C313.334 255.98 313.174 256.46 313.174 257.1V260.38C313.174 260.967 313.02 261.413 312.714 261.72C312.407 262.027 311.96 262.18 311.374 262.18ZM321.548 262.22C320.788 262.22 320.115 262.08 319.528 261.8C318.955 261.52 318.501 261.14 318.168 260.66C317.848 260.167 317.688 259.607 317.688 258.98C317.688 258.26 317.875 257.693 318.248 257.28C318.621 256.867 319.221 256.573 320.048 256.4C320.875 256.213 321.975 256.12 323.348 256.12H324.448V257.8H323.348C322.828 257.8 322.395 257.84 322.048 257.92C321.715 257.987 321.468 258.1 321.308 258.26C321.148 258.407 321.068 258.6 321.068 258.84C321.068 259.147 321.175 259.4 321.388 259.6C321.615 259.8 321.935 259.9 322.348 259.9C322.681 259.9 322.975 259.827 323.228 259.68C323.495 259.533 323.708 259.333 323.868 259.08C324.028 258.813 324.108 258.507 324.108 258.16V255.84C324.108 255.36 323.981 255.02 323.728 254.82C323.488 254.62 323.068 254.52 322.468 254.52C322.148 254.52 321.788 254.56 321.388 254.64C320.988 254.707 320.541 254.833 320.048 255.02C319.688 255.153 319.381 255.173 319.128 255.08C318.875 254.987 318.675 254.827 318.528 254.6C318.395 254.373 318.328 254.127 318.328 253.86C318.341 253.593 318.428 253.34 318.588 253.1C318.761 252.86 319.021 252.673 319.368 252.54C320.008 252.3 320.595 252.14 321.128 252.06C321.675 251.98 322.175 251.94 322.628 251.94C323.721 251.94 324.621 252.1 325.328 252.42C326.048 252.727 326.581 253.207 326.928 253.86C327.288 254.5 327.468 255.327 327.468 256.34V260.38C327.468 260.967 327.328 261.413 327.048 261.72C326.768 262.027 326.361 262.18 325.828 262.18C325.281 262.18 324.861 262.027 324.568 261.72C324.288 261.413 324.148 260.967 324.148 260.38V259.86L324.268 260.14C324.201 260.567 324.048 260.933 323.808 261.24C323.568 261.547 323.255 261.787 322.868 261.96C322.481 262.133 322.041 262.22 321.548 262.22ZM333.235 262.22C331.955 262.22 331.008 261.88 330.395 261.2C329.795 260.507 329.495 259.467 329.495 258.08V249.52C329.495 248.933 329.648 248.487 329.955 248.18C330.262 247.873 330.695 247.72 331.255 247.72C331.828 247.72 332.268 247.873 332.575 248.18C332.895 248.487 333.055 248.933 333.055 249.52V257.96C333.055 258.453 333.148 258.813 333.335 259.04C333.535 259.267 333.788 259.38 334.095 259.38C334.188 259.38 334.282 259.373 334.375 259.36C334.482 259.333 334.595 259.313 334.715 259.3C334.942 259.3 335.108 259.387 335.215 259.56C335.335 259.733 335.395 260.087 335.395 260.62C335.395 261.087 335.302 261.44 335.115 261.68C334.928 261.907 334.642 262.053 334.255 262.12C334.148 262.133 333.995 262.153 333.795 262.18C333.595 262.207 333.408 262.22 333.235 262.22ZM340.188 262.22C338.908 262.22 337.962 261.88 337.348 261.2C336.748 260.507 336.448 259.467 336.448 258.08V249.52C336.448 248.933 336.602 248.487 336.908 248.18C337.215 247.873 337.648 247.72 338.208 247.72C338.782 247.72 339.222 247.873 339.528 248.18C339.848 248.487 340.008 248.933 340.008 249.52V257.96C340.008 258.453 340.102 258.813 340.288 259.04C340.488 259.267 340.742 259.38 341.048 259.38C341.142 259.38 341.235 259.373 341.328 259.36C341.435 259.333 341.548 259.313 341.668 259.3C341.895 259.3 342.062 259.387 342.168 259.56C342.288 259.733 342.348 260.087 342.348 260.62C342.348 261.087 342.255 261.44 342.068 261.68C341.882 261.907 341.595 262.053 341.208 262.12C341.102 262.133 340.948 262.153 340.748 262.18C340.548 262.207 340.362 262.22 340.188 262.22ZM282.044 289C281.551 289 281.171 288.873 280.904 288.62C280.651 288.353 280.524 287.98 280.524 287.5C280.524 287.02 280.651 286.653 280.904 286.4C281.171 286.147 281.551 286.02 282.044 286.02H283.844V277.84H285.524L282.624 279.62C282.278 279.833 281.951 279.92 281.644 279.88C281.338 279.827 281.078 279.693 280.864 279.48C280.651 279.267 280.511 279.007 280.444 278.7C280.378 278.393 280.404 278.087 280.524 277.78C280.644 277.473 280.884 277.213 281.244 277L284.004 275.28C284.298 275.093 284.598 274.953 284.904 274.86C285.224 274.767 285.558 274.72 285.904 274.72C286.411 274.72 286.804 274.853 287.084 275.12C287.364 275.373 287.504 275.747 287.504 276.24V286.02H289.104C289.598 286.02 289.971 286.147 290.224 286.4C290.491 286.653 290.624 287.02 290.624 287.5C290.624 287.98 290.491 288.353 290.224 288.62C289.971 288.873 289.598 289 289.104 289H282.044ZM296.896 289.22C295.163 289.22 293.83 288.587 292.896 287.32C291.976 286.04 291.516 284.233 291.516 281.9C291.516 280.327 291.723 279.007 292.136 277.94C292.55 276.86 293.156 276.047 293.956 275.5C294.756 274.953 295.736 274.68 296.896 274.68C298.643 274.68 299.976 275.293 300.896 276.52C301.816 277.747 302.276 279.533 302.276 281.88C302.276 283.44 302.07 284.767 301.656 285.86C301.243 286.953 300.636 287.787 299.836 288.36C299.036 288.933 298.056 289.22 296.896 289.22ZM296.896 286.3C297.536 286.3 298.01 285.953 298.316 285.26C298.636 284.553 298.796 283.427 298.796 281.88C298.796 280.347 298.636 279.253 298.316 278.6C298.01 277.933 297.536 277.6 296.896 277.6C296.256 277.6 295.776 277.933 295.456 278.6C295.15 279.253 294.996 280.347 294.996 281.88C294.996 283.427 295.15 284.553 295.456 285.26C295.776 285.953 296.256 286.3 296.896 286.3ZM308.889 289.22C307.155 289.22 305.822 288.587 304.889 287.32C303.969 286.04 303.509 284.233 303.509 281.9C303.509 280.327 303.715 279.007 304.129 277.94C304.542 276.86 305.149 276.047 305.949 275.5C306.749 274.953 307.729 274.68 308.889 274.68C310.635 274.68 311.969 275.293 312.889 276.52C313.809 277.747 314.269 279.533 314.269 281.88C314.269 283.44 314.062 284.767 313.649 285.86C313.235 286.953 312.629 287.787 311.829 288.36C311.029 288.933 310.049 289.22 308.889 289.22ZM308.889 286.3C309.529 286.3 310.002 285.953 310.309 285.26C310.629 284.553 310.789 283.427 310.789 281.88C310.789 280.347 310.629 279.253 310.309 278.6C310.002 277.933 309.529 277.6 308.889 277.6C308.249 277.6 307.769 277.933 307.449 278.6C307.142 279.253 306.989 280.347 306.989 281.88C306.989 283.427 307.142 284.553 307.449 285.26C307.769 285.953 308.249 286.3 308.889 286.3ZM322.141 288.64C321.968 288.947 321.748 289.147 321.481 289.24C321.214 289.347 320.954 289.367 320.701 289.3C320.448 289.233 320.228 289.107 320.041 288.92C319.854 288.733 319.741 288.5 319.701 288.22C319.661 287.94 319.728 287.647 319.901 287.34L326.901 275.28C327.088 274.96 327.308 274.753 327.561 274.66C327.814 274.553 328.068 274.533 328.321 274.6C328.588 274.667 328.808 274.8 328.981 275C329.168 275.187 329.281 275.42 329.321 275.7C329.374 275.967 329.308 276.253 329.121 276.56L322.141 288.64ZM319.241 283.3C318.041 283.3 317.108 282.907 316.441 282.12C315.788 281.32 315.461 280.267 315.461 278.96C315.461 278.08 315.614 277.32 315.921 276.68C316.228 276.04 316.661 275.547 317.221 275.2C317.781 274.853 318.454 274.68 319.241 274.68C320.428 274.68 321.348 275.073 322.001 275.86C322.668 276.633 323.001 277.667 323.001 278.96C323.001 279.827 322.848 280.587 322.541 281.24C322.248 281.893 321.821 282.4 321.261 282.76C320.701 283.12 320.028 283.3 319.241 283.3ZM319.241 281.1C319.441 281.1 319.608 281.033 319.741 280.9C319.888 280.753 319.994 280.527 320.061 280.22C320.141 279.9 320.181 279.48 320.181 278.96C320.181 278.173 320.094 277.627 319.921 277.32C319.761 277.013 319.534 276.86 319.241 276.86C319.028 276.86 318.848 276.927 318.701 277.06C318.568 277.18 318.461 277.393 318.381 277.7C318.314 278.007 318.281 278.427 318.281 278.96C318.281 279.76 318.361 280.32 318.521 280.64C318.681 280.947 318.921 281.1 319.241 281.1ZM329.801 289.22C328.614 289.22 327.688 288.827 327.021 288.04C326.368 287.253 326.041 286.207 326.041 284.9C326.041 284.007 326.188 283.24 326.481 282.6C326.788 281.96 327.221 281.467 327.781 281.12C328.354 280.773 329.028 280.6 329.801 280.6C330.988 280.6 331.914 280.993 332.581 281.78C333.248 282.567 333.581 283.607 333.581 284.9C333.581 285.767 333.428 286.527 333.121 287.18C332.828 287.82 332.401 288.32 331.841 288.68C331.281 289.04 330.601 289.22 329.801 289.22ZM329.801 287.04C330.014 287.04 330.188 286.973 330.321 286.84C330.468 286.693 330.574 286.467 330.641 286.16C330.721 285.84 330.761 285.42 330.761 284.9C330.761 284.113 330.674 283.567 330.501 283.26C330.341 282.953 330.108 282.8 329.801 282.8C329.601 282.8 329.428 282.867 329.281 283C329.148 283.12 329.041 283.333 328.961 283.64C328.894 283.933 328.861 284.353 328.861 284.9C328.861 285.7 328.941 286.26 329.101 286.58C329.261 286.887 329.494 287.04 329.801 287.04Z" fill="#242331"/>
<g clip-path="url(#clip0_2_2504)">
<path d="M650.282 54.3334C651.84 54.3334 653.115 53.0584 653.115 51.5C653.115 49.9417 651.84 48.6667 650.282 48.6667C648.723 48.6667 647.448 49.9417 647.448 51.5C647.448 53.0584 648.723 54.3334 650.282 54.3334ZM650.282 57.1667C648.723 57.1667 647.448 58.4417 647.448 60C647.448 61.5584 648.723 62.8334 650.282 62.8334C651.84 62.8334 653.115 61.5584 653.115 60C653.115 58.4417 651.84 57.1667 650.282 57.1667ZM650.282 65.6667C648.723 65.6667 647.448 66.9417 647.448 68.5C647.448 70.0584 648.723 71.3334 650.282 71.3334C651.84 71.3334 653.115 70.0584 653.115 68.5C653.115 66.9417 651.84 65.6667 650.282 65.6667Z" fill="#BDBDBD"/>
</g>
<path d="M614.198 60V69.9167H594.365V60H591.531V69.9167C591.531 71.475 592.806 72.75 594.365 72.75H614.198C615.756 72.75 617.031 71.475 617.031 69.9167V60H614.198ZM605.698 60.9492L609.367 57.2942L611.365 59.2917L604.281 66.375L597.198 59.2917L599.195 57.2942L602.865 60.9492V47.25H605.698V60.9492Z" fill="#BDBDBD"/>
<path d="M135.355 52.2V69H138.859V52.2H135.355ZM141.067 69C142.827 69 144.363 68.656 145.675 67.968C147.003 67.28 148.035 66.312 148.771 65.064C149.507 63.8 149.875 62.312 149.875 60.6C149.875 58.888 149.507 57.408 148.771 56.16C148.035 54.896 147.003 53.92 145.675 53.232C144.363 52.544 142.827 52.2 141.067 52.2H137.563V55.32H140.947C141.683 55.32 142.379 55.424 143.035 55.632C143.691 55.824 144.267 56.136 144.763 56.568C145.259 57 145.643 57.552 145.915 58.224C146.203 58.88 146.347 59.672 146.347 60.6C146.347 61.528 146.203 62.328 145.915 63C145.643 63.656 145.259 64.2 144.763 64.632C144.267 65.064 143.691 65.384 143.035 65.592C142.379 65.784 141.683 65.88 140.947 65.88H137.563V69H141.067ZM157.455 69.24C158.783 69.24 159.919 68.984 160.863 68.472C161.823 67.944 162.591 67.16 163.167 66.12L160.455 65.28C160.135 65.808 159.727 66.208 159.231 66.48C158.751 66.736 158.167 66.864 157.479 66.864C156.871 66.864 156.351 66.728 155.919 66.456C155.487 66.184 155.159 65.792 154.935 65.28C154.727 64.768 154.623 64.144 154.623 63.408C154.639 62.64 154.751 62 154.959 61.488C155.183 60.96 155.495 60.568 155.895 60.312C156.311 60.04 156.823 59.904 157.431 59.904C157.927 59.904 158.359 60.016 158.727 60.24C159.095 60.464 159.375 60.768 159.567 61.152C159.775 61.536 159.879 62 159.879 62.544C159.879 62.656 159.847 62.8 159.783 62.976C159.735 63.136 159.679 63.264 159.615 63.36L160.455 62.256H153.279V64.176H163.167C163.183 64.08 163.191 63.952 163.191 63.792C163.207 63.632 163.215 63.48 163.215 63.336C163.215 62.152 162.991 61.144 162.543 60.312C162.095 59.464 161.439 58.824 160.575 58.392C159.727 57.944 158.695 57.72 157.479 57.72C156.263 57.72 155.207 57.96 154.311 58.44C153.415 58.904 152.719 59.568 152.223 60.432C151.743 61.28 151.503 62.296 151.503 63.48C151.503 64.648 151.743 65.664 152.223 66.528C152.719 67.376 153.415 68.04 154.311 68.52C155.207 69 156.255 69.24 157.455 69.24ZM168.607 74.28V57.96H165.487V74.28H168.607ZM177.679 63.48C177.679 62.216 177.431 61.152 176.935 60.288C176.439 59.408 175.783 58.744 174.967 58.296C174.167 57.848 173.303 57.624 172.375 57.624C171.431 57.624 170.607 57.864 169.903 58.344C169.215 58.824 168.679 59.504 168.295 60.384C167.927 61.248 167.743 62.28 167.743 63.48C167.743 64.664 167.927 65.696 168.295 66.576C168.679 67.456 169.215 68.136 169.903 68.616C170.607 69.096 171.431 69.336 172.375 69.336C173.303 69.336 174.167 69.112 174.967 68.664C175.783 68.216 176.439 67.552 176.935 66.672C177.431 65.792 177.679 64.728 177.679 63.48ZM174.463 63.48C174.463 64.136 174.327 64.696 174.055 65.16C173.783 65.624 173.415 65.976 172.951 66.216C172.503 66.456 172.007 66.576 171.463 66.576C170.999 66.576 170.543 66.464 170.095 66.24C169.663 66 169.303 65.648 169.015 65.184C168.743 64.72 168.607 64.152 168.607 63.48C168.607 62.808 168.743 62.24 169.015 61.776C169.303 61.312 169.663 60.968 170.095 60.744C170.543 60.504 170.999 60.384 171.463 60.384C172.007 60.384 172.503 60.504 172.951 60.744C173.415 60.984 173.783 61.336 174.055 61.8C174.327 62.264 174.463 62.824 174.463 63.48ZM182.205 65.568C182.205 65.248 182.277 64.984 182.421 64.776C182.565 64.552 182.789 64.384 183.093 64.272C183.397 64.144 183.789 64.08 184.269 64.08C184.861 64.08 185.421 64.16 185.949 64.32C186.493 64.48 186.981 64.72 187.413 65.04V63.6C187.253 63.408 186.989 63.208 186.621 63C186.253 62.792 185.797 62.616 185.253 62.472C184.725 62.328 184.109 62.256 183.405 62.256C182.029 62.256 180.965 62.568 180.213 63.192C179.461 63.816 179.085 64.664 179.085 65.736C179.085 66.488 179.261 67.128 179.613 67.656C179.981 68.168 180.461 68.56 181.053 68.832C181.645 69.104 182.285 69.24 182.973 69.24C183.645 69.24 184.285 69.12 184.893 68.88C185.517 68.64 186.021 68.28 186.405 67.8C186.805 67.32 187.005 66.728 187.005 66.024L186.621 64.584C186.621 65.112 186.501 65.568 186.261 65.952C186.021 66.32 185.709 66.608 185.325 66.816C184.941 67.008 184.509 67.104 184.029 67.104C183.693 67.104 183.381 67.048 183.093 66.936C182.821 66.808 182.605 66.632 182.445 66.408C182.285 66.168 182.205 65.888 182.205 65.568ZM181.005 61.08C181.165 60.968 181.413 60.832 181.749 60.672C182.085 60.512 182.485 60.376 182.949 60.264C183.413 60.152 183.901 60.096 184.413 60.096C184.749 60.096 185.053 60.128 185.325 60.192C185.597 60.256 185.829 60.36 186.021 60.504C186.229 60.648 186.381 60.832 186.477 61.056C186.573 61.264 186.621 61.52 186.621 61.824V69H189.621V61.176C189.621 60.424 189.413 59.792 188.997 59.28C188.581 58.752 188.005 58.352 187.269 58.08C186.533 57.808 185.693 57.672 184.749 57.672C183.725 57.672 182.797 57.816 181.965 58.104C181.133 58.376 180.429 58.664 179.853 58.968L181.005 61.08ZM195.561 57.96H192.513V69H195.561V57.96ZM198.801 61.2L200.217 58.56C199.993 58.272 199.697 58.056 199.329 57.912C198.977 57.768 198.601 57.696 198.201 57.696C197.625 57.696 197.065 57.904 196.521 58.32C195.977 58.72 195.537 59.264 195.201 59.952C194.865 60.624 194.697 61.4 194.697 62.28L195.561 63.144C195.561 62.616 195.625 62.168 195.753 61.8C195.897 61.416 196.105 61.12 196.377 60.912C196.649 60.704 196.977 60.6 197.361 60.6C197.681 60.6 197.945 60.656 198.153 60.768C198.377 60.864 198.593 61.008 198.801 61.2ZM200.448 57.96V60.576H207.264V57.96H200.448ZM202.344 54.12V69H205.344V54.12H202.344ZM225.239 61.944C225.239 61.048 225.111 60.288 224.855 59.664C224.615 59.024 224.239 58.544 223.727 58.224C223.215 57.888 222.551 57.72 221.735 57.72C220.983 57.72 220.311 57.88 219.719 58.2C219.143 58.52 218.655 58.992 218.255 59.616C218.015 58.992 217.631 58.52 217.103 58.2C216.575 57.88 215.903 57.72 215.087 57.72C214.351 57.72 213.719 57.88 213.191 58.2C212.663 58.52 212.239 58.984 211.919 59.592V57.96H208.919V69H211.919V62.28C211.919 61.8 211.999 61.392 212.159 61.056C212.319 60.704 212.543 60.448 212.831 60.288C213.119 60.112 213.455 60.024 213.839 60.024C214.415 60.024 214.831 60.216 215.087 60.6C215.343 60.968 215.471 61.528 215.471 62.28V69H218.567V62.28C218.567 61.8 218.647 61.392 218.807 61.056C218.967 60.704 219.191 60.448 219.479 60.288C219.767 60.112 220.103 60.024 220.487 60.024C221.063 60.024 221.479 60.216 221.735 60.6C221.991 60.968 222.119 61.528 222.119 62.28V69H225.239V61.944ZM233.51 69.24C234.838 69.24 235.974 68.984 236.918 68.472C237.878 67.944 238.646 67.16 239.222 66.12L236.51 65.28C236.19 65.808 235.782 66.208 235.286 66.48C234.806 66.736 234.222 66.864 233.534 66.864C232.926 66.864 232.406 66.728 231.974 66.456C231.542 66.184 231.214 65.792 230.99 65.28C230.782 64.768 230.678 64.144 230.678 63.408C230.694 62.64 230.806 62 231.014 61.488C231.238 60.96 231.55 60.568 231.95 60.312C232.366 60.04 232.878 59.904 233.486 59.904C233.982 59.904 234.414 60.016 234.782 60.24C235.15 60.464 235.43 60.768 235.622 61.152C235.83 61.536 235.934 62 235.934 62.544C235.934 62.656 235.902 62.8 235.838 62.976C235.79 63.136 235.734 63.264 235.67 63.36L236.51 62.256H229.334V64.176H239.222C239.238 64.08 239.246 63.952 239.246 63.792C239.262 63.632 239.27 63.48 239.27 63.336C239.27 62.152 239.046 61.144 238.598 60.312C238.15 59.464 237.494 58.824 236.63 58.392C235.782 57.944 234.75 57.72 233.534 57.72C232.318 57.72 231.262 57.96 230.366 58.44C229.47 58.904 228.774 59.568 228.278 60.432C227.798 61.28 227.558 62.296 227.558 63.48C227.558 64.648 227.798 65.664 228.278 66.528C228.774 67.376 229.47 68.04 230.366 68.52C231.262 69 232.31 69.24 233.51 69.24ZM248.742 62.28V69H251.958V61.944C251.958 60.616 251.638 59.584 250.998 58.848C250.358 58.096 249.382 57.72 248.07 57.72C247.286 57.72 246.614 57.888 246.054 58.224C245.51 58.544 245.07 59.016 244.734 59.64V57.96H241.614V69H244.734V62.28C244.734 61.816 244.822 61.416 244.998 61.08C245.174 60.744 245.43 60.488 245.766 60.312C246.102 60.12 246.486 60.024 246.918 60.024C247.558 60.024 248.022 60.216 248.31 60.6C248.598 60.984 248.742 61.544 248.742 62.28ZM253.604 57.96V60.576H260.42V57.96H253.604ZM255.5 54.12V69H258.5V54.12H255.5ZM262.627 65.184L261.115 67.128C261.531 67.528 261.995 67.904 262.507 68.256C263.035 68.592 263.619 68.864 264.259 69.072C264.915 69.28 265.635 69.384 266.419 69.384C267.683 69.384 268.675 69.08 269.395 68.472C270.115 67.848 270.475 66.984 270.475 65.88C270.475 65.208 270.323 64.664 270.019 64.248C269.715 63.832 269.307 63.488 268.795 63.216C268.299 62.928 267.755 62.672 267.163 62.448C266.683 62.24 266.251 62.064 265.867 61.92C265.499 61.776 265.211 61.616 265.003 61.44C264.811 61.248 264.715 61.032 264.715 60.792C264.715 60.52 264.811 60.32 265.003 60.192C265.211 60.048 265.491 59.976 265.843 59.976C266.371 59.976 266.907 60.112 267.451 60.384C268.011 60.656 268.491 61.008 268.891 61.44L270.259 59.52C269.907 59.168 269.499 58.864 269.035 58.608C268.571 58.336 268.067 58.12 267.523 57.96C266.979 57.8 266.395 57.72 265.771 57.72C265.035 57.72 264.363 57.84 263.755 58.08C263.163 58.304 262.691 58.648 262.339 59.112C261.987 59.56 261.811 60.112 261.811 60.768C261.811 61.456 261.963 62.024 262.267 62.472C262.587 62.904 262.987 63.256 263.467 63.528C263.947 63.784 264.443 64.008 264.955 64.2C265.499 64.376 265.947 64.544 266.299 64.704C266.651 64.864 266.915 65.048 267.091 65.256C267.283 65.448 267.379 65.688 267.379 65.976C267.379 66.296 267.267 66.552 267.043 66.744C266.819 66.92 266.499 67.008 266.083 67.008C265.763 67.008 265.419 66.944 265.051 66.816C264.699 66.688 264.323 66.496 263.923 66.24C263.523 65.968 263.091 65.616 262.627 65.184Z" fill="#242331"/>
<g filter="url(#filter0_d_2_2504)">
<rect x="28.5312" y="308" width="374" height="186" rx="30" fill="white"/>
</g>
<rect x="48.5312" y="328" width="334" height="146" rx="20" fill="#F7F7F7"/>
<path d="M240.467 405C234.98 405 230.447 400.522 231.352 395.109C232.488 388.313 234.79 381.738 238.181 375.683C243.198 366.726 250.428 359.206 259.181 353.842C267.935 348.478 277.918 345.449 288.176 345.046C298.434 344.643 308.624 346.879 317.771 351.54C326.918 356.2 334.716 363.13 340.419 371.666C346.123 380.202 349.541 390.058 350.346 400.292C351.152 410.527 349.318 420.797 345.02 430.12C342.114 436.422 338.148 442.149 333.318 447.063C329.471 450.976 323.184 449.942 319.958 445.503C316.733 441.063 317.841 434.908 321.355 430.693C323.601 427.999 325.493 425.011 326.973 421.8C329.847 415.565 331.074 408.696 330.535 401.852C329.997 395.007 327.711 388.415 323.896 382.706C320.082 376.997 314.866 372.363 308.749 369.246C302.631 366.129 295.816 364.634 288.956 364.903C282.095 365.173 275.419 367.198 269.565 370.785C263.71 374.373 258.875 379.402 255.52 385.393C253.792 388.478 252.487 391.765 251.627 395.165C250.282 400.485 245.955 405 240.467 405Z" fill="#49BAFD"/>
<path d="M273.562 407.18C273.562 407.713 273.675 408.18 273.902 408.58C274.128 408.967 274.435 409.273 274.822 409.5C275.222 409.713 275.668 409.82 276.162 409.82C276.655 409.82 277.095 409.713 277.482 409.5C277.882 409.273 278.195 408.967 278.422 408.58C278.648 408.18 278.762 407.713 278.762 407.18C278.762 406.66 278.648 406.2 278.422 405.8C278.195 405.387 277.882 405.073 277.482 404.86C277.095 404.633 276.655 404.52 276.162 404.52C275.668 404.52 275.222 404.633 274.822 404.86C274.435 405.073 274.128 405.387 273.902 405.8C273.675 406.2 273.562 406.66 273.562 407.18ZM276.402 398.04H280.022L275.542 403.32L275.022 403.5C275.368 403.14 275.708 402.907 276.042 402.8C276.388 402.693 276.808 402.64 277.302 402.64C277.835 402.64 278.355 402.747 278.862 402.96C279.382 403.173 279.842 403.48 280.242 403.88C280.642 404.28 280.962 404.76 281.202 405.32C281.442 405.88 281.562 406.5 281.562 407.18C281.562 408.273 281.315 409.2 280.822 409.96C280.342 410.72 279.695 411.3 278.882 411.7C278.068 412.087 277.162 412.28 276.162 412.28C275.162 412.28 274.255 412.087 273.442 411.7C272.628 411.3 271.975 410.72 271.482 409.96C271.002 409.2 270.762 408.273 270.762 407.18C270.762 406.487 270.895 405.847 271.162 405.26C271.428 404.66 271.762 404.107 272.162 403.6L276.402 398.04ZM294.155 407.48C294.155 408.307 294.001 409.02 293.695 409.62C293.388 410.22 292.975 410.713 292.455 411.1C291.935 411.487 291.355 411.773 290.715 411.96C290.075 412.147 289.415 412.24 288.735 412.24C287.881 412.24 287.115 412.14 286.435 411.94C285.768 411.74 285.181 411.48 284.675 411.16C284.168 410.827 283.721 410.467 283.335 410.08L284.675 407.86C285.008 408.193 285.368 408.493 285.755 408.76C286.155 409.027 286.568 409.24 286.995 409.4C287.421 409.547 287.828 409.62 288.215 409.62C288.815 409.62 289.321 409.527 289.735 409.34C290.161 409.153 290.488 408.887 290.715 408.54C290.941 408.18 291.055 407.74 291.055 407.22C291.055 406.713 290.921 406.287 290.655 405.94C290.401 405.593 290.055 405.333 289.615 405.16C289.188 404.973 288.721 404.88 288.215 404.88C287.841 404.88 287.448 404.913 287.035 404.98C286.621 405.033 286.195 405.133 285.755 405.28C285.328 405.413 284.875 405.613 284.395 405.88L286.315 398H293.935V400.48H288.435L287.595 403.36C287.941 403.173 288.308 403.047 288.695 402.98C289.095 402.9 289.501 402.86 289.915 402.86C290.675 402.86 291.375 403.047 292.015 403.42C292.655 403.793 293.168 404.327 293.555 405.02C293.955 405.7 294.155 406.52 294.155 407.48ZM295.477 401.22C295.477 400.553 295.63 399.953 295.937 399.42C296.257 398.887 296.69 398.467 297.237 398.16C297.784 397.84 298.397 397.68 299.077 397.68C299.77 397.68 300.384 397.84 300.917 398.16C301.464 398.467 301.89 398.887 302.197 399.42C302.504 399.953 302.657 400.553 302.657 401.22C302.657 401.86 302.504 402.453 302.197 403C301.89 403.533 301.464 403.96 300.917 404.28C300.384 404.6 299.77 404.76 299.077 404.76C298.397 404.76 297.784 404.6 297.237 404.28C296.69 403.96 296.257 403.533 295.937 403C295.63 402.453 295.477 401.86 295.477 401.22ZM297.637 401.22C297.637 401.487 297.697 401.74 297.817 401.98C297.937 402.207 298.104 402.387 298.317 402.52C298.53 402.653 298.784 402.72 299.077 402.72C299.37 402.72 299.617 402.653 299.817 402.52C300.03 402.387 300.197 402.207 300.317 401.98C300.437 401.74 300.497 401.487 300.497 401.22C300.497 400.94 300.437 400.687 300.317 400.46C300.197 400.233 300.03 400.053 299.817 399.92C299.617 399.773 299.37 399.7 299.077 399.7C298.784 399.7 298.53 399.773 298.317 399.92C298.104 400.053 297.937 400.233 297.817 400.46C297.697 400.687 297.637 400.94 297.637 401.22ZM304.577 408.78C304.577 408.127 304.73 407.533 305.037 407C305.357 406.453 305.79 406.027 306.337 405.72C306.884 405.4 307.497 405.24 308.177 405.24C308.87 405.24 309.484 405.4 310.017 405.72C310.564 406.027 310.99 406.453 311.297 407C311.604 407.533 311.757 408.127 311.757 408.78C311.757 409.433 311.604 410.027 311.297 410.56C310.99 411.093 310.564 411.52 310.017 411.84C309.484 412.16 308.87 412.32 308.177 412.32C307.497 412.32 306.884 412.16 306.337 411.84C305.79 411.52 305.357 411.093 305.037 410.56C304.73 410.027 304.577 409.433 304.577 408.78ZM306.737 408.78C306.737 409.047 306.797 409.3 306.917 409.54C307.037 409.767 307.204 409.947 307.417 410.08C307.63 410.213 307.884 410.28 308.177 410.28C308.47 410.28 308.717 410.213 308.917 410.08C309.13 409.947 309.297 409.767 309.417 409.54C309.537 409.3 309.597 409.047 309.597 408.78C309.597 408.5 309.537 408.247 309.417 408.02C309.297 407.793 309.13 407.613 308.917 407.48C308.717 407.347 308.47 407.28 308.177 407.28C307.884 407.28 307.63 407.347 307.417 407.48C307.204 407.613 307.037 407.793 306.917 408.02C306.797 408.247 306.737 408.5 306.737 408.78ZM307.417 398H310.037L299.837 412H297.217L307.417 398Z" fill="#141414"/>
<path d="M84.8513 444L90.0353 438.544C90.3019 438.256 90.5313 437.979 90.7233 437.712C90.9153 437.445 91.0593 437.179 91.1553 436.912C91.2513 436.645 91.2993 436.363 91.2993 436.064C91.2993 435.851 91.2566 435.643 91.1713 435.44C91.0966 435.227 90.9739 435.035 90.8033 434.864C90.6433 434.693 90.4459 434.56 90.2113 434.464C89.9766 434.357 89.7046 434.304 89.3953 434.304C88.9686 434.304 88.6006 434.405 88.2913 434.608C87.9819 434.8 87.7419 435.083 87.5713 435.456C87.4113 435.829 87.3313 436.261 87.3313 436.752H85.4593C85.4593 435.952 85.6086 435.243 85.9073 434.624C86.2166 433.995 86.6646 433.504 87.2513 433.152C87.8486 432.789 88.5739 432.608 89.4273 432.608C90.0779 432.608 90.6433 432.715 91.1233 432.928C91.6033 433.131 91.9979 433.397 92.3073 433.728C92.6273 434.059 92.8619 434.421 93.0113 434.816C93.1713 435.211 93.2513 435.595 93.2513 435.968C93.2513 436.555 93.1073 437.12 92.8193 437.664C92.5419 438.208 92.1739 438.693 91.7153 439.12L88.5312 442.24H93.3953V444H84.8513ZM95.5315 443.184C95.5315 442.875 95.6382 442.613 95.8515 442.4C96.0755 442.176 96.3422 442.064 96.6515 442.064C96.9822 442.064 97.2542 442.176 97.4675 442.4C97.6808 442.613 97.7875 442.875 97.7875 443.184C97.7875 443.483 97.6808 443.744 97.4675 443.968C97.2542 444.192 96.9822 444.304 96.6515 444.304C96.3422 444.304 96.0755 444.192 95.8515 443.968C95.6382 443.744 95.5315 443.483 95.5315 443.184ZM100.389 435.504C100.389 434.928 100.538 434.427 100.837 434C101.136 433.563 101.536 433.221 102.037 432.976C102.549 432.731 103.12 432.608 103.749 432.608C104.378 432.608 104.944 432.731 105.445 432.976C105.957 433.221 106.362 433.563 106.661 434C106.97 434.427 107.125 434.928 107.125 435.504C107.125 435.973 107.034 436.389 106.853 436.752C106.672 437.104 106.426 437.403 106.117 437.648C105.808 437.893 105.45 438.08 105.045 438.208C104.64 438.336 104.208 438.4 103.749 438.4C103.29 438.4 102.858 438.336 102.453 438.208C102.048 438.08 101.69 437.893 101.381 437.648C101.072 437.403 100.826 437.104 100.645 436.752C100.474 436.389 100.389 435.973 100.389 435.504ZM102.181 435.696C102.181 436.016 102.25 436.293 102.389 436.528C102.538 436.763 102.73 436.949 102.965 437.088C103.2 437.216 103.461 437.28 103.749 437.28C104.037 437.28 104.298 437.216 104.533 437.088C104.778 436.949 104.97 436.763 105.109 436.528C105.248 436.293 105.317 436.016 105.317 435.696C105.317 435.387 105.248 435.109 105.109 434.864C104.981 434.619 104.8 434.432 104.565 434.304C104.33 434.165 104.058 434.096 103.749 434.096C103.45 434.096 103.178 434.165 102.933 434.304C102.698 434.432 102.512 434.619 102.373 434.864C102.245 435.109 102.181 435.387 102.181 435.696ZM99.989 440.96C99.989 440.416 100.096 439.941 100.309 439.536C100.522 439.131 100.81 438.795 101.173 438.528C101.536 438.251 101.941 438.048 102.389 437.92C102.837 437.792 103.29 437.728 103.749 437.728C104.208 437.728 104.661 437.792 105.109 437.92C105.557 438.048 105.962 438.251 106.325 438.528C106.688 438.795 106.976 439.131 107.189 439.536C107.413 439.941 107.525 440.416 107.525 440.96C107.525 441.429 107.424 441.861 107.221 442.256C107.029 442.64 106.757 442.981 106.405 443.28C106.064 443.568 105.664 443.792 105.205 443.952C104.757 444.112 104.272 444.192 103.749 444.192C103.226 444.192 102.736 444.112 102.277 443.952C101.829 443.792 101.429 443.568 101.077 443.28C100.736 442.981 100.469 442.64 100.277 442.256C100.085 441.861 99.989 441.429 99.989 440.96ZM101.845 440.704C101.845 441.109 101.93 441.456 102.101 441.744C102.282 442.021 102.517 442.235 102.805 442.384C103.104 442.533 103.418 442.608 103.749 442.608C104.08 442.608 104.389 442.533 104.677 442.384C104.976 442.235 105.216 442.021 105.397 441.744C105.578 441.456 105.669 441.109 105.669 440.704C105.669 440.352 105.578 440.032 105.397 439.744C105.216 439.456 104.976 439.232 104.677 439.072C104.389 438.901 104.08 438.816 103.749 438.816C103.418 438.816 103.104 438.901 102.805 439.072C102.517 439.232 102.282 439.456 102.101 439.744C101.93 440.032 101.845 440.352 101.845 440.704ZM108.855 435.296C108.855 434.795 108.967 434.341 109.191 433.936C109.426 433.52 109.751 433.189 110.167 432.944C110.583 432.699 111.052 432.576 111.575 432.576C112.119 432.576 112.594 432.699 112.999 432.944C113.415 433.189 113.735 433.52 113.959 433.936C114.194 434.341 114.311 434.795 114.311 435.296C114.311 435.797 114.194 436.256 113.959 436.672C113.735 437.077 113.415 437.403 112.999 437.648C112.594 437.893 112.119 438.016 111.575 438.016C111.052 438.016 110.583 437.893 110.167 437.648C109.751 437.403 109.426 437.077 109.191 436.672C108.967 436.256 108.855 435.797 108.855 435.296ZM110.327 435.296C110.327 435.531 110.38 435.755 110.487 435.968C110.594 436.171 110.738 436.336 110.919 436.464C111.111 436.581 111.33 436.64 111.575 436.64C111.842 436.64 112.066 436.581 112.247 436.464C112.428 436.336 112.572 436.171 112.679 435.968C112.786 435.755 112.839 435.531 112.839 435.296C112.839 435.051 112.786 434.827 112.679 434.624C112.572 434.421 112.428 434.261 112.247 434.144C112.066 434.027 111.842 433.968 111.575 433.968C111.33 433.968 111.111 434.027 110.919 434.144C110.738 434.261 110.594 434.421 110.487 434.624C110.38 434.827 110.327 435.051 110.327 435.296ZM115.527 441.504C115.527 440.992 115.644 440.533 115.879 440.128C116.114 439.712 116.434 439.387 116.839 439.152C117.255 438.907 117.73 438.784 118.263 438.784C118.796 438.784 119.266 438.907 119.671 439.152C120.087 439.387 120.407 439.712 120.631 440.128C120.866 440.533 120.983 440.992 120.983 441.504C120.983 441.995 120.866 442.448 120.631 442.864C120.407 443.28 120.087 443.611 119.671 443.856C119.266 444.091 118.796 444.208 118.263 444.208C117.73 444.208 117.255 444.091 116.839 443.856C116.434 443.611 116.114 443.28 115.879 442.864C115.644 442.448 115.527 441.995 115.527 441.504ZM117.015 441.488C117.015 441.723 117.063 441.947 117.159 442.16C117.266 442.363 117.41 442.528 117.591 442.656C117.783 442.773 118.007 442.832 118.263 442.832C118.519 442.832 118.738 442.773 118.919 442.656C119.111 442.528 119.255 442.363 119.351 442.16C119.458 441.957 119.511 441.733 119.511 441.488C119.511 441.253 119.458 441.035 119.351 440.832C119.255 440.629 119.111 440.469 118.919 440.352C118.738 440.224 118.519 440.16 118.263 440.16C118.007 440.16 117.783 440.224 117.591 440.352C117.41 440.469 117.266 440.629 117.159 440.832C117.063 441.035 117.015 441.253 117.015 441.488ZM117.943 432.8H119.655L111.895 444H110.183L117.943 432.8Z" fill="#05A402"/>
<g clip-path="url(#clip1_2_2504)">
<path d="M78.7275 441L77.283 441.387L75.7447 435.666L71.1809 443.571L69.8819 442.821L74.4456 434.916L68.7251 436.455L68.3352 435L76.5314 432.804L78.7275 441Z" fill="#05A402"/>
</g>
<path d="M72.3613 387.46H75.6013L75.4813 392.59H72.4813L72.3613 387.46ZM72.4813 410.29H75.4813L75.6013 415.36H72.3613L72.4813 410.29ZM77.9113 397.09C77.6113 396.51 77.2713 395.99 76.8913 395.53C76.5313 395.07 76.1113 394.71 75.6313 394.45C75.1713 394.17 74.6313 394.03 74.0113 394.03C73.3913 394.03 72.8813 394.13 72.4813 394.33C72.0813 394.51 71.7813 394.76 71.5813 395.08C71.4013 395.4 71.3113 395.79 71.3113 396.25C71.3113 396.89 71.5313 397.41 71.9713 397.81C72.4313 398.21 73.0313 398.56 73.7713 398.86C74.5113 399.14 75.3013 399.44 76.1413 399.76C76.8013 400 77.4413 400.3 78.0613 400.66C78.7013 401.02 79.2813 401.45 79.8013 401.95C80.3213 402.45 80.7313 403.05 81.0313 403.75C81.3313 404.43 81.4812 405.24 81.4812 406.18C81.4812 407.44 81.1713 408.53 80.5513 409.45C79.9513 410.37 79.0913 411.08 77.9713 411.58C76.8513 412.06 75.5113 412.3 73.9513 412.3C72.7113 412.3 71.5513 412.06 70.4713 411.58C69.3913 411.08 68.4413 410.42 67.6213 409.6C66.8013 408.78 66.1713 407.86 65.7313 406.84L68.8813 404.71C69.3413 405.59 69.8213 406.33 70.3213 406.93C70.8213 407.53 71.3813 407.99 72.0013 408.31C72.6213 408.61 73.3213 408.76 74.1013 408.76C74.7413 408.76 75.2713 408.67 75.6913 408.49C76.1313 408.29 76.4513 408.01 76.6513 407.65C76.8713 407.27 76.9813 406.81 76.9813 406.27C76.9813 405.61 76.7713 405.07 76.3513 404.65C75.9313 404.21 75.3813 403.83 74.7013 403.51C74.0213 403.19 73.2713 402.88 72.4512 402.58C71.9313 402.4 71.3513 402.15 70.7113 401.83C70.0713 401.51 69.4613 401.1 68.8813 400.6C68.3013 400.1 67.8213 399.49 67.4413 398.77C67.0813 398.05 66.9013 397.19 66.9013 396.19C66.9013 395.19 67.2013 394.28 67.8013 393.46C68.4013 392.62 69.2313 391.95 70.2913 391.45C71.3513 390.95 72.5513 390.7 73.8913 390.7C75.2513 390.7 76.4013 390.92 77.3413 391.36C78.2813 391.78 79.0613 392.33 79.6812 393.01C80.3212 393.69 80.8213 394.4 81.1813 395.14L77.9113 397.09ZM85.1525 396.07C85.1525 394.95 85.4525 393.98 86.0525 393.16C86.6525 392.34 87.4525 391.71 88.4525 391.27C89.4725 390.81 90.6025 390.58 91.8425 390.58C93.0625 390.58 94.1725 390.81 95.1725 391.27C96.1925 391.71 97.0025 392.34 97.6025 393.16C98.2225 393.98 98.5325 394.95 98.5325 396.07C98.5325 396.99 98.3425 397.8 97.9625 398.5C97.6025 399.18 97.1025 399.75 96.4625 400.21C95.8425 400.67 95.1325 401.02 94.3325 401.26C93.5325 401.5 92.7025 401.62 91.8425 401.62C90.9825 401.62 90.1525 401.5 89.3525 401.26C88.5525 401.02 87.8325 400.67 87.1925 400.21C86.5725 399.75 86.0725 399.18 85.6925 398.5C85.3325 397.8 85.1525 396.99 85.1525 396.07ZM89.1725 396.49C89.1725 397.03 89.2925 397.5 89.5325 397.9C89.7725 398.3 90.0925 398.62 90.4925 398.86C90.8925 399.08 91.3425 399.19 91.8425 399.19C92.3425 399.19 92.7925 399.08 93.1925 398.86C93.5925 398.62 93.9025 398.3 94.1225 397.9C94.3625 397.5 94.4825 397.03 94.4825 396.49C94.4825 395.97 94.3725 395.5 94.1525 395.08C93.9325 394.66 93.6225 394.34 93.2225 394.12C92.8225 393.9 92.3625 393.79 91.8425 393.79C91.3225 393.79 90.8625 393.9 90.4625 394.12C90.0625 394.34 89.7425 394.66 89.5025 395.08C89.2825 395.5 89.1725 395.97 89.1725 396.49ZM84.4025 406.3C84.4025 405.24 84.6225 404.33 85.0625 403.57C85.5025 402.79 86.0825 402.15 86.8025 401.65C87.5425 401.15 88.3525 400.78 89.2325 400.54C90.1125 400.3 90.9825 400.18 91.8425 400.18C92.7025 400.18 93.5725 400.3 94.4525 400.54C95.3325 400.78 96.1325 401.15 96.8525 401.65C97.5925 402.15 98.1825 402.79 98.6225 403.57C99.0625 404.33 99.2825 405.24 99.2825 406.3C99.2825 407.22 99.0825 408.06 98.6825 408.82C98.2825 409.56 97.7325 410.2 97.0325 410.74C96.3525 411.28 95.5625 411.7 94.6625 412C93.7825 412.28 92.8425 412.42 91.8425 412.42C90.8425 412.42 89.8925 412.28 88.9925 412C88.1125 411.7 87.3225 411.28 86.6225 410.74C85.9225 410.2 85.3725 409.56 84.9725 408.82C84.5925 408.06 84.4025 407.22 84.4025 406.3ZM88.6325 405.67C88.6325 406.37 88.7725 406.96 89.0525 407.44C89.3525 407.9 89.7425 408.26 90.2225 408.52C90.7225 408.76 91.2625 408.88 91.8425 408.88C92.4025 408.88 92.9225 408.76 93.4025 408.52C93.9025 408.26 94.3025 407.9 94.6025 407.44C94.9025 406.96 95.0525 406.37 95.0525 405.67C95.0525 405.09 94.9025 404.56 94.6025 404.08C94.3025 403.6 93.9025 403.22 93.4025 402.94C92.9225 402.66 92.4025 402.52 91.8425 402.52C91.2625 402.52 90.7225 402.66 90.2225 402.94C89.7425 403.22 89.3525 403.6 89.0525 404.08C88.7725 404.56 88.6325 405.09 88.6325 405.67ZM118.259 405.22C118.259 406.46 118.029 407.53 117.569 408.43C117.109 409.33 116.489 410.07 115.709 410.65C114.929 411.23 114.059 411.66 113.099 411.94C112.139 412.22 111.149 412.36 110.129 412.36C108.849 412.36 107.699 412.21 106.679 411.91C105.679 411.61 104.799 411.22 104.039 410.74C103.279 410.24 102.609 409.7 102.029 409.12L104.039 405.79C104.539 406.29 105.079 406.74 105.659 407.14C106.259 407.54 106.879 407.86 107.519 408.1C108.159 408.32 108.769 408.43 109.349 408.43C110.249 408.43 111.009 408.29 111.629 408.01C112.269 407.73 112.759 407.33 113.099 406.81C113.439 406.27 113.609 405.61 113.609 404.83C113.609 404.07 113.409 403.43 113.009 402.91C112.629 402.39 112.109 402 111.449 401.74C110.809 401.46 110.109 401.32 109.349 401.32C108.789 401.32 108.199 401.37 107.579 401.47C106.959 401.55 106.319 401.7 105.659 401.92C105.019 402.12 104.339 402.42 103.619 402.82L106.499 391H117.929V394.72H109.679L108.419 399.04C108.939 398.76 109.489 398.57 110.069 398.47C110.669 398.35 111.279 398.29 111.899 398.29C113.039 398.29 114.089 398.57 115.049 399.13C116.009 399.69 116.779 400.49 117.359 401.53C117.959 402.55 118.259 403.78 118.259 405.22ZM123.333 408.7L127.203 409.66L123.573 417.16L120.693 416.47L123.333 408.7ZM129.643 412L139.183 402.04C139.723 401.46 140.183 400.92 140.563 400.42C140.943 399.92 141.233 399.42 141.433 398.92C141.633 398.42 141.733 397.9 141.733 397.36C141.733 396.98 141.663 396.61 141.523 396.25C141.383 395.89 141.173 395.57 140.893 395.29C140.613 395.01 140.273 394.79 139.873 394.63C139.473 394.45 139.013 394.36 138.493 394.36C137.753 394.36 137.113 394.54 136.573 394.9C136.053 395.24 135.643 395.73 135.343 396.37C135.063 397.01 134.923 397.75 134.923 398.59H130.723C130.723 397.09 131.023 395.74 131.623 394.54C132.223 393.34 133.103 392.39 134.263 391.69C135.443 390.97 136.883 390.61 138.583 390.61C139.843 390.61 140.943 390.81 141.883 391.21C142.843 391.59 143.633 392.1 144.253 392.74C144.893 393.36 145.363 394.05 145.663 394.81C145.983 395.57 146.143 396.33 146.143 397.09C146.143 398.21 145.873 399.26 145.333 400.24C144.793 401.22 144.083 402.11 143.203 402.91L137.743 408.07H146.533V412H129.643ZM165.31 405.22C165.31 406.46 165.08 407.53 164.62 408.43C164.16 409.33 163.54 410.07 162.76 410.65C161.98 411.23 161.11 411.66 160.15 411.94C159.19 412.22 158.2 412.36 157.18 412.36C155.9 412.36 154.75 412.21 153.73 411.91C152.73 411.61 151.85 411.22 151.09 410.74C150.33 410.24 149.66 409.7 149.08 409.12L151.09 405.79C151.59 406.29 152.13 406.74 152.71 407.14C153.31 407.54 153.93 407.86 154.57 408.1C155.21 408.32 155.82 408.43 156.4 408.43C157.3 408.43 158.06 408.29 158.68 408.01C159.32 407.73 159.81 407.33 160.15 406.81C160.49 406.27 160.66 405.61 160.66 404.83C160.66 404.07 160.46 403.43 160.06 402.91C159.68 402.39 159.16 402 158.5 401.74C157.86 401.46 157.16 401.32 156.4 401.32C155.84 401.32 155.25 401.37 154.63 401.47C154.01 401.55 153.37 401.7 152.71 401.92C152.07 402.12 151.39 402.42 150.67 402.82L153.55 391H164.98V394.72H156.73L155.47 399.04C155.99 398.76 156.54 398.57 157.12 398.47C157.72 398.35 158.33 398.29 158.95 398.29C160.09 398.29 161.14 398.57 162.1 399.13C163.06 399.69 163.83 400.49 164.41 401.53C165.01 402.55 165.31 403.78 165.31 405.22ZM171.884 401.5C171.884 402.56 171.984 403.53 172.184 404.41C172.384 405.27 172.674 406.02 173.054 406.66C173.434 407.28 173.884 407.76 174.404 408.1C174.924 408.44 175.504 408.61 176.144 408.61C176.804 408.61 177.394 408.44 177.914 408.1C178.434 407.76 178.884 407.28 179.264 406.66C179.644 406.02 179.934 405.27 180.134 404.41C180.334 403.53 180.434 402.56 180.434 401.5C180.434 400.44 180.334 399.48 180.134 398.62C179.934 397.74 179.644 396.99 179.264 396.37C178.884 395.73 178.434 395.24 177.914 394.9C177.394 394.56 176.804 394.39 176.144 394.39C175.504 394.39 174.924 394.56 174.404 394.9C173.884 395.24 173.434 395.73 173.054 396.37C172.674 396.99 172.384 397.74 172.184 398.62C171.984 399.48 171.884 400.44 171.884 401.5ZM167.714 401.5C167.714 399.28 168.064 397.36 168.764 395.74C169.484 394.12 170.474 392.87 171.734 391.99C173.014 391.09 174.484 390.64 176.144 390.64C177.864 390.64 179.354 391.09 180.614 391.99C181.874 392.87 182.854 394.12 183.554 395.74C184.254 397.36 184.604 399.28 184.604 401.5C184.604 403.72 184.254 405.64 183.554 407.26C182.854 408.88 181.874 410.14 180.614 411.04C179.354 411.92 177.864 412.36 176.144 412.36C174.484 412.36 173.014 411.92 171.734 411.04C170.474 410.14 169.484 408.88 168.764 407.26C168.064 405.64 167.714 403.72 167.714 401.5Z" fill="#3E3D49"/>
<path d="M72.8313 372.3C71.5646 372.3 70.4446 372 69.4713 371.4C68.4979 370.8 67.7313 369.953 67.1713 368.86C66.6246 367.767 66.3513 366.48 66.3513 365C66.3513 363.52 66.6246 362.233 67.1713 361.14C67.7313 360.033 68.4979 359.18 69.4713 358.58C70.4446 357.967 71.5646 357.66 72.8313 357.66C73.9779 357.66 75.0046 357.913 75.9113 358.42C76.8179 358.913 77.5579 359.613 78.1313 360.52L76.5113 361.48C76.0979 360.84 75.5779 360.347 74.9513 360C74.3246 359.653 73.6179 359.48 72.8313 359.48C71.9246 359.48 71.1246 359.707 70.4313 360.16C69.7513 360.613 69.2179 361.253 68.8313 362.08C68.4446 362.893 68.2513 363.867 68.2513 365C68.2513 366.12 68.4446 367.093 68.8313 367.92C69.2179 368.733 69.7513 369.367 70.4313 369.82C71.1246 370.273 71.9246 370.5 72.8313 370.5C73.6179 370.5 74.3246 370.327 74.9513 369.98C75.5779 369.633 76.0979 369.14 76.5113 368.5L78.1313 369.46C77.5579 370.353 76.8179 371.053 75.9113 371.56C75.0046 372.053 73.9779 372.3 72.8313 372.3ZM83.2292 372.22C82.2159 372.22 81.3959 371.9 80.7692 371.26C80.1426 370.607 79.8292 369.667 79.8292 368.44V362.4H81.6092V368.08C81.6092 368.907 81.7959 369.533 82.1692 369.96C82.5426 370.373 83.0226 370.58 83.6092 370.58C84.2892 370.58 84.8426 370.36 85.2692 369.92C85.7092 369.467 85.9292 368.86 85.9292 368.1V362.4H87.7092V372H86.0892L86.0092 370.76C85.7292 371.16 85.3492 371.507 84.8692 371.8C84.4026 372.08 83.8559 372.22 83.2292 372.22ZM90.1189 372V362.4H91.7589L91.8589 363.9C92.1256 363.38 92.5256 362.96 93.0589 362.64C93.6056 362.32 94.1922 362.16 94.8189 362.16C95.0322 362.16 95.2322 362.173 95.4189 362.2C95.6056 362.227 95.7656 362.253 95.8989 362.28V364.02C95.7522 363.98 95.5656 363.947 95.3389 363.92C95.1122 363.893 94.8656 363.88 94.5989 363.88C93.8522 363.88 93.2189 364.127 92.6989 364.62C92.1789 365.1 91.9189 365.733 91.9189 366.52V372H90.1189ZM97.397 372V362.4H99.037L99.137 363.9C99.4037 363.38 99.8037 362.96 100.337 362.64C100.884 362.32 101.47 362.16 102.097 362.16C102.31 362.16 102.51 362.173 102.697 362.2C102.884 362.227 103.044 362.253 103.177 362.28V364.02C103.03 363.98 102.844 363.947 102.617 363.92C102.39 363.893 102.144 363.88 101.877 363.88C101.13 363.88 100.497 364.127 99.977 364.62C99.457 365.1 99.197 365.733 99.197 366.52V372H97.397ZM108.755 372.22C107.848 372.22 107.048 372.027 106.355 371.64C105.662 371.253 105.122 370.687 104.735 369.94C104.348 369.18 104.155 368.267 104.155 367.2C104.155 366.173 104.348 365.287 104.735 364.54C105.122 363.78 105.648 363.193 106.315 362.78C106.995 362.367 107.775 362.16 108.655 362.16C109.535 362.16 110.282 362.38 110.895 362.82C111.522 363.247 111.995 363.82 112.315 364.54C112.648 365.26 112.815 366.047 112.815 366.9V367.38H105.915C105.942 368.447 106.208 369.26 106.715 369.82C107.235 370.367 107.922 370.64 108.775 370.64C109.455 370.64 110.015 370.473 110.455 370.14C110.908 369.807 111.288 369.307 111.595 368.64L112.955 369.54C112.502 370.473 111.922 371.153 111.215 371.58C110.522 372.007 109.702 372.22 108.755 372.22ZM106.015 365.94H111.055C110.948 365.247 110.682 364.687 110.255 364.26C109.828 363.833 109.288 363.62 108.635 363.62C107.942 363.62 107.368 363.82 106.915 364.22C106.462 364.607 106.162 365.18 106.015 365.94ZM114.824 372V362.4H116.444L116.544 363.64C116.824 363.24 117.198 362.893 117.664 362.6C118.144 362.307 118.691 362.16 119.304 362.16C120.318 362.16 121.138 362.487 121.764 363.14C122.404 363.78 122.724 364.713 122.724 365.94V372H120.944V366.32C120.944 365.48 120.758 364.853 120.384 364.44C120.011 364.013 119.524 363.8 118.924 363.8C118.244 363.8 117.691 364.027 117.264 364.48C116.838 364.92 116.624 365.513 116.624 366.26V372H114.824ZM128.579 372.22C127.673 372.22 126.986 372.047 126.519 371.7C126.053 371.34 125.819 370.66 125.819 369.66V363.96H123.879V362.4H125.819V358.96H127.599V362.4H130.379V363.96H127.599V369.28C127.599 369.8 127.713 370.153 127.939 370.34C128.179 370.513 128.533 370.6 128.999 370.6C129.239 370.6 129.486 370.567 129.739 370.5C130.006 370.42 130.219 370.34 130.379 370.26V371.92C130.166 372.013 129.893 372.087 129.559 372.14C129.226 372.193 128.899 372.22 128.579 372.22ZM137.562 372V358H143.102C144.342 358 145.309 358.307 146.002 358.92C146.709 359.52 147.062 360.393 147.062 361.54C147.062 362.327 146.882 362.987 146.522 363.52C146.162 364.053 145.689 364.427 145.102 364.64C145.862 364.813 146.482 365.233 146.962 365.9C147.455 366.553 147.702 367.333 147.702 368.24C147.702 369.493 147.329 370.433 146.582 371.06C145.849 371.687 144.775 372 143.362 372H137.562ZM139.382 370.28H143.142C144.049 370.28 144.709 370.1 145.122 369.74C145.535 369.367 145.742 368.793 145.742 368.02C145.742 367.273 145.495 366.693 145.002 366.28C144.509 365.867 143.882 365.66 143.122 365.66H139.382V370.28ZM139.382 363.92H142.902C143.609 363.92 144.149 363.727 144.522 363.34C144.895 362.953 145.082 362.44 145.082 361.8C145.082 360.413 144.315 359.72 142.782 359.72H139.382V363.92ZM152.618 372.16C151.644 372.187 150.838 371.967 150.198 371.5C149.571 371.02 149.258 370.333 149.258 369.44C149.258 368.787 149.464 368.22 149.878 367.74C150.304 367.26 150.844 366.887 151.498 366.62C152.164 366.34 152.851 366.2 153.558 366.2C153.971 366.173 154.351 366.213 154.698 366.32C155.044 366.413 155.344 366.553 155.598 366.74V365.54C155.598 364.793 155.438 364.307 155.118 364.08C154.811 363.853 154.331 363.74 153.678 363.74C153.118 363.74 152.518 363.84 151.878 364.04C151.251 364.24 150.718 364.493 150.278 364.8L149.438 363.4C149.984 363.053 150.631 362.76 151.378 362.52C152.138 362.28 152.904 362.16 153.678 362.16C154.904 362.16 155.818 362.407 156.418 362.9C157.018 363.38 157.318 364.26 157.318 365.54V370.36C157.318 370.613 157.384 370.76 157.518 370.8C157.651 370.84 157.951 370.807 158.418 370.7V371.86C158.244 371.927 158.024 371.993 157.758 372.06C157.491 372.127 157.218 372.16 156.938 372.16C156.511 372.16 156.204 372.08 156.018 371.92C155.831 371.76 155.704 371.473 155.638 371.06C155.278 371.42 154.824 371.687 154.278 371.86C153.731 372.033 153.178 372.133 152.618 372.16ZM152.638 370.58C153.198 370.567 153.704 370.487 154.158 370.34C154.624 370.18 154.991 369.96 155.258 369.68C155.524 369.387 155.644 369.04 155.618 368.64C155.591 368.267 155.398 368 155.038 367.84C154.691 367.68 154.244 367.613 153.698 367.64C153.204 367.653 152.751 367.747 152.338 367.92C151.924 368.08 151.591 368.293 151.338 368.56C151.098 368.827 150.978 369.127 150.978 369.46C150.991 369.833 151.144 370.12 151.438 370.32C151.731 370.507 152.131 370.593 152.638 370.58ZM160.141 372V357.66H161.941V372H160.141ZM167.193 372.16C166.22 372.187 165.413 371.967 164.773 371.5C164.147 371.02 163.833 370.333 163.833 369.44C163.833 368.787 164.04 368.22 164.453 367.74C164.88 367.26 165.42 366.887 166.073 366.62C166.74 366.34 167.427 366.2 168.133 366.2C168.547 366.173 168.927 366.213 169.273 366.32C169.62 366.413 169.92 366.553 170.173 366.74V365.54C170.173 364.793 170.013 364.307 169.693 364.08C169.387 363.853 168.907 363.74 168.253 363.74C167.693 363.74 167.093 363.84 166.453 364.04C165.827 364.24 165.293 364.493 164.853 364.8L164.013 363.4C164.56 363.053 165.207 362.76 165.953 362.52C166.713 362.28 167.48 362.16 168.253 362.16C169.48 362.16 170.393 362.407 170.993 362.9C171.593 363.38 171.893 364.26 171.893 365.54V370.36C171.893 370.613 171.96 370.76 172.093 370.8C172.227 370.84 172.527 370.807 172.993 370.7V371.86C172.82 371.927 172.6 371.993 172.333 372.06C172.067 372.127 171.793 372.16 171.513 372.16C171.087 372.16 170.78 372.08 170.593 371.92C170.407 371.76 170.28 371.473 170.213 371.06C169.853 371.42 169.4 371.687 168.853 371.86C168.307 372.033 167.753 372.133 167.193 372.16ZM167.213 370.58C167.773 370.567 168.28 370.487 168.733 370.34C169.2 370.18 169.567 369.96 169.833 369.68C170.1 369.387 170.22 369.04 170.193 368.64C170.167 368.267 169.973 368 169.613 367.84C169.267 367.68 168.82 367.613 168.273 367.64C167.78 367.653 167.327 367.747 166.913 367.92C166.5 368.08 166.167 368.293 165.913 368.56C165.673 368.827 165.553 369.127 165.553 369.46C165.567 369.833 165.72 370.12 166.013 370.32C166.307 370.507 166.707 370.593 167.213 370.58ZM174.717 372V362.4H176.337L176.437 363.64C176.717 363.24 177.09 362.893 177.557 362.6C178.037 362.307 178.583 362.16 179.197 362.16C180.21 362.16 181.03 362.487 181.657 363.14C182.297 363.78 182.617 364.713 182.617 365.94V372H180.837V366.32C180.837 365.48 180.65 364.853 180.277 364.44C179.903 364.013 179.417 363.8 178.817 363.8C178.137 363.8 177.583 364.027 177.157 364.48C176.73 364.92 176.517 365.513 176.517 366.26V372H174.717ZM189.062 372.22C188.182 372.22 187.395 372.013 186.702 371.6C186.022 371.173 185.482 370.587 185.082 369.84C184.695 369.08 184.502 368.2 184.502 367.2C184.502 366.2 184.695 365.32 185.082 364.56C185.482 363.8 186.022 363.213 186.702 362.8C187.395 362.373 188.182 362.16 189.062 362.16C189.795 362.16 190.469 362.313 191.082 362.62C191.695 362.913 192.209 363.347 192.622 363.92L191.202 364.98C190.709 364.193 189.995 363.8 189.062 363.8C188.249 363.8 187.582 364.1 187.062 364.7C186.555 365.3 186.302 366.133 186.302 367.2C186.302 368.253 186.555 369.08 187.062 369.68C187.582 370.28 188.249 370.58 189.062 370.58C189.995 370.58 190.715 370.193 191.222 369.42L192.622 370.46C192.209 371.033 191.695 371.473 191.082 371.78C190.469 372.073 189.795 372.22 189.062 372.22ZM198.177 372.22C197.27 372.22 196.47 372.027 195.777 371.64C195.084 371.253 194.544 370.687 194.157 369.94C193.77 369.18 193.577 368.267 193.577 367.2C193.577 366.173 193.77 365.287 194.157 364.54C194.544 363.78 195.07 363.193 195.737 362.78C196.417 362.367 197.197 362.16 198.077 362.16C198.957 362.16 199.704 362.38 200.317 362.82C200.944 363.247 201.417 363.82 201.737 364.54C202.07 365.26 202.237 366.047 202.237 366.9V367.38H195.337C195.364 368.447 195.63 369.26 196.137 369.82C196.657 370.367 197.344 370.64 198.197 370.64C198.877 370.64 199.437 370.473 199.877 370.14C200.33 369.807 200.71 369.307 201.017 368.64L202.377 369.54C201.924 370.473 201.344 371.153 200.637 371.58C199.944 372.007 199.124 372.22 198.177 372.22ZM195.437 365.94H200.477C200.37 365.247 200.104 364.687 199.677 364.26C199.25 363.833 198.71 363.62 198.057 363.62C197.364 363.62 196.79 363.82 196.337 364.22C195.884 364.607 195.584 365.18 195.437 365.94Z" fill="#94ADC2"/>
<defs>
<filter id="filter0_d_2_2504" x="0.53125" y="283" width="464" height="276" filterUnits="userSpaceOnUse" color-interpolation-filters="sRGB">
<feFlood flood-opacity="0" result="BackgroundImageFix"/>
<feColorMatrix in="SourceAlpha" type="matrix" values="0 0 0 0 0 0 0 0 0 0 0 0 0 0 0 0 0 0 127 0" result="hardAlpha"/>
<feMorphology radius="1" operator="dilate" in="SourceAlpha" result="effect1_dropShadow_2_2504"/>
<feOffset dx="17" dy="20"/>
<feGaussianBlur stdDeviation="22"/>
<feComposite in2="hardAlpha" operator="out"/>
<feColorMatrix type="matrix" values="0 0 0 0 0.629167 0 0 0 0 0.629167 0 0 0 0 0.629167 0 0 0 0.25 0"/>
<feBlend mode="normal" in2="BackgroundImageFix" result="effect1_dropShadow_2_2504"/>
<feBlend mode="normal" in="SourceGraphic" in2="effect1_dropShadow_2_2504" result="shape"/>
</filter>
<linearGradient id="paint0_linear_2_2504" x1="492.531" y1="186" x2="492.531" y2="202" gradientUnits="userSpaceOnUse">
<stop stop-color="#00A3E3"/>
<stop offset="1" stop-color="#9FCD10"/>
</linearGradient>
<linearGradient id="paint1_linear_2_2504" x1="377.289" y1="199.105" x2="377.289" y2="401" gradientUnits="userSpaceOnUse">
<stop stop-color="#00A3E3"/>
<stop offset="1" stop-color="#9FCD10"/>
</linearGradient>
<clipPath id="clip0_2_2504">
<rect width="34" height="34" fill="white" transform="translate(633.281 43)"/>
</clipPath>
<clipPath id="clip1_2_2504">
<rect width="18" height="18" rx="9" transform="matrix(1 0 0 -1 64.5312 447)" fill="white"/>
</clipPath>
</defs>
</svg>
