<svg width="80" height="40" viewBox="0 0 80 40" fill="none" xmlns="http://www.w3.org/2000/svg">
<path d="M11.0002 29.4165C9.7968 29.6279 8.57219 29.6912 7.30539 29.86L3.44148 18.5431V30.3457C2.23805 30.4723 1.14016 30.6412 0 30.8101V9.18961H3.20938L7.60094 21.4569V9.18961H11.0002V29.4165ZM17.6511 17.1073C18.9602 17.1073 20.966 17.0439 22.1695 17.0439V20.4221C20.6703 20.4221 18.918 20.4221 17.6511 20.4854V25.5106C19.6359 25.3839 21.6205 25.2149 23.6262 25.1515V28.4028L14.2728 29.142V9.18961H23.6262V12.5678H17.6511V17.1073ZM36.1889 12.5679H32.6841V28.1076C31.5439 28.1076 30.4037 28.1076 29.306 28.1497V12.5679H25.8012V9.18961H36.1891L36.1889 12.5679ZM41.6784 16.8751H46.3024V20.2532H41.6784V27.9176H38.3634V9.18961H47.8015V12.5678H41.6784V16.8751ZM53.291 24.9616C55.2124 25.0037 57.1548 25.1517 59.034 25.2571V28.5932C56.0148 28.403 52.9955 28.2132 49.9129 28.1497V9.18961H53.291V24.9616ZM61.8843 28.8254C62.9611 28.8889 64.1012 28.9522 65.1991 29.0787V9.18961H61.8843V28.8254ZM80 9.18961L75.7138 19.472L80 30.8101C78.733 30.6412 77.4662 30.4089 76.1994 30.1978L73.7714 23.9482L71.3013 29.6912C70.0765 29.4799 68.8941 29.4165 67.6698 29.2476L72.0191 19.3453L68.0919 9.18961H71.7233L73.9402 14.8692L76.3051 9.18961H80Z" fill="#FF8800"/>
</svg>
