<svg width="80" height="40" viewBox="0 0 80 40" fill="none" xmlns="http://www.w3.org/2000/svg">
<path fill-rule="evenodd" clip-rule="evenodd" d="M22.7255 11.6022C23.8255 11.8985 24.69 12.7629 24.9822 13.8589C25.514 15.8477 25.514 20 25.514 20C25.514 20 25.514 24.1521 24.9822 26.141C24.6859 27.2409 23.8215 28.1054 22.7255 28.3977C20.7367 28.9294 12.757 28.9294 12.757 28.9294C12.757 28.9294 4.78137 28.9294 2.78846 28.3977C1.68854 28.1014 0.823973 27.2369 0.531765 26.141C0 24.1521 0 19.9999 0 19.9999C0 19.9999 0 15.8477 0.531765 13.8589C0.828064 12.7589 1.69263 11.8944 2.78846 11.6022C4.78137 11.0704 12.757 11.0704 12.757 11.0704C12.757 11.0704 20.7367 11.0704 22.7255 11.6022ZM16.8362 19.9999L10.2081 23.8275V16.1725L16.8362 19.9999Z" fill="#E64545"/>
<path fill-rule="evenodd" clip-rule="evenodd" d="M37.0334 27.3178C36.5301 26.9769 36.1689 26.4492 35.9578 25.7309C35.7467 25.0124 35.6371 24.0586 35.6371 22.8652V21.2417C35.6371 20.0363 35.7589 19.0703 36.0024 18.3396C36.246 17.609 36.6275 17.0774 37.1429 16.7445C37.6584 16.4117 38.3363 16.2412 39.1764 16.2412C40.0045 16.2412 40.6661 16.4117 41.1653 16.7527C41.6645 17.0935 42.0298 17.6253 42.2612 18.3477C42.4926 19.0703 42.6063 20.0363 42.6063 21.2376V22.8612C42.6063 24.0545 42.4926 25.0124 42.2693 25.7349C42.0461 26.4573 41.6809 26.9891 41.1734 27.3219C40.6701 27.6547 39.9842 27.8253 39.1196 27.8253C38.2348 27.8292 37.5367 27.6587 37.0334 27.3178ZM39.8624 25.5644C40.0004 25.1991 40.0735 24.6024 40.0735 23.7785V20.292C40.0735 19.4883 40.0045 18.9038 39.8624 18.5305C39.7245 18.161 39.4768 17.9744 39.1237 17.9744C38.7828 17.9744 38.5432 18.161 38.4012 18.5305C38.2632 18.8997 38.1902 19.4883 38.1902 20.292V23.7785C38.1902 24.6065 38.2551 25.2032 38.3891 25.5644C38.523 25.9297 38.7665 26.1123 39.1197 26.1123C39.4768 26.1123 39.7204 25.9297 39.8624 25.5644ZM75.7832 22.8936V23.4579C75.7832 24.1763 75.8036 24.712 75.8483 25.0732C75.8888 25.4305 75.9781 25.6943 76.1121 25.8567C76.246 26.019 76.4529 26.1043 76.733 26.1043C77.1105 26.1043 77.3702 25.9581 77.5083 25.6658C77.6463 25.3736 77.7233 24.8865 77.7356 24.2047L79.907 24.3306C79.9193 24.4279 79.9232 24.5618 79.9232 24.7323C79.9232 25.7674 79.6391 26.5385 79.0749 27.0499C78.5108 27.5613 77.7112 27.817 76.6762 27.817C75.4342 27.817 74.5656 27.4274 74.0664 26.6481C73.5671 25.8688 73.3196 24.6673 73.3196 23.0358V21.0834C73.3196 19.4031 73.5793 18.1813 74.0947 17.4062C74.6102 16.635 75.495 16.2493 76.7493 16.2493C77.6138 16.2493 78.2754 16.4077 78.738 16.7242C79.2008 17.0408 79.5255 17.5318 79.7163 18.2016C79.903 18.8713 80.0004 19.7968 80.0004 20.9738V22.8897H75.7832V22.8936ZM76.1039 18.1854C75.978 18.3438 75.8928 18.6035 75.8482 18.9607C75.8035 19.3178 75.7832 19.8658 75.7832 20.5923V21.396H77.6259V20.5923C77.6259 19.8738 77.6016 19.33 77.5528 18.9607C77.5042 18.5913 77.4149 18.3275 77.2891 18.1773C77.1632 18.0271 76.9643 17.95 76.6965 17.95C76.4286 17.9459 76.2297 18.0271 76.1039 18.1854ZM30.9045 22.6826L28.0391 12.3366H30.5392L31.5418 17.0246C31.7975 18.1814 31.9842 19.1636 32.106 19.9794H32.179C32.2642 19.3949 32.4509 18.4168 32.7432 17.0408L33.7822 12.3325H36.2825L33.3845 22.6826V27.6466H30.9045V22.6826ZM50.7361 16.4605V27.6425H48.7675L48.5483 26.2747H48.4955C47.9598 27.3097 47.1562 27.8252 46.0886 27.8252C45.346 27.8252 44.7979 27.5817 44.4449 27.0946C44.0917 26.6075 43.9172 25.8485 43.9172 24.8135V16.4605H46.4337V24.6714C46.4337 25.1707 46.4865 25.5279 46.5961 25.7389C46.7057 25.95 46.8883 26.0596 47.144 26.0596C47.3632 26.0596 47.5742 25.9945 47.7731 25.8607C47.9719 25.7268 48.1221 25.5562 48.2196 25.3493V16.4603L50.7361 16.4605ZM63.6513 16.4605V27.6425H61.6828L61.4636 26.2747H61.4108C60.8751 27.3097 60.0714 27.8252 59.0039 27.8252C58.2612 27.8252 57.7132 27.5817 57.3602 27.0946C57.007 26.6075 56.8325 25.8485 56.8325 24.8135V16.4605H59.349V24.6714C59.349 25.1707 59.4017 25.5279 59.5113 25.7389C59.6208 25.95 59.8036 26.0596 60.0593 26.0596C60.2785 26.0596 60.4895 25.9945 60.6884 25.8607C60.8872 25.7268 61.0374 25.5562 61.1349 25.3493V16.4603L63.6513 16.4605Z" fill="#E64545"/>
<path fill-rule="evenodd" clip-rule="evenodd" d="M57.5794 14.3621H55.0792V27.6426H52.6155V14.3621H50.1152V12.3368H57.5753V14.3621H57.5794ZM71.9843 18.2504C71.8301 17.5442 71.5865 17.0328 71.2456 16.7163C70.9047 16.3996 70.438 16.2414 69.8412 16.2414C69.3786 16.2414 68.9483 16.3712 68.5465 16.6351C68.1447 16.8948 67.8362 17.2399 67.617 17.666H67.5967V11.7726H65.1695V27.6467H67.2476L67.5033 26.5874H67.5562C67.7509 26.9649 68.0431 27.2612 68.4328 27.4803C68.8224 27.6995 69.2528 27.8091 69.7276 27.8091C70.58 27.8091 71.205 27.4153 71.6069 26.632C72.0086 25.8487 72.2076 24.6229 72.2076 22.9547V21.185C72.2117 19.9349 72.1345 18.9567 71.9843 18.2505V18.2504ZM69.6748 22.8126C69.6748 23.6285 69.6423 24.2657 69.5734 24.7284C69.5084 25.1912 69.3948 25.5199 69.2365 25.7147C69.0781 25.9095 68.8671 26.0069 68.5992 26.0069C68.3922 26.0069 68.2015 25.9583 68.0229 25.8608C67.8484 25.7634 67.7023 25.6173 67.5926 25.4224V19.0704C67.6779 18.7659 67.824 18.5184 68.0311 18.3236C68.238 18.1288 68.4612 18.0313 68.7047 18.0313C68.9604 18.0313 69.1593 18.1327 69.2973 18.3316C69.4354 18.5306 69.5328 18.8714 69.5895 19.3423C69.6424 19.8172 69.6707 20.491 69.6707 21.3676V22.8126H69.6748Z" fill="#E64545"/>
</svg>
